SplineFontDB: 3.0
FontName: Ciconne
FullName: Ciconne
FamilyName: Ciconne
Weight: Book
Copyright: Copyright (c) 2001 by Vernon Adams. All rights reserved.
Version: 1.000
ItalicAngle: 0
UnderlinePosition: -103
UnderlineWidth: 102
Ascent: 1638
Descent: 410
sfntRevision: 0x00010000
LayerCount: 2
Layer: 0 1 "Back"  1
Layer: 1 1 "Fore"  0
XUID: [1021 956 130891471 7764409]
FSType: 0
OS2Version: 3
OS2_WeightWidthSlopeOnly: 0
OS2_UseTypoMetrics: 1
CreationTime: 1320497100
ModificationTime: 1320503617
PfmFamily: 17
TTFWeight: 400
TTFWidth: 5
LineGap: 0
VLineGap: 0
Panose: 2 0 0 0 0 0 0 0 0 0
OS2TypoAscent: 134
OS2TypoAOffset: 1
OS2TypoDescent: -88
OS2TypoDOffset: 1
OS2TypoLinegap: 0
OS2WinAscent: 0
OS2WinAOffset: 1
OS2WinDescent: 0
OS2WinDOffset: 1
HheadAscent: 0
HheadAOffset: 1
HheadDescent: 0
HheadDOffset: 1
OS2SubXSize: 1434
OS2SubYSize: 1331
OS2SubXOff: 0
OS2SubYOff: 287
OS2SupXSize: 1434
OS2SupYSize: 1331
OS2SupXOff: 0
OS2SupYOff: 977
OS2StrikeYSize: 102
OS2StrikeYPos: 512
OS2Vendor: 'newt'
OS2CodePages: 00000001.00000000
OS2UnicodeRanges: 800000a7.40000000.00000000.00000000
Lookup: 4 0 1 "'liga' Standard Ligatures in Latin lookup 0"  {"'liga' Standard Ligatures in Latin lookup 0 subtable"  } ['liga' ('DFLT' <'dflt' > 'latn' <'dflt' > ) ]
Lookup: 4 0 1 "'liga' Standard Ligatures in Latin lookup 1"  {"'liga' Standard Ligatures in Latin lookup 1 subtable"  } ['liga' ('latn' <'dflt' > ) ]
Lookup: 258 0 0 "'kern' Horizontal Kerning lookup 0"  {"'kern' Horizontal Kerning lookup 0-1" [307,22,2] } ['kern' ('DFLT' <'dflt' > 'grek' <'dflt' > 'latn' <'dflt' > ) ]
MarkAttachClasses: 1
DEI: 91125
KernClass2: 8 5 "'kern' Horizontal Kerning lookup 0-1" 
 1 T
 1 P
 3 V W
 1 F
 1 H
 1 f
 1 r
 14 a c e o oslash
 1 d
 1 q
 0 
 0 {} 0 {} 0 {} 0 {} 0 {} 0 {} -206 {} -313 {} -275 {} -247 {} 0 {} -201 {} -260 {} -256 {} -247 {} 0 {} -119 {} -185 {} -158 {} -144 {} 0 {} -180 {} -100 {} -100 {} 0 {} 0 {} -31 {} -110 {} -77 {} 0 {} 0 {} -217 {} -292 {} -314 {} 0 {} 0 {} -40 {} 0 {} 0 {} 0 {}

StartChar: dollar
Encoding: 36 36 5
Width: 887
GlyphClass: 2
Flags: W
LayerCount: 2
Fore
SplineSet
4 197 m 0,0,1
 4 215 4 215 9 234 c 128,-1,2
 14 253 14 253 24 269.5 c 128,-1,3
 34 286 34 286 49.5 296.5 c 128,-1,4
 65 307 65 307 86 307 c 0,5,6
 129 307 129 307 157.5 277.5 c 128,-1,7
 186 248 186 248 186 205 c 0,8,9
 186 176 186 176 163.5 154.5 c 128,-1,10
 141 133 141 133 116 123 c 1,11,-1
 114 123 l 1,12,13
 143 104 143 104 177.5 91 c 128,-1,14
 212 78 212 78 248 70.5 c 128,-1,15
 284 63 284 63 320.5 60 c 128,-1,16
 357 57 357 57 391 57 c 0,17,18
 426 57 426 57 465 63.5 c 128,-1,19
 504 70 504 70 536.5 87 c 128,-1,20
 569 104 569 104 590.5 132.5 c 128,-1,21
 612 161 612 161 612 205 c 0,22,23
 612 242 612 242 592 268.5 c 128,-1,24
 572 295 572 295 539.5 315.5 c 128,-1,25
 507 336 507 336 465 352 c 128,-1,26
 423 368 423 368 379.5 384.5 c 128,-1,27
 336 401 336 401 294 419 c 128,-1,28
 252 437 252 437 219.5 461 c 128,-1,29
 187 485 187 485 167 517.5 c 128,-1,30
 147 550 147 550 147 594 c 0,31,32
 147 674 147 674 187 729.5 c 128,-1,33
 227 785 227 785 288 819.5 c 128,-1,34
 349 854 349 854 422 869.5 c 128,-1,35
 495 885 495 885 561 885 c 0,36,37
 599 885 599 885 648.5 877 c 128,-1,38
 698 869 698 869 741.5 850 c 128,-1,39
 785 831 785 831 815 798.5 c 128,-1,40
 845 766 845 766 845 717 c 0,41,42
 845 695 845 695 838.5 675 c 128,-1,43
 832 655 832 655 820 639.5 c 128,-1,44
 808 624 808 624 790 615 c 128,-1,45
 772 606 772 606 749 606 c 0,46,47
 731 606 731 606 715.5 613 c 128,-1,48
 700 620 700 620 688.5 631.5 c 128,-1,49
 677 643 677 643 670 658.5 c 128,-1,50
 663 674 663 674 663 692 c 0,51,52
 663 707 663 707 669 720 c 128,-1,53
 675 733 675 733 684.5 744 c 128,-1,54
 694 755 694 755 705.5 763.5 c 128,-1,55
 717 772 717 772 729 780 c 1,56,-1
 731 780 l 1,57,58
 696 805 696 805 654.5 814 c 128,-1,59
 613 823 613 823 571 823 c 0,60,61
 551 823 551 823 523.5 821.5 c 128,-1,62
 496 820 496 820 466 815.5 c 128,-1,63
 436 811 436 811 406.5 802.5 c 128,-1,64
 377 794 377 794 353.5 780.5 c 128,-1,65
 330 767 330 767 315.5 747 c 128,-1,66
 301 727 301 727 301 700 c 0,67,68
 301 662 301 662 338 636 c 128,-1,69
 375 610 375 610 431 587.5 c 128,-1,70
 487 565 487 565 551.5 541.5 c 128,-1,71
 616 518 616 518 672 484 c 128,-1,72
 728 450 728 450 765 401 c 128,-1,73
 802 352 802 352 802 279 c 0,74,75
 802 226 802 226 783 183 c 128,-1,76
 764 140 764 140 732 106.5 c 128,-1,77
 700 73 700 73 658 48.5 c 128,-1,78
 616 24 616 24 569 8 c 128,-1,79
 522 -8 522 -8 473.5 -15.5 c 128,-1,80
 425 -23 425 -23 381 -23 c 0,81,82
 347 -23 347 -23 305.5 -19 c 128,-1,83
 264 -15 264 -15 222 -5.5 c 128,-1,84
 180 4 180 4 140.5 20 c 128,-1,85
 101 36 101 36 71 60.5 c 128,-1,86
 41 85 41 85 22.5 118.5 c 128,-1,87
 4 152 4 152 4 197 c 0,0,1
528 1042 m 1,88,-1
 592 1026 l 1,89,-1
 360 -293 l 1,90,-1
 295 -281 l 1,91,-1
 528 1042 l 1,88,-1
EndSplineSet
Validated: 5
EndChar

StartChar: ampersand
Encoding: 38 38 6
Width: 1661
GlyphClass: 2
Flags: W
LayerCount: 2
Fore
SplineSet
46 451 m 0,0,1
 46 533 46 533 72.5 601 c 128,-1,2
 99 669 99 669 138.5 722.5 c 128,-1,3
 178 776 178 776 224 815 c 128,-1,4
 270 854 270 854 310 877 c 1,5,6
 301 890 301 890 291.5 910 c 128,-1,7
 282 930 282 930 273.5 954 c 128,-1,8
 265 978 265 978 260 1004 c 128,-1,9
 255 1030 255 1030 255 1055 c 0,10,11
 255 1145 255 1145 296 1216.5 c 128,-1,12
 337 1288 337 1288 404 1338 c 128,-1,13
 471 1388 471 1388 556.5 1415 c 128,-1,14
 642 1442 642 1442 730 1442 c 0,15,16
 761 1442 761 1442 797 1437.5 c 128,-1,17
 833 1433 833 1433 869 1423.5 c 128,-1,18
 905 1414 905 1414 939 1397.5 c 128,-1,19
 973 1381 973 1381 999 1357 c 128,-1,20
 1025 1333 1025 1333 1040.5 1300 c 128,-1,21
 1056 1267 1056 1267 1056 1225 c 0,22,23
 1056 1192 1056 1192 1046 1160.5 c 128,-1,24
 1036 1129 1036 1129 1017 1104 c 128,-1,25
 998 1079 998 1079 969.5 1064 c 128,-1,26
 941 1049 941 1049 904 1049 c 0,27,28
 855 1049 855 1049 820.5 1074.5 c 128,-1,29
 786 1100 786 1100 786 1153 c 0,30,31
 786 1193 786 1193 805 1219 c 128,-1,32
 824 1245 824 1245 867 1245 c 0,33,34
 888 1245 888 1245 902.5 1239.5 c 128,-1,35
 917 1234 917 1234 926.5 1225.5 c 128,-1,36
 936 1217 936 1217 942 1206 c 128,-1,37
 948 1195 948 1195 953 1184 c 1,38,39
 961 1201 961 1201 964.5 1217 c 128,-1,40
 968 1233 968 1233 968 1245 c 0,41,42
 968 1283 968 1283 948 1307.5 c 128,-1,43
 928 1332 928 1332 898.5 1346.5 c 128,-1,44
 869 1361 869 1361 834 1366.5 c 128,-1,45
 799 1372 799 1372 769 1372 c 0,46,47
 688 1372 688 1372 624.5 1346.5 c 128,-1,48
 561 1321 561 1321 517.5 1276.5 c 128,-1,49
 474 1232 474 1232 451.5 1173.5 c 128,-1,50
 429 1115 429 1115 429 1049 c 0,51,52
 429 1020 429 1020 432.5 989.5 c 128,-1,53
 436 959 436 959 446 928 c 1,54,55
 483 937 483 937 524 942.5 c 128,-1,56
 565 948 565 948 605 948 c 0,57,58
 644 948 644 948 680 942 c 128,-1,59
 716 936 716 936 743 921 c 128,-1,60
 770 906 770 906 786 881 c 128,-1,61
 802 856 802 856 802 819 c 0,62,63
 802 789 802 789 787.5 765.5 c 128,-1,64
 773 742 773 742 750.5 725.5 c 128,-1,65
 728 709 728 709 700 700.5 c 128,-1,66
 672 692 672 692 646 692 c 0,67,68
 611 692 611 692 574.5 702 c 128,-1,69
 538 712 538 712 505 726.5 c 128,-1,70
 472 741 472 741 445 757 c 128,-1,71
 418 773 418 773 401 784 c 1,72,73
 331 706 331 706 300 622 c 128,-1,74
 269 538 269 538 269 463 c 0,75,76
 269 366 269 366 310 282 c 128,-1,77
 351 198 351 198 420.5 135.5 c 128,-1,78
 490 73 490 73 582 37.5 c 128,-1,79
 674 2 674 2 775 2 c 0,80,81
 834 2 834 2 895.5 13.5 c 128,-1,82
 957 25 957 25 1015.5 48.5 c 128,-1,83
 1074 72 1074 72 1125 108 c 128,-1,84
 1176 144 1176 144 1214.5 192.5 c 128,-1,85
 1253 241 1253 241 1275.5 302 c 128,-1,86
 1298 363 1298 363 1298 438 c 0,87,88
 1298 485 1298 485 1278 527 c 128,-1,89
 1258 569 1258 569 1225 601 c 128,-1,90
 1192 633 1192 633 1149.5 651.5 c 128,-1,91
 1107 670 1107 670 1062 670 c 0,92,93
 1029 670 1029 670 998 658 c 128,-1,94
 967 646 967 646 943 625 c 128,-1,95
 919 604 919 604 904.5 575 c 128,-1,96
 890 546 890 546 890 512 c 0,97,98
 890 493 890 493 898 473.5 c 128,-1,99
 906 454 906 454 920.5 437.5 c 128,-1,100
 935 421 935 421 955 409 c 128,-1,101
 975 397 975 397 999 391 c 1,102,103
 986 408 986 408 981 425 c 128,-1,104
 976 442 976 442 976 459 c 0,105,106
 976 496 976 496 998 523.5 c 128,-1,107
 1020 551 1020 551 1062 551 c 0,108,109
 1108 551 1108 551 1132 522.5 c 128,-1,110
 1156 494 1156 494 1156 457 c 0,111,112
 1156 435 1156 435 1147 414 c 128,-1,113
 1138 393 1138 393 1120.5 376.5 c 128,-1,114
 1103 360 1103 360 1076 350 c 128,-1,115
 1049 340 1049 340 1013 340 c 0,116,117
 975 340 975 340 940 355.5 c 128,-1,118
 905 371 905 371 878 397.5 c 128,-1,119
 851 424 851 424 834.5 459.5 c 128,-1,120
 818 495 818 495 818 535 c 0,121,122
 818 622 818 622 852 676.5 c 128,-1,123
 886 731 886 731 942 763.5 c 128,-1,124
 998 796 998 796 1069.5 812 c 128,-1,125
 1141 828 1141 828 1215.5 839 c 128,-1,126
 1290 850 1290 850 1361.5 860.5 c 128,-1,127
 1433 871 1433 871 1489 893 c 128,-1,128
 1545 915 1545 915 1579 954 c 128,-1,129
 1613 993 1613 993 1613 1059 c 0,130,131
 1613 1101 1613 1101 1598.5 1135.5 c 128,-1,132
 1584 1170 1584 1170 1558.5 1194 c 128,-1,133
 1533 1218 1533 1218 1499 1231.5 c 128,-1,134
 1465 1245 1465 1245 1425 1245 c 0,135,136
 1399 1245 1399 1245 1378.5 1232.5 c 128,-1,137
 1358 1220 1358 1220 1347 1194 c 1,138,139
 1365 1192 1365 1192 1383.5 1187.5 c 128,-1,140
 1402 1183 1402 1183 1417 1174 c 128,-1,141
 1432 1165 1432 1165 1441.5 1149.5 c 128,-1,142
 1451 1134 1451 1134 1451 1110 c 0,143,144
 1451 1090 1451 1090 1443 1072.5 c 128,-1,145
 1435 1055 1435 1055 1421 1042 c 128,-1,146
 1407 1029 1407 1029 1388.5 1021.5 c 128,-1,147
 1370 1014 1370 1014 1349 1014 c 0,148,149
 1326 1014 1326 1014 1306.5 1024.5 c 128,-1,150
 1287 1035 1287 1035 1273 1052 c 128,-1,151
 1259 1069 1259 1069 1251.5 1089.5 c 128,-1,152
 1244 1110 1244 1110 1244 1130 c 0,153,154
 1244 1169 1244 1169 1259.5 1202 c 128,-1,155
 1275 1235 1275 1235 1301 1259 c 128,-1,156
 1327 1283 1327 1283 1361.5 1296 c 128,-1,157
 1396 1309 1396 1309 1435 1309 c 0,158,159
 1498 1309 1498 1309 1545 1285 c 128,-1,160
 1592 1261 1592 1261 1623.5 1221.5 c 128,-1,161
 1655 1182 1655 1182 1671 1130 c 128,-1,162
 1687 1078 1687 1078 1687 1022 c 0,163,164
 1687 932 1687 932 1654 870.5 c 128,-1,165
 1621 809 1621 809 1564 767.5 c 128,-1,166
 1507 726 1507 726 1431 701 c 128,-1,167
 1355 676 1355 676 1269 659 c 1,168,169
 1290 633 1290 633 1307.5 607.5 c 128,-1,170
 1325 582 1325 582 1337.5 554.5 c 128,-1,171
 1350 527 1350 527 1357.5 497.5 c 128,-1,172
 1365 468 1365 468 1365 434 c 0,173,174
 1365 345 1365 345 1339 273 c 128,-1,175
 1313 201 1313 201 1268.5 145.5 c 128,-1,176
 1224 90 1224 90 1164 50 c 128,-1,177
 1104 10 1104 10 1036.5 -16 c 128,-1,178
 969 -42 969 -42 897 -54 c 128,-1,179
 825 -66 825 -66 757 -66 c 0,180,181
 683 -66 683 -66 601.5 -55.5 c 128,-1,182
 520 -45 520 -45 441 -21 c 128,-1,183
 362 3 362 3 290.5 42 c 128,-1,184
 219 81 219 81 164.5 138.5 c 128,-1,185
 110 196 110 196 78 273 c 128,-1,186
 46 350 46 350 46 451 c 0,0,1
468 848 m 1,187,188
 496 827 496 827 527 811 c 0,189,190
 553 797 553 797 586 785.5 c 128,-1,191
 619 774 619 774 652 774 c 0,192,193
 662 774 662 774 674.5 775.5 c 128,-1,194
 687 777 687 777 698 781.5 c 128,-1,195
 709 786 709 786 716.5 794.5 c 128,-1,196
 724 803 724 803 724 817 c 0,197,198
 724 840 724 840 709.5 852 c 128,-1,199
 695 864 695 864 672 868.5 c 128,-1,200
 649 873 649 873 620 871.5 c 128,-1,201
 591 870 591 870 562.5 866 c 128,-1,202
 534 862 534 862 509 856.5 c 128,-1,203
 484 851 484 851 468 848 c 1,187,188
EndSplineSet
Validated: 1
EndChar

StartChar: parenleft
Encoding: 40 40 7
Width: 905
GlyphClass: 2
Flags: W
LayerCount: 2
Fore
SplineSet
363 -111 m 0,0,1
 409 -111 409 -111 431 -133.5 c 128,-1,2
 453 -156 453 -156 453 -184 c 0,3,4
 453 -200 453 -200 446 -216 c 128,-1,5
 439 -232 439 -232 426 -245 c 128,-1,6
 413 -258 413 -258 393 -266 c 128,-1,7
 373 -274 373 -274 348 -274 c 0,8,9
 291 -274 291 -274 238 -245.5 c 128,-1,10
 185 -217 185 -217 145 -158 c 128,-1,11
 105 -99 105 -99 81 -9 c 128,-1,12
 57 81 57 81 57 205 c 0,13,14
 57 367 57 367 89 522 c 128,-1,15
 121 677 121 677 176 814.5 c 128,-1,16
 231 952 231 952 304 1067 c 128,-1,17
 377 1182 377 1182 459.5 1265.5 c 128,-1,18
 542 1349 542 1349 628.5 1395.5 c 128,-1,19
 715 1442 715 1442 797 1442 c 0,20,21
 842 1442 842 1442 877 1432 c 128,-1,22
 912 1422 912 1422 936.5 1406 c 128,-1,23
 961 1390 961 1390 974 1369 c 128,-1,24
 987 1348 987 1348 987 1327 c 0,25,26
 987 1312 987 1312 981.5 1297 c 128,-1,27
 976 1282 976 1282 965.5 1270 c 128,-1,28
 955 1258 955 1258 939.5 1250.5 c 128,-1,29
 924 1243 924 1243 903 1243 c 0,30,31
 861 1243 861 1243 841 1263 c 128,-1,32
 821 1283 821 1283 821 1311 c 0,33,34
 821 1326 821 1326 827.5 1342 c 128,-1,35
 834 1358 834 1358 848 1372 c 1,36,37
 833 1377 833 1377 816.5 1378.5 c 128,-1,38
 800 1380 800 1380 785 1380 c 0,39,40
 716 1380 716 1380 653.5 1338 c 128,-1,41
 591 1296 591 1296 536.5 1224.5 c 128,-1,42
 482 1153 482 1153 435 1057.5 c 128,-1,43
 388 962 388 962 349.5 854 c 128,-1,44
 311 746 311 746 281.5 631.5 c 128,-1,45
 252 517 252 517 232 408.5 c 128,-1,46
 212 300 212 300 201.5 202.5 c 128,-1,47
 191 105 191 105 191 31 c 0,48,49
 191 7 191 7 193 -31.5 c 128,-1,50
 195 -70 195 -70 203.5 -106 c 128,-1,51
 212 -142 212 -142 229 -168.5 c 128,-1,52
 246 -195 246 -195 275 -195 c 1,53,54
 282 -171 282 -171 293 -153 c 0,55,56
 303 -137 303 -137 320 -124 c 128,-1,57
 337 -111 337 -111 363 -111 c 0,0,1
EndSplineSet
Validated: 1
EndChar

StartChar: parenright
Encoding: 41 41 8
Width: 886
GlyphClass: 2
Flags: W
LayerCount: 2
Fore
SplineSet
543 1278 m 0,0,1
 497 1278 497 1278 475 1301 c 128,-1,2
 453 1324 453 1324 453 1352 c 0,3,4
 453 1368 453 1368 460 1384 c 128,-1,5
 467 1400 467 1400 480 1413 c 128,-1,6
 493 1426 493 1426 512.5 1434 c 128,-1,7
 532 1442 532 1442 558 1442 c 0,8,9
 615 1442 615 1442 668 1413.5 c 128,-1,10
 721 1385 721 1385 761 1326 c 128,-1,11
 801 1267 801 1267 825 1176.5 c 128,-1,12
 849 1086 849 1086 849 963 c 0,13,14
 849 801 849 801 817 646 c 128,-1,15
 785 491 785 491 730 353.5 c 128,-1,16
 675 216 675 216 602 101 c 128,-1,17
 529 -14 529 -14 446.5 -97.5 c 128,-1,18
 364 -181 364 -181 277.5 -227.5 c 128,-1,19
 191 -274 191 -274 109 -274 c 0,20,21
 64 -274 64 -274 28.5 -263.5 c 128,-1,22
 -7 -253 -7 -253 -32.5 -236.5 c 128,-1,23
 -58 -220 -58 -220 -71.5 -198.5 c 128,-1,24
 -85 -177 -85 -177 -85 -156 c 256,25,26
 -85 -135 -85 -135 -77.5 -119.5 c 128,-1,27
 -70 -104 -70 -104 -57 -94 c 128,-1,28
 -44 -84 -44 -84 -28 -79 c 128,-1,29
 -12 -74 -12 -74 5 -74 c 0,30,31
 36 -74 36 -74 60.5 -91 c 128,-1,32
 85 -108 85 -108 85 -143 c 0,33,34
 85 -177 85 -177 58 -205 c 1,35,36
 73 -210 73 -210 89.5 -211.5 c 128,-1,37
 106 -213 106 -213 121 -213 c 0,38,39
 190 -213 190 -213 252.5 -171 c 128,-1,40
 315 -129 315 -129 369.5 -57.5 c 128,-1,41
 424 14 424 14 471 109.5 c 128,-1,42
 518 205 518 205 556.5 313 c 128,-1,43
 595 421 595 421 624.5 535.5 c 128,-1,44
 654 650 654 650 674 759 c 128,-1,45
 694 868 694 868 704.5 965.5 c 128,-1,46
 715 1063 715 1063 715 1137 c 0,47,48
 715 1161 715 1161 713 1199 c 128,-1,49
 711 1237 711 1237 702.5 1273 c 128,-1,50
 694 1309 694 1309 677 1335.5 c 128,-1,51
 660 1362 660 1362 631 1362 c 1,52,53
 624 1338 624 1338 613 1320 c 0,54,55
 603 1304 603 1304 586 1291 c 128,-1,56
 569 1278 569 1278 543 1278 c 0,0,1
EndSplineSet
Validated: 1
EndChar

StartChar: comma
Encoding: 44 44 9
Width: 404
GlyphClass: 2
Flags: W
LayerCount: 2
Fore
SplineSet
45 -229 m 1,0,1
 62 -160 62 -160 80.5 -82.5 c 128,-1,2
 99 -5 99 -5 114 92 c 1,3,-1
 284 147 l 1,4,5
 284 130 284 130 272.5 100 c 128,-1,6
 261 70 261 70 243 33.5 c 128,-1,7
 225 -3 225 -3 202 -42.5 c 128,-1,8
 179 -82 179 -82 156 -118.5 c 128,-1,9
 133 -155 133 -155 112 -184 c 128,-1,10
 91 -213 91 -213 77 -229 c 1,11,-1
 45 -229 l 1,0,1
EndSplineSet
Validated: 1
EndChar

StartChar: period
Encoding: 46 46 10
Width: 397
GlyphClass: 2
Flags: W
LayerCount: 2
Fore
SplineSet
280 86 m 0,0,1
 280 60 280 60 270.5 39.5 c 128,-1,2
 261 19 261 19 246 5 c 128,-1,3
 231 -9 231 -9 211.5 -16 c 128,-1,4
 192 -23 192 -23 172 -23 c 0,5,6
 136 -23 136 -23 107.5 0.5 c 128,-1,7
 79 24 79 24 79 72 c 0,8,9
 79 98 79 98 89 118 c 128,-1,10
 99 138 99 138 114.5 152 c 128,-1,11
 130 166 130 166 150 173 c 128,-1,12
 170 180 170 180 190 180 c 0,13,14
 208 180 208 180 224 174.5 c 128,-1,15
 240 169 240 169 252.5 157.5 c 128,-1,16
 265 146 265 146 272.5 128.5 c 128,-1,17
 280 111 280 111 280 86 c 0,0,1
EndSplineSet
Validated: 1
EndChar

StartChar: slash
Encoding: 47 47 11
Width: 1096
GlyphClass: 2
Flags: W
LayerCount: 2
Fore
SplineSet
1146 1772 m 1,0,-1
 1192 1737 l 1,1,-1
 -35 -315 l 1,2,-1
 -82 -283 l 1,3,-1
 1146 1772 l 1,0,-1
EndSplineSet
Validated: 1
EndChar

StartChar: one
Encoding: 49 49 12
Width: 542
GlyphClass: 2
Flags: W
LayerCount: 2
Fore
SplineSet
111 0 m 1,0,-1
 128 66 l 1,1,2
 172 241 172 241 208 382 c 0,3,4
 223 442 223 442 238 500.5 c 128,-1,5
 253 559 253 559 265 606.5 c 128,-1,6
 277 654 277 654 285.5 686 c 128,-1,7
 294 718 294 718 296 725 c 1,8,9
 265 706 265 706 227 689 c 128,-1,10
 189 672 189 672 146 653 c 1,11,-1
 111 702 l 1,12,13
 175 730 175 730 218 751.5 c 128,-1,14
 261 773 261 773 294 792 c 128,-1,15
 327 811 327 811 356.5 828.5 c 128,-1,16
 386 846 386 846 423 866 c 1,17,-1
 486 866 l 1,18,-1
 283 0 l 1,19,-1
 111 0 l 1,0,-1
308 100 m 1,20,21
 306 87 306 87 315 76 c 128,-1,22
 324 65 324 65 339 56.5 c 128,-1,23
 354 48 354 48 372.5 43 c 128,-1,24
 391 38 391 38 406 37 c 1,25,-1
 402 0 l 1,26,-1
 15 0 l 1,27,-1
 19 37 l 1,28,29
 25 38 25 38 42 41.5 c 128,-1,30
 59 45 59 45 78 51.5 c 128,-1,31
 97 58 97 58 113.5 68.5 c 128,-1,32
 130 79 130 79 136 96 c 1,33,-1
 308 100 l 1,20,21
EndSplineSet
Validated: 5
EndChar

StartChar: four
Encoding: 52 52 13
Width: 781
GlyphClass: 2
Flags: W
LayerCount: 2
Fore
SplineSet
268 31 m 1,0,-1
 327 281 l 1,1,-1
 0 281 l 1,2,-1
 -15 334 l 1,3,-1
 575 866 l 1,4,-1
 632 866 l 1,5,-1
 514 342 l 1,6,-1
 637 342 l 1,7,-1
 637 281 l 1,8,-1
 499 281 l 1,9,-1
 440 31 l 1,10,-1
 268 31 l 1,0,-1
94 342 m 1,11,-1
 342 342 l 1,12,-1
 417 649 l 1,13,-1
 94 342 l 1,11,-1
592 342 m 1,14,15
 606 342 606 342 622 355.5 c 128,-1,16
 638 369 638 369 652 389.5 c 128,-1,17
 666 410 666 410 677.5 433 c 128,-1,18
 689 456 689 456 694 475 c 1,19,-1
 727 475 l 1,20,-1
 659 137 l 1,21,-1
 626 137 l 1,22,23
 626 146 626 146 624.5 170 c 128,-1,24
 623 194 623 194 618 218.5 c 128,-1,25
 613 243 613 243 604.5 262 c 128,-1,26
 596 281 596 281 581 281 c 1,27,-1
 592 342 l 1,14,15
456 109 m 1,28,29
 453 94 453 94 465 81.5 c 128,-1,30
 477 69 477 69 496.5 60.5 c 128,-1,31
 516 52 516 52 539.5 47 c 128,-1,32
 563 42 563 42 583 41 c 1,33,-1
 579 0 l 1,34,-1
 141 0 l 1,35,-1
 145 41 l 1,36,37
 152 42 152 42 172.5 45.5 c 128,-1,38
 193 49 193 49 216.5 55.5 c 128,-1,39
 240 62 240 62 261 74 c 128,-1,40
 282 86 282 86 290 104 c 1,41,-1
 456 109 l 1,28,29
EndSplineSet
Validated: 5
EndChar

StartChar: colon
Encoding: 58 58 14
Width: 463
GlyphClass: 2
Flags: W
LayerCount: 2
Fore
SplineSet
277 86 m 0,0,1
 277 60 277 60 267.5 39.5 c 128,-1,2
 258 19 258 19 243 5 c 128,-1,3
 228 -9 228 -9 208.5 -16 c 128,-1,4
 189 -23 189 -23 169 -23 c 0,5,6
 133 -23 133 -23 104.5 0.5 c 128,-1,7
 76 24 76 24 76 72 c 0,8,9
 76 98 76 98 86 118 c 128,-1,10
 96 138 96 138 111.5 152 c 128,-1,11
 127 166 127 166 147 173 c 128,-1,12
 167 180 167 180 187 180 c 0,13,14
 205 180 205 180 221 174.5 c 128,-1,15
 237 169 237 169 249.5 157.5 c 128,-1,16
 262 146 262 146 269.5 128.5 c 128,-1,17
 277 111 277 111 277 86 c 0,0,1
373 487 m 0,18,19
 373 461 373 461 363.5 441 c 128,-1,20
 354 421 354 421 339 407 c 128,-1,21
 324 393 324 393 304.5 386 c 128,-1,22
 285 379 285 379 265 379 c 0,23,24
 247 379 247 379 230.5 385 c 128,-1,25
 214 391 214 391 201.5 402.5 c 128,-1,26
 189 414 189 414 181 431.5 c 128,-1,27
 173 449 173 449 173 473 c 0,28,29
 173 499 173 499 182.5 519.5 c 128,-1,30
 192 540 192 540 208 554 c 128,-1,31
 224 568 224 568 243.5 575 c 128,-1,32
 263 582 263 582 283 582 c 0,33,34
 318 582 318 582 345.5 559.5 c 128,-1,35
 373 537 373 537 373 487 c 0,18,19
EndSplineSet
Validated: 1
EndChar

StartChar: semicolon
Encoding: 59 59 15
Width: 446
GlyphClass: 2
Flags: W
LayerCount: 2
Fore
SplineSet
60 -229 m 1,0,1
 77 -160 77 -160 95.5 -82.5 c 128,-1,2
 114 -5 114 -5 129 92 c 1,3,-1
 299 147 l 1,4,5
 299 130 299 130 287.5 100 c 128,-1,6
 276 70 276 70 258 33.5 c 128,-1,7
 240 -3 240 -3 217 -42.5 c 128,-1,8
 194 -82 194 -82 171 -118.5 c 128,-1,9
 148 -155 148 -155 127 -184 c 128,-1,10
 106 -213 106 -213 92 -229 c 1,11,-1
 60 -229 l 1,0,1
340 487 m 0,12,13
 340 461 340 461 330.5 441 c 128,-1,14
 321 421 321 421 306 407 c 128,-1,15
 291 393 291 393 271.5 386 c 128,-1,16
 252 379 252 379 232 379 c 0,17,18
 214 379 214 379 197.5 385 c 128,-1,19
 181 391 181 391 168.5 402.5 c 128,-1,20
 156 414 156 414 148 431.5 c 128,-1,21
 140 449 140 449 140 473 c 0,22,23
 140 499 140 499 149.5 519.5 c 128,-1,24
 159 540 159 540 175 554 c 128,-1,25
 191 568 191 568 210.5 575 c 128,-1,26
 230 582 230 582 250 582 c 0,27,28
 285 582 285 582 312.5 559.5 c 128,-1,29
 340 537 340 537 340 487 c 0,12,13
EndSplineSet
Validated: 1
EndChar

StartChar: A
Encoding: 65 65 16
Width: 1676
GlyphClass: 2
Flags: W
LayerCount: 2
Fore
SplineSet
1310 0 m 1,0,-1
 1451 481 l 2,1,2
 1477 572 1477 572 1489 655 c 128,-1,3
 1501 738 1501 738 1501 813 c 256,4,5
 1501 888 1501 888 1490.5 952.5 c 128,-1,6
 1480 1017 1480 1017 1462 1069.5 c 128,-1,7
 1444 1122 1444 1122 1420 1161.5 c 128,-1,8
 1396 1201 1396 1201 1369 1227 c 1,9,10
 1296 1173 1296 1173 1239 1114.5 c 128,-1,11
 1182 1056 1182 1056 1135 993.5 c 128,-1,12
 1088 931 1088 931 1048 863.5 c 128,-1,13
 1008 796 1008 796 970.5 724.5 c 128,-1,14
 933 653 933 653 894.5 577.5 c 128,-1,15
 856 502 856 502 812 422 c 1,16,-1
 1509 422 l 1,17,-1
 1488 358 l 1,18,-1
 776 358 l 1,19,-1
 694 236 l 2,20,21
 649 168 649 168 597 119 c 128,-1,22
 545 70 545 70 485.5 38.5 c 128,-1,23
 426 7 426 7 357 -8 c 128,-1,24
 288 -23 288 -23 208 -23 c 0,25,26
 140 -23 140 -23 90.5 -6.5 c 128,-1,27
 41 10 41 10 9.5 36 c 128,-1,28
 -22 62 -22 62 -37 94 c 128,-1,29
 -52 126 -52 126 -52 158 c 0,30,31
 -52 182 -52 182 -43 205 c 128,-1,32
 -34 228 -34 228 -17 246 c 128,-1,33
 0 264 0 264 24.5 274.5 c 128,-1,34
 49 285 49 285 81 285 c 0,35,36
 106 285 106 285 125 275 c 128,-1,37
 144 265 144 265 157 248.5 c 128,-1,38
 170 232 170 232 176 210 c 128,-1,39
 182 188 182 188 182 164 c 0,40,41
 182 138 182 138 169 112.5 c 128,-1,42
 156 87 156 87 128 72 c 1,43,44
 132 63 132 63 141 57 c 0,45,46
 149 52 149 52 161.5 47.5 c 128,-1,47
 174 43 174 43 194 43 c 0,48,49
 228 43 228 43 258 48.5 c 128,-1,50
 288 54 288 54 320 72 c 128,-1,51
 352 90 352 90 387 125 c 128,-1,52
 422 160 422 160 465.5 218 c 128,-1,53
 509 276 509 276 563 362 c 128,-1,54
 617 448 617 448 687 569 c 0,55,56
 751 680 751 680 817 780 c 128,-1,57
 883 880 883 880 956.5 969 c 128,-1,58
 1030 1058 1030 1058 1115 1138 c 128,-1,59
 1200 1218 1200 1218 1304 1290 c 1,60,61
 1275 1309 1275 1309 1238 1325 c 128,-1,62
 1201 1341 1201 1341 1161 1353 c 128,-1,63
 1121 1365 1121 1365 1081 1371.5 c 128,-1,64
 1041 1378 1041 1378 1005 1378 c 0,65,66
 835 1378 835 1378 702.5 1323.5 c 128,-1,67
 570 1269 570 1269 478.5 1178.5 c 128,-1,68
 387 1088 387 1088 339.5 970.5 c 128,-1,69
 292 853 292 853 292 727 c 0,70,71
 292 642 292 642 312.5 556.5 c 128,-1,72
 333 471 333 471 376 389 c 1,73,-1
 329 360 l 1,74,75
 269 454 269 454 240.5 552 c 128,-1,76
 212 650 212 650 212 748 c 0,77,78
 212 837 212 837 236.5 923.5 c 128,-1,79
 261 1010 261 1010 307.5 1087 c 128,-1,80
 354 1164 354 1164 420.5 1229 c 128,-1,81
 487 1294 487 1294 571 1341.5 c 128,-1,82
 655 1389 655 1389 755 1415.5 c 128,-1,83
 855 1442 855 1442 968 1442 c 0,84,85
 1060 1442 1060 1442 1125.5 1430.5 c 128,-1,86
 1191 1419 1191 1419 1237.5 1402 c 128,-1,87
 1284 1385 1284 1385 1316.5 1365.5 c 128,-1,88
 1349 1346 1349 1346 1376 1331 c 1,89,90
 1428 1356 1428 1356 1470.5 1370 c 128,-1,91
 1513 1384 1513 1384 1551.5 1391.5 c 128,-1,92
 1590 1399 1590 1399 1626 1401 c 128,-1,93
 1662 1403 1662 1403 1701 1403 c 1,94,-1
 1726 1356 l 1,95,96
 1693 1356 1693 1356 1659.5 1353.5 c 128,-1,97
 1626 1351 1626 1351 1591 1343 c 128,-1,98
 1556 1335 1556 1335 1518.5 1320 c 128,-1,99
 1481 1305 1481 1305 1439 1280 c 1,100,101
 1476 1244 1476 1244 1514 1193.5 c 128,-1,102
 1552 1143 1552 1143 1582 1077 c 128,-1,103
 1612 1011 1612 1011 1631 929.5 c 128,-1,104
 1650 848 1650 848 1650 750 c 0,105,106
 1650 680 1650 680 1640 602.5 c 128,-1,107
 1630 525 1630 525 1605 438 c 2,108,-1
 1482 0 l 1,109,-1
 1310 0 l 1,0,-1
EndSplineSet
Validated: 5
EndChar

StartChar: B
Encoding: 66 66 17
Width: 1924
GlyphClass: 2
Flags: W
LayerCount: 2
Fore
SplineSet
1872 1452 m 1,0,1
 1835 1445 1835 1445 1799.5 1435 c 128,-1,2
 1764 1425 1764 1425 1736 1415 c 0,3,4
 1703 1404 1703 1404 1674 1391 c 1,5,6
 1710 1373 1710 1373 1739 1348 c 128,-1,7
 1768 1323 1768 1323 1788.5 1293 c 128,-1,8
 1809 1263 1809 1263 1820 1230 c 128,-1,9
 1831 1197 1831 1197 1831 1163 c 0,10,11
 1831 1115 1831 1115 1816 1071.5 c 128,-1,12
 1801 1028 1801 1028 1777.5 990 c 128,-1,13
 1754 952 1754 952 1725 920 c 128,-1,14
 1696 888 1696 888 1667.5 861.5 c 128,-1,15
 1639 835 1639 835 1613.5 815 c 128,-1,16
 1588 795 1588 795 1573 782 c 1,17,18
 1640 754 1640 754 1694.5 720.5 c 128,-1,19
 1749 687 1749 687 1787 646.5 c 128,-1,20
 1825 606 1825 606 1845.5 557 c 128,-1,21
 1866 508 1866 508 1866 449 c 0,22,23
 1866 351 1866 351 1823.5 262.5 c 128,-1,24
 1781 174 1781 174 1709 107 c 128,-1,25
 1637 40 1637 40 1543.5 0.5 c 128,-1,26
 1450 -39 1450 -39 1348 -39 c 0,27,28
 1303 -39 1303 -39 1255 -28.5 c 128,-1,29
 1207 -18 1207 -18 1167.5 5.5 c 128,-1,30
 1128 29 1128 29 1103 65.5 c 128,-1,31
 1078 102 1078 102 1078 154 c 0,32,33
 1078 181 1078 181 1087 204.5 c 128,-1,34
 1096 228 1096 228 1113.5 245.5 c 128,-1,35
 1131 263 1131 263 1156.5 273 c 128,-1,36
 1182 283 1182 283 1215 283 c 0,37,38
 1233 283 1233 283 1251 277 c 128,-1,39
 1269 271 1269 271 1283.5 258.5 c 128,-1,40
 1298 246 1298 246 1306.5 228 c 128,-1,41
 1315 210 1315 210 1315 186 c 0,42,43
 1315 154 1315 154 1297 133.5 c 128,-1,44
 1279 113 1279 113 1257 101.5 c 128,-1,45
 1235 90 1235 90 1217 86 c 128,-1,46
 1199 82 1199 82 1198 82 c 1,47,48
 1198 63 1198 63 1216.5 51.5 c 128,-1,49
 1235 40 1235 40 1259 34 c 128,-1,50
 1283 28 1283 28 1307 26.5 c 128,-1,51
 1331 25 1331 25 1342 25 c 0,52,53
 1413 25 1413 25 1473 54 c 128,-1,54
 1533 83 1533 83 1576.5 131.5 c 128,-1,55
 1620 180 1620 180 1644.5 243.5 c 128,-1,56
 1669 307 1669 307 1669 375 c 0,57,58
 1669 438 1669 438 1646.5 486.5 c 128,-1,59
 1624 535 1624 535 1590.5 572 c 128,-1,60
 1557 609 1557 609 1517.5 634.5 c 128,-1,61
 1478 660 1478 660 1444.5 677.5 c 128,-1,62
 1411 695 1411 695 1388.5 704.5 c 128,-1,63
 1366 714 1366 714 1366 719 c 256,64,65
 1366 724 1366 724 1387.5 738.5 c 128,-1,66
 1409 753 1409 753 1442 776 c 128,-1,67
 1475 799 1475 799 1512.5 830.5 c 128,-1,68
 1550 862 1550 862 1583 902.5 c 128,-1,69
 1616 943 1616 943 1637.5 991.5 c 128,-1,70
 1659 1040 1659 1040 1659 1098 c 0,71,72
 1659 1121 1659 1121 1651.5 1153 c 128,-1,73
 1644 1185 1644 1185 1628.5 1218 c 128,-1,74
 1613 1251 1613 1251 1587.5 1279.5 c 128,-1,75
 1562 1308 1562 1308 1526 1323 c 1,76,77
 1454 1279 1454 1279 1403 1222.5 c 128,-1,78
 1352 1166 1352 1166 1315.5 1100.5 c 128,-1,79
 1279 1035 1279 1035 1254.5 963 c 128,-1,80
 1230 891 1230 891 1212 816.5 c 128,-1,81
 1194 742 1194 742 1178.5 667 c 128,-1,82
 1163 592 1163 592 1145 520 c 0,83,84
 1118 410 1118 410 1059 309.5 c 128,-1,85
 1000 209 1000 209 909.5 132.5 c 128,-1,86
 819 56 819 56 697 10.5 c 128,-1,87
 575 -35 575 -35 422 -35 c 0,88,89
 378 -35 378 -35 327 -28.5 c 128,-1,90
 276 -22 276 -22 225.5 -7.5 c 128,-1,91
 175 7 175 7 128.5 30.5 c 128,-1,92
 82 54 82 54 46.5 88 c 128,-1,93
 11 122 11 122 -10.5 167 c 128,-1,94
 -32 212 -32 212 -32 270 c 0,95,96
 -32 326 -32 326 -12.5 374 c 128,-1,97
 7 422 7 422 41 460.5 c 128,-1,98
 75 499 75 499 120.5 528.5 c 128,-1,99
 166 558 166 558 217.5 578 c 128,-1,100
 269 598 269 598 324 608 c 128,-1,101
 379 618 379 618 432 618 c 0,102,103
 445 618 445 618 452.5 617 c 128,-1,104
 460 616 460 616 469 616 c 1,105,106
 469 727 469 727 502 831 c 128,-1,107
 535 935 535 935 595 1027 c 128,-1,108
 655 1119 655 1119 738.5 1195 c 128,-1,109
 822 1271 822 1271 922 1326 c 128,-1,110
 1022 1381 1022 1381 1135.5 1411.5 c 128,-1,111
 1249 1442 1249 1442 1370 1442 c 0,112,113
 1429 1442 1429 1442 1484.5 1435.5 c 128,-1,114
 1540 1429 1540 1429 1571 1425 c 1,115,116
 1625 1444 1625 1444 1677 1460 c 0,117,118
 1722 1474 1722 1474 1769.5 1485.5 c 128,-1,119
 1817 1497 1817 1497 1852 1499 c 1,120,-1
 1872 1452 l 1,0,1
551 309 m 1,121,122
 535 332 535 332 520.5 369.5 c 128,-1,123
 506 407 506 407 495 444 c 128,-1,124
 484 481 484 481 477.5 510.5 c 128,-1,125
 471 540 471 540 471 547 c 1,126,127
 467 547 467 547 463 548 c 0,128,129
 459 548 459 548 455 548.5 c 128,-1,130
 451 549 451 549 447 549 c 0,131,132
 410 549 410 549 366 542.5 c 128,-1,133
 322 536 322 536 277.5 522 c 128,-1,134
 233 508 233 508 191.5 486 c 128,-1,135
 150 464 150 464 118 433 c 128,-1,136
 86 402 86 402 66.5 362 c 128,-1,137
 47 322 47 322 47 272 c 0,138,139
 47 227 47 227 63.5 192 c 128,-1,140
 80 157 80 157 108 130 c 128,-1,141
 136 103 136 103 172.5 85 c 128,-1,142
 209 67 209 67 248.5 55 c 128,-1,143
 288 43 288 43 328 38 c 128,-1,144
 368 33 368 33 404 33 c 0,145,146
 538 33 538 33 630 72 c 128,-1,147
 722 111 722 111 784.5 177.5 c 128,-1,148
 847 244 847 244 887 332 c 128,-1,149
 927 420 927 420 957.5 517.5 c 128,-1,150
 988 615 988 615 1016 715.5 c 128,-1,151
 1044 816 1044 816 1082 909 c 0,152,153
 1108 974 1108 974 1145.5 1037.5 c 128,-1,154
 1183 1101 1183 1101 1230.5 1158.5 c 128,-1,155
 1278 1216 1278 1216 1334 1265.5 c 128,-1,156
 1390 1315 1390 1315 1452 1354 c 1,157,158
 1420 1362 1420 1362 1386.5 1365 c 128,-1,159
 1353 1368 1353 1368 1321 1368 c 0,160,161
 1223 1368 1223 1368 1127.5 1338.5 c 128,-1,162
 1032 1309 1032 1309 945 1256.5 c 128,-1,163
 858 1204 858 1204 784 1132.5 c 128,-1,164
 710 1061 710 1061 656 976.5 c 128,-1,165
 602 892 602 892 571.5 798 c 128,-1,166
 541 704 541 704 541 608 c 1,167,168
 574 601 574 601 611 589.5 c 128,-1,169
 648 578 648 578 685.5 562 c 128,-1,170
 723 546 723 546 759 526.5 c 128,-1,171
 795 507 795 507 826 485 c 1,172,-1
 793 430 l 1,173,174
 764 450 764 450 732.5 467.5 c 128,-1,175
 701 485 701 485 668.5 499.5 c 128,-1,176
 636 514 636 514 604.5 524 c 128,-1,177
 573 534 573 534 545 539 c 1,178,179
 550 507 550 507 562 471.5 c 128,-1,180
 574 436 574 436 586 405 c 0,181,182
 600 369 600 369 617 334 c 1,183,-1
 551 309 l 1,121,122
EndSplineSet
Validated: 1
EndChar

StartChar: C
Encoding: 67 67 18
Width: 1183
GlyphClass: 2
Flags: W
LayerCount: 2
Fore
SplineSet
1082 254 m 1,0,1
 1023 180 1023 180 957 125 c 128,-1,2
 891 70 891 70 820.5 33.5 c 128,-1,3
 750 -3 750 -3 677.5 -21 c 128,-1,4
 605 -39 605 -39 535 -39 c 0,5,6
 433 -39 433 -39 341.5 -4.5 c 128,-1,7
 250 30 250 30 181 96.5 c 128,-1,8
 112 163 112 163 71.5 261 c 128,-1,9
 31 359 31 359 31 487 c 0,10,11
 31 603 31 603 65.5 718.5 c 128,-1,12
 100 834 100 834 162 940 c 128,-1,13
 224 1046 224 1046 308.5 1138 c 128,-1,14
 393 1230 393 1230 493.5 1297.5 c 128,-1,15
 594 1365 594 1365 705.5 1403.5 c 128,-1,16
 817 1442 817 1442 932 1442 c 0,17,18
 1010 1442 1010 1442 1079 1419 c 128,-1,19
 1148 1396 1148 1396 1200 1350.5 c 128,-1,20
 1252 1305 1252 1305 1282.5 1237.5 c 128,-1,21
 1313 1170 1313 1170 1313 1081 c 0,22,23
 1313 1014 1313 1014 1295 941.5 c 128,-1,24
 1277 869 1277 869 1243.5 799 c 128,-1,25
 1210 729 1210 729 1162.5 665.5 c 128,-1,26
 1115 602 1115 602 1057 554.5 c 128,-1,27
 999 507 999 507 932 479 c 128,-1,28
 865 451 865 451 791 451 c 0,29,30
 722 451 722 451 673.5 472 c 128,-1,31
 625 493 625 493 594.5 528 c 128,-1,32
 564 563 564 563 549.5 609 c 128,-1,33
 535 655 535 655 535 705 c 0,34,35
 535 769 535 769 558 828 c 128,-1,36
 581 887 581 887 618.5 937.5 c 128,-1,37
 656 988 656 988 703 1029 c 128,-1,38
 750 1070 750 1070 798 1099 c 128,-1,39
 846 1128 846 1128 890 1143.5 c 128,-1,40
 934 1159 934 1159 965 1159 c 1,41,-1
 1014 1118 l 1,42,-1
 944 1069 l 2,43,44
 894 1034 894 1034 846 995 c 128,-1,45
 798 956 798 956 760 910.5 c 128,-1,46
 722 865 722 865 699 812.5 c 128,-1,47
 676 760 676 760 676 698 c 0,48,49
 676 668 676 668 684.5 642 c 128,-1,50
 693 616 693 616 708.5 596.5 c 128,-1,51
 724 577 724 577 747.5 566 c 128,-1,52
 771 555 771 555 801 555 c 0,53,54
 855 555 855 555 907.5 580 c 128,-1,55
 960 605 960 605 1008 646.5 c 128,-1,56
 1056 688 1056 688 1096.5 742.5 c 128,-1,57
 1137 797 1137 797 1167 855 c 128,-1,58
 1197 913 1197 913 1214 970.5 c 128,-1,59
 1231 1028 1231 1028 1231 1077 c 0,60,61
 1231 1141 1231 1141 1211 1191 c 128,-1,62
 1191 1241 1191 1241 1154.5 1275.5 c 128,-1,63
 1118 1310 1118 1310 1067 1328 c 128,-1,64
 1016 1346 1016 1346 955 1346 c 0,65,66
 868 1346 868 1346 781 1311.5 c 128,-1,67
 694 1277 694 1277 614 1216.5 c 128,-1,68
 534 1156 534 1156 465.5 1074.5 c 128,-1,69
 397 993 397 993 346.5 899 c 128,-1,70
 296 805 296 805 267 702.5 c 128,-1,71
 238 600 238 600 238 498 c 0,72,73
 238 398 238 398 266.5 321 c 128,-1,74
 295 244 295 244 344 192 c 128,-1,75
 393 140 393 140 457.5 113 c 128,-1,76
 522 86 522 86 594 86 c 0,77,78
 647 86 647 86 702 100.5 c 128,-1,79
 757 115 757 115 811.5 143.5 c 128,-1,80
 866 172 866 172 917.5 215 c 128,-1,81
 969 258 969 258 1014 315 c 1,82,-1
 1082 254 l 1,0,1
EndSplineSet
Validated: 1
EndChar

StartChar: D
Encoding: 68 68 19
Width: 1544
GlyphClass: 2
Flags: W
LayerCount: 2
Fore
SplineSet
95 313 m 1,0,1
 69 383 69 383 56.5 454 c 128,-1,2
 44 525 44 525 44 596 c 0,3,4
 44 705 44 705 70.5 810 c 128,-1,5
 97 915 97 915 145.5 1009 c 128,-1,6
 194 1103 194 1103 263.5 1182.5 c 128,-1,7
 333 1262 333 1262 418.5 1319.5 c 128,-1,8
 504 1377 504 1377 604.5 1409.5 c 128,-1,9
 705 1442 705 1442 816 1442 c 0,10,11
 870 1442 870 1442 924 1437.5 c 128,-1,12
 978 1433 978 1433 1030.5 1420.5 c 128,-1,13
 1083 1408 1083 1408 1133 1384 c 128,-1,14
 1183 1360 1183 1360 1230 1321 c 1,15,16
 1258 1344 1258 1344 1290.5 1358.5 c 128,-1,17
 1323 1373 1323 1373 1357.5 1381.5 c 128,-1,18
 1392 1390 1392 1390 1426 1393.5 c 128,-1,19
 1460 1397 1460 1397 1492 1397 c 1,20,-1
 1512 1335 l 1,21,22
 1458 1324 1458 1324 1404.5 1304.5 c 128,-1,23
 1351 1285 1351 1285 1307 1251 c 1,24,25
 1361 1201 1361 1201 1399.5 1136.5 c 128,-1,26
 1438 1072 1438 1072 1462.5 997.5 c 128,-1,27
 1487 923 1487 923 1498.5 840.5 c 128,-1,28
 1510 758 1510 758 1510 672 c 0,29,30
 1510 585 1510 585 1492.5 499 c 128,-1,31
 1475 413 1475 413 1440.5 336 c 128,-1,32
 1406 259 1406 259 1355.5 193 c 128,-1,33
 1305 127 1305 127 1239 79 c 128,-1,34
 1173 31 1173 31 1092.5 4 c 128,-1,35
 1012 -23 1012 -23 918 -23 c 0,36,37
 793 -23 793 -23 654 33 c 1,38,39
 638 25 638 25 610.5 15 c 128,-1,40
 583 5 583 5 546 -4 c 128,-1,41
 509 -13 509 -13 464 -19 c 128,-1,42
 419 -25 419 -25 367 -25 c 0,43,44
 335 -25 335 -25 289.5 -21.5 c 128,-1,45
 244 -18 244 -18 202 -4.5 c 128,-1,46
 160 9 160 9 130.5 36 c 128,-1,47
 101 63 101 63 101 109 c 0,48,49
 101 144 101 144 115.5 167.5 c 128,-1,50
 130 191 130 191 155.5 204.5 c 128,-1,51
 181 218 181 218 215.5 223.5 c 128,-1,52
 250 229 250 229 290 229 c 0,53,54
 396 229 396 229 498 206.5 c 128,-1,55
 600 184 600 184 697 152 c 1,56,57
 758 230 758 230 790 320 c 128,-1,58
 822 410 822 410 843 507 c 128,-1,59
 864 604 864 604 882 704.5 c 128,-1,60
 900 805 900 805 932 903.5 c 128,-1,61
 964 1002 964 1002 1017.5 1095 c 128,-1,62
 1071 1188 1071 1188 1164 1270 c 1,63,64
 1136 1299 1136 1299 1099.5 1318.5 c 128,-1,65
 1063 1338 1063 1338 1023 1349.5 c 128,-1,66
 983 1361 983 1361 941 1365.5 c 128,-1,67
 899 1370 899 1370 861 1370 c 0,68,69
 763 1370 763 1370 673 1339 c 128,-1,70
 583 1308 583 1308 505 1253 c 128,-1,71
 427 1198 427 1198 363.5 1122 c 128,-1,72
 300 1046 300 1046 254.5 957.5 c 128,-1,73
 209 869 209 869 184 770.5 c 128,-1,74
 159 672 159 672 159 571 c 0,75,76
 159 511 159 511 168 452 c 128,-1,77
 177 393 177 393 197 336 c 1,78,-1
 95 313 l 1,0,1
1363 707 m 0,79,80
 1363 778 1363 778 1355 847.5 c 128,-1,81
 1347 917 1347 917 1331.5 978.5 c 128,-1,82
 1316 1040 1316 1040 1294 1091 c 128,-1,83
 1272 1142 1272 1142 1244 1178 c 1,84,85
 1208 1123 1208 1123 1190.5 1046 c 128,-1,86
 1173 969 1173 969 1159.5 878 c 128,-1,87
 1146 787 1146 787 1128 687.5 c 128,-1,88
 1110 588 1110 588 1073 487.5 c 128,-1,89
 1036 387 1036 387 971.5 291 c 128,-1,90
 907 195 907 195 800 111 c 1,91,92
 840 94 840 94 879.5 87 c 128,-1,93
 919 80 919 80 953 80 c 0,94,95
 1018 80 1018 80 1073.5 107 c 128,-1,96
 1129 134 1129 134 1174.5 180.5 c 128,-1,97
 1220 227 1220 227 1255.5 289 c 128,-1,98
 1291 351 1291 351 1314.5 420.5 c 128,-1,99
 1338 490 1338 490 1350.5 563.5 c 128,-1,100
 1363 637 1363 637 1363 707 c 0,79,80
220 100 m 0,101,102
 220 83 220 83 240.5 73.5 c 128,-1,103
 261 64 261 64 288.5 59 c 128,-1,104
 316 54 316 54 343 52.5 c 128,-1,105
 370 51 370 51 382 51 c 0,106,107
 417 51 417 51 462 56 c 128,-1,108
 507 61 507 61 546 72 c 1,109,110
 510 83 510 83 471.5 93.5 c 128,-1,111
 433 104 433 104 397 112.5 c 128,-1,112
 361 121 361 121 329.5 126 c 128,-1,113
 298 131 298 131 277 131 c 0,114,115
 253 131 253 131 236.5 126.5 c 128,-1,116
 220 122 220 122 220 100 c 0,101,102
EndSplineSet
Validated: 1
EndChar

StartChar: E
Encoding: 69 69 20
Width: 1247
GlyphClass: 2
Flags: W
LayerCount: 2
Fore
SplineSet
1213 1223 m 1,0,1
 1197 1257 1197 1257 1167 1283 c 128,-1,2
 1137 1309 1137 1309 1098 1326.5 c 128,-1,3
 1059 1344 1059 1344 1014 1353 c 128,-1,4
 969 1362 969 1362 922 1362 c 0,5,6
 866 1362 866 1362 812.5 1348 c 128,-1,7
 759 1334 759 1334 717.5 1306.5 c 128,-1,8
 676 1279 676 1279 650.5 1237 c 128,-1,9
 625 1195 625 1195 625 1139 c 0,10,11
 625 1105 625 1105 635.5 1067.5 c 128,-1,12
 646 1030 646 1030 668 998 c 128,-1,13
 690 966 690 966 724.5 945 c 128,-1,14
 759 924 759 924 807 924 c 0,15,16
 815 924 815 924 826 924.5 c 128,-1,17
 837 925 837 925 848.5 926 c 128,-1,18
 860 927 860 927 869 927.5 c 128,-1,19
 878 928 878 928 883 928 c 0,20,21
 909 928 909 928 922.5 918 c 128,-1,22
 936 908 936 908 936 893 c 0,23,24
 936 879 936 879 923 867.5 c 128,-1,25
 910 856 910 856 881 856 c 0,26,27
 781 856 781 856 693 835.5 c 128,-1,28
 605 815 605 815 531 779.5 c 128,-1,29
 457 744 457 744 399 696.5 c 128,-1,30
 341 649 341 649 301 596 c 128,-1,31
 261 543 261 543 239.5 486.5 c 128,-1,32
 218 430 218 430 218 377 c 0,33,34
 218 316 218 316 243 262 c 128,-1,35
 268 208 268 208 321 167 c 128,-1,36
 374 126 374 126 456 102 c 128,-1,37
 538 78 538 78 652 78 c 0,38,39
 733 78 733 78 811 94.5 c 128,-1,40
 889 111 889 111 950 144 c 128,-1,41
 1011 177 1011 177 1048.5 226 c 128,-1,42
 1086 275 1086 275 1086 340 c 0,43,44
 1086 401 1086 401 1067.5 444 c 128,-1,45
 1049 487 1049 487 1017 515 c 128,-1,46
 985 543 985 543 943 556 c 128,-1,47
 901 569 901 569 855 569 c 0,48,49
 805 569 805 569 753.5 558.5 c 128,-1,50
 702 548 702 548 654.5 529 c 128,-1,51
 607 510 607 510 566 483 c 128,-1,52
 525 456 525 456 496 422 c 1,53,-1
 441 471 l 1,54,55
 470 508 470 508 515 538.5 c 128,-1,56
 560 569 560 569 614.5 590.5 c 128,-1,57
 669 612 669 612 729.5 623.5 c 128,-1,58
 790 635 790 635 850 635 c 0,59,60
 913 635 913 635 972 618.5 c 128,-1,61
 1031 602 1031 602 1077 567 c 128,-1,62
 1123 532 1123 532 1152 477.5 c 128,-1,63
 1181 423 1181 423 1184 346 c 1,64,65
 1181 284 1181 284 1157.5 232.5 c 128,-1,66
 1134 181 1134 181 1093.5 139.5 c 128,-1,67
 1053 98 1053 98 999 67.5 c 128,-1,68
 945 37 945 37 881.5 16.5 c 128,-1,69
 818 -4 818 -4 748 -14.5 c 128,-1,70
 678 -25 678 -25 607 -25 c 0,71,72
 530 -25 530 -25 454 -12.5 c 128,-1,73
 378 0 378 0 309.5 25 c 128,-1,74
 241 50 241 50 182 87.5 c 128,-1,75
 123 125 123 125 80 174.5 c 128,-1,76
 37 224 37 224 12.5 285.5 c 128,-1,77
 -12 347 -12 347 -12 420 c 0,78,79
 -12 498 -12 498 15 560.5 c 128,-1,80
 42 623 42 623 89 672.5 c 128,-1,81
 136 722 136 722 199.5 759 c 128,-1,82
 263 796 263 796 336 824 c 128,-1,83
 409 852 409 852 488 871 c 128,-1,84
 567 890 567 890 646 903 c 1,85,86
 585 924 585 924 545 951.5 c 128,-1,87
 505 979 505 979 481 1010 c 128,-1,88
 457 1041 457 1041 447 1073.5 c 128,-1,89
 437 1106 437 1106 437 1135 c 0,90,91
 437 1194 437 1194 471.5 1249.5 c 128,-1,92
 506 1305 506 1305 568 1347.5 c 128,-1,93
 630 1390 630 1390 717.5 1416 c 128,-1,94
 805 1442 805 1442 910 1442 c 0,95,96
 953 1442 953 1442 1001 1435 c 128,-1,97
 1049 1428 1049 1428 1096 1412.5 c 128,-1,98
 1143 1397 1143 1397 1185.5 1373.5 c 128,-1,99
 1228 1350 1228 1350 1260.5 1317 c 128,-1,100
 1293 1284 1293 1284 1312.5 1242 c 128,-1,101
 1332 1200 1332 1200 1332 1147 c 0,102,103
 1332 1118 1332 1118 1320.5 1096.5 c 128,-1,104
 1309 1075 1309 1075 1290 1061 c 128,-1,105
 1271 1047 1271 1047 1248 1040.5 c 128,-1,106
 1225 1034 1225 1034 1201 1034 c 0,107,108
 1182 1034 1182 1034 1163.5 1040.5 c 128,-1,109
 1145 1047 1145 1047 1130 1059 c 128,-1,110
 1115 1071 1115 1071 1105.5 1088 c 128,-1,111
 1096 1105 1096 1105 1096 1126 c 0,112,113
 1096 1162 1096 1162 1113 1181.5 c 128,-1,114
 1130 1201 1130 1201 1151.5 1210 c 128,-1,115
 1173 1219 1173 1219 1191.5 1221 c 128,-1,116
 1210 1223 1210 1223 1213 1223 c 1,0,1
EndSplineSet
Validated: 1
EndChar

StartChar: F
Encoding: 70 70 21
Width: 1520
GlyphClass: 2
Flags: W
LayerCount: 2
Fore
SplineSet
1740 1382 m 1,0,1
 1716 1338 1716 1338 1685.5 1308.5 c 128,-1,2
 1655 1279 1655 1279 1619 1262 c 128,-1,3
 1583 1245 1583 1245 1543.5 1238 c 128,-1,4
 1504 1231 1504 1231 1462 1231 c 0,5,6
 1445 1231 1445 1231 1427 1232 c 128,-1,7
 1409 1233 1409 1233 1392 1235 c 1,8,9
 1344 1179 1344 1179 1314 1107 c 128,-1,10
 1284 1035 1284 1035 1267.5 962.5 c 128,-1,11
 1251 890 1251 890 1245.5 825 c 128,-1,12
 1240 760 1240 760 1239 719 c 1,13,-1
 1429 719 l 1,14,-1
 1429 643 l 1,15,-1
 1235 643 l 1,16,17
 1226 526 1226 526 1188.5 431 c 128,-1,18
 1151 336 1151 336 1091 262 c 128,-1,19
 1031 188 1031 188 952.5 134 c 128,-1,20
 874 80 874 80 783.5 45.5 c 128,-1,21
 693 11 693 11 593.5 -6 c 128,-1,22
 494 -23 494 -23 393 -23 c 0,23,24
 320 -23 320 -23 244 -8 c 128,-1,25
 168 7 168 7 106.5 39.5 c 128,-1,26
 45 72 45 72 6 123.5 c 128,-1,27
 -33 175 -33 175 -33 248 c 0,28,29
 -33 313 -33 313 -12 360 c 128,-1,30
 9 407 9 407 45.5 439.5 c 128,-1,31
 82 472 82 472 131.5 492 c 128,-1,32
 181 512 181 512 238 523 c 128,-1,33
 295 534 295 534 356.5 537.5 c 128,-1,34
 418 541 418 541 479 541 c 1,35,36
 420 618 420 618 393 695.5 c 128,-1,37
 366 773 366 773 366 848 c 0,38,39
 366 927 366 927 391.5 1002 c 128,-1,40
 417 1077 417 1077 463.5 1143 c 128,-1,41
 510 1209 510 1209 573.5 1264 c 128,-1,42
 637 1319 637 1319 713.5 1358.5 c 128,-1,43
 790 1398 790 1398 876.5 1420 c 128,-1,44
 963 1442 963 1442 1054 1442 c 0,45,46
 1118 1442 1118 1442 1180.5 1428.5 c 128,-1,47
 1243 1415 1243 1415 1305.5 1399 c 128,-1,48
 1368 1383 1368 1383 1430.5 1369.5 c 128,-1,49
 1493 1356 1493 1356 1556 1356 c 0,50,51
 1583 1356 1583 1356 1605 1363.5 c 128,-1,52
 1627 1371 1627 1371 1644 1381.5 c 128,-1,53
 1661 1392 1661 1392 1674 1403.5 c 128,-1,54
 1687 1415 1687 1415 1695 1423 c 1,55,-1
 1740 1382 l 1,0,1
86 248 m 0,56,57
 86 210 86 210 101 180 c 128,-1,58
 116 150 116 150 141.5 127.5 c 128,-1,59
 167 105 167 105 200 88.5 c 128,-1,60
 233 72 233 72 268 62 c 128,-1,61
 303 52 303 52 338 47.5 c 128,-1,62
 373 43 373 43 403 43 c 0,63,64
 533 43 533 43 643 74.5 c 128,-1,65
 753 106 753 106 837 177.5 c 128,-1,66
 921 249 921 249 977 363.5 c 128,-1,67
 1033 478 1033 478 1056 645 c 1,68,-1
 841 645 l 1,69,-1
 841 719 l 1,70,-1
 1063 719 l 1,71,72
 1072 799 1072 799 1093.5 869 c 128,-1,73
 1115 939 1115 939 1142 997.5 c 128,-1,74
 1169 1056 1169 1056 1198 1102 c 128,-1,75
 1227 1148 1227 1148 1251 1180.5 c 128,-1,76
 1275 1213 1275 1213 1290.5 1230.5 c 128,-1,77
 1306 1248 1306 1248 1306 1249 c 0,78,79
 1232 1280 1232 1280 1149 1296.5 c 128,-1,80
 1066 1313 1066 1313 983 1313 c 0,81,82
 878 1313 878 1313 780.5 1285 c 128,-1,83
 683 1257 683 1257 607 1199 c 128,-1,84
 531 1141 531 1141 485.5 1053.5 c 128,-1,85
 440 966 440 966 440 846 c 0,86,87
 440 762 440 762 460 704 c 128,-1,88
 480 646 480 646 517.5 601 c 128,-1,89
 555 556 555 556 608 518 c 128,-1,90
 661 480 661 480 727 436 c 1,91,-1
 698 399 l 1,92,93
 674 411 674 411 641.5 425 c 128,-1,94
 609 439 609 439 571.5 451 c 128,-1,95
 534 463 534 463 494.5 471 c 128,-1,96
 455 479 455 479 417 479 c 0,97,98
 385 479 385 479 348 475.5 c 128,-1,99
 311 472 311 472 274 463 c 128,-1,100
 237 454 237 454 203 438 c 128,-1,101
 169 422 169 422 143 396 c 128,-1,102
 117 370 117 370 101.5 333.5 c 128,-1,103
 86 297 86 297 86 248 c 0,56,57
EndSplineSet
Validated: 1
EndChar

StartChar: G
Encoding: 71 71 22
Width: 1221
GlyphClass: 2
Flags: W
LayerCount: 2
Fore
SplineSet
1201 1225 m 1,0,1
 1130 1294 1130 1294 1054.5 1325 c 128,-1,2
 979 1356 979 1356 904 1356 c 0,3,4
 824 1356 824 1356 747 1328 c 128,-1,5
 670 1300 670 1300 600.5 1251.5 c 128,-1,6
 531 1203 531 1203 472 1137.5 c 128,-1,7
 413 1072 413 1072 370 997.5 c 128,-1,8
 327 923 327 923 303 843.5 c 128,-1,9
 279 764 279 764 279 686 c 0,10,11
 279 618 279 618 298 559 c 128,-1,12
 317 500 317 500 357.5 455.5 c 128,-1,13
 398 411 398 411 461 385.5 c 128,-1,14
 524 360 524 360 611 360 c 0,15,16
 676 360 676 360 742.5 378 c 128,-1,17
 809 396 809 396 868.5 430 c 128,-1,18
 928 464 928 464 977 514 c 128,-1,19
 1026 564 1026 564 1056 629 c 1,20,-1
 1201 631 l 1,21,22
 1150 400 1150 400 1059.5 218.5 c 128,-1,23
 969 37 969 37 845 -88.5 c 128,-1,24
 721 -214 721 -214 568 -280 c 128,-1,25
 415 -346 415 -346 239 -346 c 0,26,27
 142 -346 142 -346 70.5 -324 c 128,-1,28
 -1 -302 -1 -302 -48.5 -266.5 c 128,-1,29
 -96 -231 -96 -231 -119 -185.5 c 128,-1,30
 -142 -140 -142 -140 -142 -92 c 256,31,32
 -142 -44 -142 -44 -118.5 3 c 128,-1,33
 -95 50 -95 50 -48.5 86.5 c 128,-1,34
 -2 123 -2 123 67.5 145.5 c 128,-1,35
 137 168 137 168 228 168 c 0,36,37
 307 168 307 168 379.5 147.5 c 128,-1,38
 452 127 452 127 499 90 c 1,39,-1
 456 2 l 1,40,41
 436 11 436 11 415.5 18 c 128,-1,42
 395 25 395 25 371.5 30 c 128,-1,43
 348 35 348 35 318.5 38 c 128,-1,44
 289 41 289 41 251 41 c 0,45,46
 179 41 179 41 122.5 29 c 128,-1,47
 66 17 66 17 27 -2.5 c 128,-1,48
 -12 -22 -12 -22 -32 -46.5 c 128,-1,49
 -52 -71 -52 -71 -52 -96 c 0,50,51
 -52 -129 -52 -129 -32.5 -157 c 128,-1,52
 -13 -185 -13 -185 26 -206 c 128,-1,53
 65 -227 65 -227 122.5 -238.5 c 128,-1,54
 180 -250 180 -250 255 -250 c 0,55,56
 482 -250 482 -250 667.5 -78.5 c 128,-1,57
 853 93 853 93 986 428 c 1,58,59
 945 378 945 378 895 340.5 c 128,-1,60
 845 303 845 303 789.5 277.5 c 128,-1,61
 734 252 734 252 675 239.5 c 128,-1,62
 616 227 616 227 558 227 c 0,63,64
 466 227 466 227 380 255 c 128,-1,65
 294 283 294 283 228 338.5 c 128,-1,66
 162 394 162 394 122.5 477.5 c 128,-1,67
 83 561 83 561 83 672 c 0,68,69
 83 761 83 761 108 853 c 128,-1,70
 133 945 133 945 181.5 1030.5 c 128,-1,71
 230 1116 230 1116 301 1191 c 128,-1,72
 372 1266 372 1266 462.5 1322 c 128,-1,73
 553 1378 553 1378 663 1410 c 128,-1,74
 773 1442 773 1442 900 1442 c 0,75,76
 943 1442 943 1442 990.5 1435 c 128,-1,77
 1038 1428 1038 1428 1084.5 1412.5 c 128,-1,78
 1131 1397 1131 1397 1173.5 1373.5 c 128,-1,79
 1216 1350 1216 1350 1248 1317.5 c 128,-1,80
 1280 1285 1280 1285 1299 1243 c 128,-1,81
 1318 1201 1318 1201 1318 1149 c 0,82,83
 1318 1104 1318 1104 1304.5 1071 c 128,-1,84
 1291 1038 1291 1038 1270 1016.5 c 128,-1,85
 1249 995 1249 995 1222 985 c 128,-1,86
 1195 975 1195 975 1168 975 c 0,87,88
 1100 975 1100 975 1060.5 1006.5 c 128,-1,89
 1021 1038 1021 1038 1021 1100 c 0,90,91
 1021 1146 1021 1146 1043.5 1171.5 c 128,-1,92
 1066 1197 1066 1197 1096 1209 c 128,-1,93
 1126 1221 1126 1221 1156 1223 c 128,-1,94
 1186 1225 1186 1225 1201 1225 c 1,0,1
EndSplineSet
Validated: 1
EndChar

StartChar: H
Encoding: 72 72 23
Width: 1776
GlyphClass: 2
Flags: W
LayerCount: 2
Fore
SplineSet
1196 199 m 0,0,1
 1196 268 1196 268 1208 342.5 c 128,-1,2
 1220 417 1220 417 1238.5 491.5 c 128,-1,3
 1257 566 1257 566 1279.5 638.5 c 128,-1,4
 1302 711 1302 711 1323 776 c 1,5,6
 1272 768 1272 768 1221.5 758.5 c 128,-1,7
 1171 749 1171 749 1120 741 c 1,8,9
 1100 649 1100 649 1068 557 c 128,-1,10
 1036 465 1036 465 991.5 380 c 128,-1,11
 947 295 947 295 889 221 c 128,-1,12
 831 147 831 147 759 92.5 c 128,-1,13
 687 38 687 38 600 6.5 c 128,-1,14
 513 -25 513 -25 410 -25 c 0,15,16
 348 -25 348 -25 293.5 -9 c 128,-1,17
 239 7 239 7 198 40 c 128,-1,18
 157 73 157 73 133 122.5 c 128,-1,19
 109 172 109 172 109 238 c 0,20,21
 109 307 109 307 137 366 c 128,-1,22
 165 425 165 425 207 479 c 1,23,24
 129 551 129 551 87 640 c 128,-1,25
 45 729 45 729 45 836 c 0,26,27
 45 942 45 942 77 1028 c 128,-1,28
 109 1114 109 1114 164.5 1181 c 128,-1,29
 220 1248 220 1248 294.5 1297 c 128,-1,30
 369 1346 369 1346 453.5 1377.5 c 128,-1,31
 538 1409 538 1409 629 1424.5 c 128,-1,32
 720 1440 720 1440 809 1440 c 2,33,-1
 1352 1440 l 2,34,35
 1360 1440 1360 1440 1367.5 1435 c 128,-1,36
 1375 1430 1375 1430 1378 1423 c 1,37,38
 1376 1414 1376 1414 1372.5 1411 c 128,-1,39
 1369 1408 1369 1408 1364 1399 c 1,40,41
 1312 1336 1312 1336 1275.5 1265.5 c 128,-1,42
 1239 1195 1239 1195 1212.5 1120 c 128,-1,43
 1186 1045 1186 1045 1166.5 967 c 128,-1,44
 1147 889 1147 889 1130 811 c 1,45,-1
 1350 848 l 1,46,47
 1369 889 1369 889 1397.5 942 c 128,-1,48
 1426 995 1426 995 1461 1050 c 128,-1,49
 1496 1105 1496 1105 1538 1157.5 c 128,-1,50
 1580 1210 1580 1210 1626.5 1251.5 c 128,-1,51
 1673 1293 1673 1293 1723.5 1318 c 128,-1,52
 1774 1343 1774 1343 1827 1343 c 0,53,54
 1852 1343 1852 1343 1875.5 1336 c 128,-1,55
 1899 1329 1899 1329 1917.5 1315.5 c 128,-1,56
 1936 1302 1936 1302 1947 1281.5 c 128,-1,57
 1958 1261 1958 1261 1958 1233 c 0,58,59
 1958 1182 1958 1182 1937 1135.5 c 128,-1,60
 1916 1089 1916 1089 1881 1047 c 128,-1,61
 1846 1005 1846 1005 1800.5 969 c 128,-1,62
 1755 933 1755 933 1706 903.5 c 128,-1,63
 1657 874 1657 874 1608.5 851.5 c 128,-1,64
 1560 829 1560 829 1518 815 c 1,65,66
 1503 781 1503 781 1486 730 c 128,-1,67
 1469 679 1469 679 1452 620 c 128,-1,68
 1435 561 1435 561 1419.5 497 c 128,-1,69
 1404 433 1404 433 1392 373.5 c 128,-1,70
 1380 314 1380 314 1373 262.5 c 128,-1,71
 1366 211 1366 211 1366 176 c 0,72,73
 1366 167 1366 167 1367 153 c 128,-1,74
 1368 139 1368 139 1371.5 126 c 128,-1,75
 1375 113 1375 113 1383 103.5 c 128,-1,76
 1391 94 1391 94 1405 94 c 0,77,78
 1424 94 1424 94 1446 109 c 128,-1,79
 1468 124 1468 124 1489 145 c 128,-1,80
 1510 166 1510 166 1527.5 188 c 128,-1,81
 1545 210 1545 210 1556 225 c 1,82,-1
 1612 172 l 1,83,84
 1591 140 1591 140 1562.5 105.5 c 128,-1,85
 1534 71 1534 71 1499.5 42 c 128,-1,86
 1465 13 1465 13 1426 -6 c 128,-1,87
 1387 -25 1387 -25 1346 -25 c 0,88,89
 1302 -25 1302 -25 1273 -3.5 c 128,-1,90
 1244 18 1244 18 1227 51 c 128,-1,91
 1210 84 1210 84 1203 123.5 c 128,-1,92
 1196 163 1196 163 1196 199 c 0,0,1
162 791 m 0,93,94
 162 718 162 718 186 650 c 128,-1,95
 210 582 210 582 256 526 c 1,96,97
 323 587 323 587 405.5 633 c 128,-1,98
 488 679 488 679 577 710.5 c 128,-1,99
 666 742 666 742 758 760.5 c 128,-1,100
 850 779 850 779 936 786 c 1,101,102
 945 829 945 829 957 879 c 128,-1,103
 969 929 969 929 984.5 982.5 c 128,-1,104
 1000 1036 1000 1036 1018 1090 c 128,-1,105
 1036 1144 1036 1144 1057 1194.5 c 128,-1,106
 1078 1245 1078 1245 1102.5 1289 c 128,-1,107
 1127 1333 1127 1333 1155 1366 c 1,108,109
 1107 1374 1107 1374 1058.5 1376 c 128,-1,110
 1010 1378 1010 1378 960 1378 c 0,111,112
 873 1378 873 1378 779.5 1364.5 c 128,-1,113
 686 1351 686 1351 597.5 1322 c 128,-1,114
 509 1293 509 1293 430 1247 c 128,-1,115
 351 1201 351 1201 291.5 1136 c 128,-1,116
 232 1071 232 1071 197 985 c 128,-1,117
 162 899 162 899 162 791 c 0,93,94
188 244 m 0,118,119
 188 201 188 201 200.5 164 c 128,-1,120
 213 127 213 127 237 99.5 c 128,-1,121
 261 72 261 72 296.5 56.5 c 128,-1,122
 332 41 332 41 377 41 c 0,123,124
 459 41 459 41 526.5 72 c 128,-1,125
 594 103 594 103 649.5 155 c 128,-1,126
 705 207 705 207 748.5 275 c 128,-1,127
 792 343 792 343 826 418 c 128,-1,128
 860 493 860 493 884.5 569.5 c 128,-1,129
 909 646 909 646 926 715 c 1,130,131
 848 709 848 709 764.5 694.5 c 128,-1,132
 681 680 681 680 600 654 c 128,-1,133
 519 628 519 628 444 587 c 128,-1,134
 369 546 369 546 309 487 c 1,135,136
 393 442 393 442 487 442 c 0,137,138
 506 442 506 442 523 442 c 128,-1,139
 540 442 540 442 559 444 c 1,140,-1
 582 391 l 1,141,142
 529 385 529 385 475 385 c 0,143,144
 416 385 416 385 364.5 398 c 128,-1,145
 313 411 313 411 262 440 c 1,146,147
 231 397 231 397 209.5 347.5 c 128,-1,148
 188 298 188 298 188 244 c 0,118,119
1845 1280 m 0,149,150
 1815 1280 1815 1280 1784 1258.5 c 128,-1,151
 1753 1237 1753 1237 1723 1203 c 128,-1,152
 1693 1169 1693 1169 1665.5 1126.5 c 128,-1,153
 1638 1084 1638 1084 1615.5 1042 c 128,-1,154
 1593 1000 1593 1000 1575.5 962.5 c 128,-1,155
 1558 925 1558 925 1548 901 c 1,156,157
 1577 912 1577 912 1613 930.5 c 128,-1,158
 1649 949 1649 949 1686 973 c 128,-1,159
 1723 997 1723 997 1758 1026 c 128,-1,160
 1793 1055 1793 1055 1820 1087 c 128,-1,161
 1847 1119 1847 1119 1863.5 1153.5 c 128,-1,162
 1880 1188 1880 1188 1880 1223 c 0,163,164
 1880 1230 1880 1230 1878.5 1240 c 128,-1,165
 1877 1250 1877 1250 1873.5 1259 c 128,-1,166
 1870 1268 1870 1268 1863 1274 c 128,-1,167
 1856 1280 1856 1280 1845 1280 c 0,149,150
EndSplineSet
Validated: 1
EndChar

StartChar: I
Encoding: 73 73 24
Width: 1324
GlyphClass: 2
Flags: W
LayerCount: 2
Fore
SplineSet
1518 1376 m 1,0,1
 1417 1272 1417 1272 1358.5 1172.5 c 128,-1,2
 1300 1073 1300 1073 1269.5 986.5 c 128,-1,3
 1239 900 1239 900 1230.5 831 c 128,-1,4
 1222 762 1222 762 1221 719 c 1,5,-1
 1411 719 l 1,6,-1
 1411 643 l 1,7,-1
 1217 643 l 1,8,9
 1208 522 1208 522 1170.5 424.5 c 128,-1,10
 1133 327 1133 327 1073 250.5 c 128,-1,11
 1013 174 1013 174 934.5 118.5 c 128,-1,12
 856 63 856 63 765.5 27.5 c 128,-1,13
 675 -8 675 -8 575.5 -25.5 c 128,-1,14
 476 -43 476 -43 375 -43 c 0,15,16
 272 -43 272 -43 195 -17.5 c 128,-1,17
 118 8 118 8 67 50 c 128,-1,18
 16 92 16 92 -9.5 146 c 128,-1,19
 -35 200 -35 200 -35 256 c 0,20,21
 -35 310 -35 310 -11 361.5 c 128,-1,22
 13 413 13 413 61.5 453.5 c 128,-1,23
 110 494 110 494 182.5 518.5 c 128,-1,24
 255 543 255 543 352 543 c 0,25,26
 368 543 368 543 384.5 543 c 128,-1,27
 401 543 401 543 420 541 c 1,28,29
 385 618 385 618 368.5 692 c 128,-1,30
 352 766 352 766 352 836 c 0,31,32
 352 967 352 967 403.5 1078 c 128,-1,33
 455 1189 455 1189 546.5 1270 c 128,-1,34
 638 1351 638 1351 763.5 1396.5 c 128,-1,35
 889 1442 889 1442 1036 1442 c 0,36,37
 1097 1442 1097 1442 1157.5 1431.5 c 128,-1,38
 1218 1421 1218 1421 1278 1409 c 128,-1,39
 1338 1397 1338 1397 1397.5 1386.5 c 128,-1,40
 1457 1376 1457 1376 1518 1376 c 1,0,1
741 465 m 1,41,-1
 721 403 l 1,42,43
 673 419 673 419 628 432 c 128,-1,44
 583 445 583 445 541 453 c 1,45,46
 553 430 553 430 574 396.5 c 128,-1,47
 595 363 595 363 627 315 c 1,48,-1
 559 293 l 1,49,-1
 455 465 l 1,50,51
 411 471 411 471 373 471 c 0,52,53
 296 471 296 471 240.5 453.5 c 128,-1,54
 185 436 185 436 149 407.5 c 128,-1,55
 113 379 113 379 95.5 342 c 128,-1,56
 78 305 78 305 78 266 c 0,57,58
 78 221 78 221 98.5 177.5 c 128,-1,59
 119 134 119 134 158.5 99.5 c 128,-1,60
 198 65 198 65 255 44 c 128,-1,61
 312 23 312 23 385 23 c 0,62,63
 515 23 515 23 625 55.5 c 128,-1,64
 735 88 735 88 819 161.5 c 128,-1,65
 903 235 903 235 959 354 c 128,-1,66
 1015 473 1015 473 1038 645 c 1,67,-1
 823 645 l 1,68,-1
 823 719 l 1,69,-1
 1045 719 l 1,70,71
 1054 799 1054 799 1075.5 869 c 128,-1,72
 1097 939 1097 939 1124 997.5 c 128,-1,73
 1151 1056 1151 1056 1180 1102 c 128,-1,74
 1209 1148 1209 1148 1233 1180.5 c 128,-1,75
 1257 1213 1257 1213 1272.5 1230.5 c 128,-1,76
 1288 1248 1288 1248 1288 1249 c 0,77,78
 1214 1280 1214 1280 1131 1296.5 c 128,-1,79
 1048 1313 1048 1313 965 1313 c 0,80,81
 840 1313 840 1313 740 1278 c 128,-1,82
 640 1243 640 1243 570 1180 c 128,-1,83
 500 1117 500 1117 462 1029.5 c 128,-1,84
 424 942 424 942 424 838 c 0,85,86
 424 768 424 768 443 691 c 128,-1,87
 462 614 462 614 504 532 c 1,88,-1
 741 465 l 1,41,-1
EndSplineSet
Validated: 1
EndChar

StartChar: J
Encoding: 74 74 25
Width: 1330
GlyphClass: 2
Flags: W
LayerCount: 2
Fore
SplineSet
1520 1376 m 1,0,1
 1419 1272 1419 1272 1360.5 1172.5 c 128,-1,2
 1302 1073 1302 1073 1271.5 986.5 c 128,-1,3
 1241 900 1241 900 1232.5 831 c 128,-1,4
 1224 762 1224 762 1223 719 c 1,5,-1
 1413 719 l 1,6,-1
 1413 643 l 1,7,-1
 1219 643 l 1,8,9
 1210 479 1210 479 1171.5 346.5 c 128,-1,10
 1133 214 1133 214 1072 110.5 c 128,-1,11
 1011 7 1011 7 930.5 -68.5 c 128,-1,12
 850 -144 850 -144 757 -193 c 128,-1,13
 664 -242 664 -242 562 -265.5 c 128,-1,14
 460 -289 460 -289 356 -289 c 0,15,16
 245 -289 245 -289 166 -260.5 c 128,-1,17
 87 -232 87 -232 36 -184.5 c 128,-1,18
 -15 -137 -15 -137 -39 -75.5 c 128,-1,19
 -63 -14 -63 -14 -63 53 c 0,20,21
 -63 133 -63 133 -30.5 213.5 c 128,-1,22
 2 294 2 294 63 358.5 c 128,-1,23
 124 423 124 423 210 463.5 c 128,-1,24
 296 504 296 504 404 504 c 0,25,26
 418 504 418 504 432.5 503 c 128,-1,27
 447 502 447 502 463 500 c 1,28,29
 406 586 406 586 380 671.5 c 128,-1,30
 354 757 354 757 354 836 c 0,31,32
 354 967 354 967 405.5 1078 c 128,-1,33
 457 1189 457 1189 548.5 1270 c 128,-1,34
 640 1351 640 1351 765.5 1396.5 c 128,-1,35
 891 1442 891 1442 1038 1442 c 0,36,37
 1099 1442 1099 1442 1159.5 1431.5 c 128,-1,38
 1220 1421 1220 1421 1280 1409 c 128,-1,39
 1340 1397 1340 1397 1399.5 1386.5 c 128,-1,40
 1459 1376 1459 1376 1520 1376 c 1,0,1
784 424 m 1,41,-1
 764 362 l 1,42,43
 718 378 718 378 672 391 c 128,-1,44
 626 404 626 404 584 412 c 1,45,46
 596 389 596 389 617 355.5 c 128,-1,47
 638 322 638 322 670 274 c 1,48,-1
 602 252 l 1,49,-1
 498 424 l 1,50,51
 476 429 476 429 454 430.5 c 128,-1,52
 432 432 432 432 412 432 c 0,53,54
 326 432 326 432 258 399 c 128,-1,55
 190 366 190 366 143 312.5 c 128,-1,56
 96 259 96 259 70.5 192.5 c 128,-1,57
 45 126 45 126 45 59 c 0,58,59
 45 4 45 4 63.5 -47 c 128,-1,60
 82 -98 82 -98 121 -137 c 128,-1,61
 160 -176 160 -176 221 -199.5 c 128,-1,62
 282 -223 282 -223 367 -223 c 0,63,64
 501 -223 501 -223 614 -176 c 128,-1,65
 727 -129 727 -129 814 -25.5 c 128,-1,66
 901 78 901 78 958.5 243 c 128,-1,67
 1016 408 1016 408 1040 645 c 1,68,-1
 825 645 l 1,69,-1
 825 719 l 1,70,-1
 1047 719 l 1,71,72
 1056 799 1056 799 1077.5 869 c 128,-1,73
 1099 939 1099 939 1126 997.5 c 128,-1,74
 1153 1056 1153 1056 1182 1102 c 128,-1,75
 1211 1148 1211 1148 1235 1180.5 c 128,-1,76
 1259 1213 1259 1213 1274.5 1230.5 c 128,-1,77
 1290 1248 1290 1248 1290 1249 c 0,78,79
 1216 1280 1216 1280 1133 1296.5 c 128,-1,80
 1050 1313 1050 1313 967 1313 c 0,81,82
 842 1313 842 1313 742 1278 c 128,-1,83
 642 1243 642 1243 572 1180 c 128,-1,84
 502 1117 502 1117 464 1029.5 c 128,-1,85
 426 942 426 942 426 838 c 0,86,87
 426 759 426 759 455 672.5 c 128,-1,88
 484 586 484 586 547 492 c 1,89,-1
 784 424 l 1,41,-1
EndSplineSet
Validated: 1
EndChar

StartChar: K
Encoding: 75 75 26
Width: 1782
GlyphClass: 2
Flags: W
LayerCount: 2
Fore
SplineSet
1734 170 m 1,0,1
 1720 113 1720 113 1694 77 c 128,-1,2
 1668 41 1668 41 1637.5 20 c 128,-1,3
 1607 -1 1607 -1 1575.5 -8.5 c 128,-1,4
 1544 -16 1544 -16 1519 -16 c 0,5,6
 1467 -16 1467 -16 1431 0 c 128,-1,7
 1395 16 1395 16 1369.5 44 c 128,-1,8
 1344 72 1344 72 1328 108.5 c 128,-1,9
 1312 145 1312 145 1301.5 186 c 128,-1,10
 1291 227 1291 227 1284 270.5 c 128,-1,11
 1277 314 1277 314 1269.5 354.5 c 128,-1,12
 1262 395 1262 395 1252 430.5 c 128,-1,13
 1242 466 1242 466 1226 492 c 1,14,15
 1212 487 1212 487 1192.5 481 c 128,-1,16
 1173 475 1173 475 1156 475 c 0,17,18
 1133 475 1133 475 1108.5 481 c 128,-1,19
 1084 487 1084 487 1064 498 c 1,20,21
 989 353 989 353 895.5 253.5 c 128,-1,22
 802 154 802 154 703.5 92.5 c 128,-1,23
 605 31 605 31 508 4 c 128,-1,24
 411 -23 411 -23 327 -23 c 0,25,26
 268 -23 268 -23 218 -11.5 c 128,-1,27
 168 0 168 0 131.5 19.5 c 128,-1,28
 95 39 95 39 74.5 65.5 c 128,-1,29
 54 92 54 92 54 121 c 0,30,31
 54 149 54 149 63 169 c 128,-1,32
 72 189 72 189 87 202.5 c 128,-1,33
 102 216 102 216 121 222.5 c 128,-1,34
 140 229 140 229 159 229 c 0,35,36
 193 229 193 229 219 209 c 128,-1,37
 245 189 245 189 245 145 c 0,38,39
 245 110 245 110 214 80 c 1,40,41
 248 63 248 63 281.5 56 c 128,-1,42
 315 49 315 49 349 49 c 0,43,44
 432 49 432 49 512.5 91.5 c 128,-1,45
 593 134 593 134 664.5 206 c 128,-1,46
 736 278 736 278 796 372 c 128,-1,47
 856 466 856 466 899.5 568.5 c 128,-1,48
 943 671 943 671 967.5 775.5 c 128,-1,49
 992 880 992 880 992 973 c 0,50,51
 992 1051 992 1051 977 1123 c 128,-1,52
 962 1195 962 1195 929 1250 c 128,-1,53
 896 1305 896 1305 844.5 1337.5 c 128,-1,54
 793 1370 793 1370 720 1370 c 0,55,56
 649 1370 649 1370 581 1349 c 128,-1,57
 513 1328 513 1328 452.5 1290.5 c 128,-1,58
 392 1253 392 1253 341 1200 c 128,-1,59
 290 1147 290 1147 253 1083.5 c 128,-1,60
 216 1020 216 1020 195.5 947.5 c 128,-1,61
 175 875 175 875 175 797 c 0,62,63
 175 743 175 743 190 679.5 c 128,-1,64
 205 616 205 616 243.5 561.5 c 128,-1,65
 282 507 282 507 348 470.5 c 128,-1,66
 414 434 414 434 517 434 c 0,67,68
 531 434 531 434 545 435 c 128,-1,69
 559 436 559 436 575 438 c 1,70,-1
 595 391 l 1,71,72
 575 388 575 388 555.5 387.5 c 128,-1,73
 536 387 536 387 517 387 c 0,74,75
 431 387 431 387 364 408.5 c 128,-1,76
 297 430 297 430 247 465.5 c 128,-1,77
 197 501 197 501 163 548 c 128,-1,78
 129 595 129 595 107.5 645.5 c 128,-1,79
 86 696 86 696 76.5 747.5 c 128,-1,80
 67 799 67 799 67 844 c 0,81,82
 67 966 67 966 113.5 1074.5 c 128,-1,83
 160 1183 160 1183 245.5 1265 c 128,-1,84
 331 1347 331 1347 451.5 1394.5 c 128,-1,85
 572 1442 572 1442 720 1442 c 0,86,87
 845 1442 845 1442 932 1403 c 128,-1,88
 1019 1364 1019 1364 1073.5 1297.5 c 128,-1,89
 1128 1231 1128 1231 1152.5 1142 c 128,-1,90
 1177 1053 1177 1053 1177 954 c 0,91,92
 1177 879 1177 879 1163.5 801 c 128,-1,93
 1150 723 1150 723 1125 645 c 1,94,95
 1151 645 1151 645 1170.5 643 c 128,-1,96
 1190 641 1190 641 1206.5 636.5 c 128,-1,97
 1223 632 1223 632 1237.5 624 c 128,-1,98
 1252 616 1252 616 1269 604 c 1,99,100
 1309 635 1309 635 1336 685.5 c 128,-1,101
 1363 736 1363 736 1384 797.5 c 128,-1,102
 1405 859 1405 859 1423.5 927 c 128,-1,103
 1442 995 1442 995 1465 1062 c 128,-1,104
 1488 1129 1488 1129 1518.5 1189.5 c 128,-1,105
 1549 1250 1549 1250 1593.5 1296 c 128,-1,106
 1638 1342 1638 1342 1700 1369.5 c 128,-1,107
 1762 1397 1762 1397 1848 1397 c 0,108,109
 1870 1397 1870 1397 1894 1392 c 128,-1,110
 1918 1387 1918 1387 1938 1377 c 128,-1,111
 1958 1367 1958 1367 1971 1353.5 c 128,-1,112
 1984 1340 1984 1340 1984 1323 c 0,113,114
 1984 1297 1984 1297 1976.5 1275.5 c 128,-1,115
 1969 1254 1969 1254 1956.5 1238.5 c 128,-1,116
 1944 1223 1944 1223 1928 1214.5 c 128,-1,117
 1912 1206 1912 1206 1896 1206 c 1,118,119
 1871 1222 1871 1222 1849 1224.5 c 128,-1,120
 1827 1227 1827 1227 1807 1227 c 0,121,122
 1751 1227 1751 1227 1716 1206 c 128,-1,123
 1681 1185 1681 1185 1659.5 1148.5 c 128,-1,124
 1638 1112 1638 1112 1625.5 1063 c 128,-1,125
 1613 1014 1613 1014 1600.5 959 c 128,-1,126
 1588 904 1588 904 1571 845.5 c 128,-1,127
 1554 787 1554 787 1524.5 731.5 c 128,-1,128
 1495 676 1495 676 1448 626 c 128,-1,129
 1401 576 1401 576 1328 537 c 1,130,131
 1351 514 1351 514 1377 479 c 128,-1,132
 1403 444 1403 444 1427.5 402.5 c 128,-1,133
 1452 361 1452 361 1472.5 314.5 c 128,-1,134
 1493 268 1493 268 1506 221 c 0,135,136
 1519 173 1519 173 1537 144 c 128,-1,137
 1555 115 1555 115 1580 115 c 0,138,139
 1589 115 1589 115 1601.5 124.5 c 128,-1,140
 1614 134 1614 134 1628 148.5 c 128,-1,141
 1642 163 1642 163 1657 180.5 c 128,-1,142
 1672 198 1672 198 1685 213 c 1,143,-1
 1734 170 l 1,0,1
1095 555 m 1,144,145
 1112 546 1112 546 1126.5 540.5 c 128,-1,146
 1141 535 1141 535 1156 535 c 0,147,148
 1167 535 1167 535 1178 537.5 c 128,-1,149
 1189 540 1189 540 1201 545 c 1,150,151
 1194 558 1194 558 1182 569 c 0,152,153
 1171 578 1171 578 1154.5 586 c 128,-1,154
 1138 594 1138 594 1113 594 c 1,155,-1
 1095 555 l 1,144,145
EndSplineSet
Validated: 1
EndChar

StartChar: L
Encoding: 76 76 27
Width: 1571
GlyphClass: 2
Flags: W
LayerCount: 2
Fore
SplineSet
712 133 m 1,0,1
 676 101 676 101 627 73 c 128,-1,2
 578 45 578 45 516.5 23.5 c 128,-1,3
 455 2 455 2 381.5 -10.5 c 128,-1,4
 308 -23 308 -23 222 -23 c 0,5,6
 189 -23 189 -23 142.5 -13.5 c 128,-1,7
 96 -4 96 -4 53 18 c 128,-1,8
 10 40 10 40 -20 75.5 c 128,-1,9
 -50 111 -50 111 -50 162 c 0,10,11
 -50 226 -50 226 -18 274.5 c 128,-1,12
 14 323 14 323 64.5 355.5 c 128,-1,13
 115 388 115 388 176 404 c 128,-1,14
 237 420 237 420 296 420 c 0,15,16
 353 420 353 420 406 411 c 128,-1,17
 459 402 459 402 511 386 c 128,-1,18
 563 370 563 370 614 349.5 c 128,-1,19
 665 329 665 329 718 307 c 1,20,21
 744 379 744 379 764 466 c 128,-1,22
 784 553 784 553 804 646 c 128,-1,23
 824 739 824 739 847 834.5 c 128,-1,24
 870 930 870 930 900.5 1018.5 c 128,-1,25
 931 1107 931 1107 972.5 1184 c 128,-1,26
 1014 1261 1014 1261 1071.5 1318.5 c 128,-1,27
 1129 1376 1129 1376 1205 1409 c 128,-1,28
 1281 1442 1281 1442 1381 1442 c 0,29,30
 1451 1442 1451 1442 1511 1421.5 c 128,-1,31
 1571 1401 1571 1401 1615 1360.5 c 128,-1,32
 1659 1320 1659 1320 1684 1260 c 128,-1,33
 1709 1200 1709 1200 1709 1122 c 0,34,35
 1709 1045 1709 1045 1688.5 972.5 c 128,-1,36
 1668 900 1668 900 1631 835.5 c 128,-1,37
 1594 771 1594 771 1543 715.5 c 128,-1,38
 1492 660 1492 660 1431.5 617 c 128,-1,39
 1371 574 1371 574 1303.5 545 c 128,-1,40
 1236 516 1236 516 1166 504 c 1,41,-1
 1152 559 l 1,42,43
 1246 582 1246 582 1324 641.5 c 128,-1,44
 1402 701 1402 701 1458 782 c 128,-1,45
 1514 863 1514 863 1545 959 c 128,-1,46
 1576 1055 1576 1055 1576 1153 c 0,47,48
 1576 1200 1576 1200 1565 1239.5 c 128,-1,49
 1554 1279 1554 1279 1529.5 1307.5 c 128,-1,50
 1505 1336 1505 1336 1466.5 1352 c 128,-1,51
 1428 1368 1428 1368 1373 1368 c 0,52,53
 1303 1368 1303 1368 1253 1338 c 128,-1,54
 1203 1308 1203 1308 1166.5 1255.5 c 128,-1,55
 1130 1203 1130 1203 1103 1131.5 c 128,-1,56
 1076 1060 1076 1060 1053.5 976.5 c 128,-1,57
 1031 893 1031 893 1009 801 c 128,-1,58
 987 709 987 709 959.5 615.5 c 128,-1,59
 932 522 932 522 896.5 431 c 128,-1,60
 861 340 861 340 810 258 c 1,61,62
 866 234 866 234 923 205 c 128,-1,63
 980 176 980 176 1037 151.5 c 128,-1,64
 1094 127 1094 127 1150 110.5 c 128,-1,65
 1206 94 1206 94 1260 94 c 0,66,67
 1306 94 1306 94 1339.5 115 c 128,-1,68
 1373 136 1373 136 1395.5 160.5 c 128,-1,69
 1418 185 1418 185 1430 206 c 128,-1,70
 1442 227 1442 227 1447 227 c 1,71,-1
 1492 201 l 1,72,73
 1469 159 1469 159 1443 118.5 c 128,-1,74
 1417 78 1417 78 1383.5 46.5 c 128,-1,75
 1350 15 1350 15 1307 -4 c 128,-1,76
 1264 -23 1264 -23 1209 -23 c 0,77,78
 1138 -23 1138 -23 1073 -6.5 c 128,-1,79
 1008 10 1008 10 947.5 34 c 128,-1,80
 887 58 887 58 828.5 85 c 128,-1,81
 770 112 770 112 712 133 c 1,0,1
13 166 m 0,82,83
 13 124 13 124 41 98.5 c 128,-1,84
 69 73 69 73 108.5 60 c 128,-1,85
 148 47 148 47 191 43 c 128,-1,86
 234 39 234 39 263 39 c 0,87,88
 295 39 295 39 344 45.5 c 128,-1,89
 393 52 393 52 445.5 68 c 128,-1,90
 498 84 498 84 547.5 111.5 c 128,-1,91
 597 139 597 139 630 182 c 1,92,93
 600 202 600 202 559.5 225.5 c 128,-1,94
 519 249 519 249 471.5 269.5 c 128,-1,95
 424 290 424 290 372 303.5 c 128,-1,96
 320 317 320 317 267 317 c 0,97,98
 230 317 230 317 186 312.5 c 128,-1,99
 142 308 142 308 103.5 292 c 128,-1,100
 65 276 65 276 39 246.5 c 128,-1,101
 13 217 13 217 13 166 c 0,82,83
EndSplineSet
Validated: 1
EndChar

StartChar: M
Encoding: 77 77 28
Width: 2204
GlyphClass: 2
Flags: W
LayerCount: 2
Fore
SplineSet
2172 240 m 1,0,1
 2150 184 2150 184 2119.5 136 c 128,-1,2
 2089 88 2089 88 2052 53 c 128,-1,3
 2015 18 2015 18 1974 -2.5 c 128,-1,4
 1933 -23 1933 -23 1890 -23 c 0,5,6
 1852 -23 1852 -23 1826.5 -7.5 c 128,-1,7
 1801 8 1801 8 1785.5 31.5 c 128,-1,8
 1770 55 1770 55 1763.5 83 c 128,-1,9
 1757 111 1757 111 1757 135 c 0,10,11
 1757 187 1757 187 1770 254.5 c 128,-1,12
 1783 322 1783 322 1805 399.5 c 128,-1,13
 1827 477 1827 477 1854.5 561 c 128,-1,14
 1882 645 1882 645 1910.5 729 c 128,-1,15
 1939 813 1939 813 1966.5 894 c 128,-1,16
 1994 975 1994 975 2016 1046.5 c 128,-1,17
 2038 1118 2038 1118 2051 1176.5 c 128,-1,18
 2064 1235 2064 1235 2064 1274 c 0,19,20
 2064 1341 2064 1341 2021 1341 c 0,21,22
 1970 1341 1970 1341 1915.5 1294.5 c 128,-1,23
 1861 1248 1861 1248 1805.5 1169.5 c 128,-1,24
 1750 1091 1750 1091 1695 988 c 128,-1,25
 1640 885 1640 885 1588 772.5 c 128,-1,26
 1536 660 1536 660 1488.5 544 c 128,-1,27
 1441 428 1441 428 1401 324 c 128,-1,28
 1361 220 1361 220 1329 135.5 c 128,-1,29
 1297 51 1297 51 1277 0 c 1,30,-1
 1054 0 l 1,31,-1
 1146 240 l 1,32,33
 1221 440 1221 440 1281 627 c 0,34,35
 1306 706 1306 706 1330.5 790 c 128,-1,36
 1355 874 1355 874 1374.5 954 c 128,-1,37
 1394 1034 1394 1034 1405.5 1106 c 128,-1,38
 1417 1178 1417 1178 1417 1233 c 0,39,40
 1417 1292 1417 1292 1402.5 1325 c 128,-1,41
 1388 1358 1388 1358 1351 1358 c 0,42,43
 1309 1358 1309 1358 1263.5 1320 c 128,-1,44
 1218 1282 1218 1282 1170.5 1217 c 128,-1,45
 1123 1152 1123 1152 1075 1065 c 128,-1,46
 1027 978 1027 978 980.5 880 c 128,-1,47
 934 782 934 782 890.5 679 c 128,-1,48
 847 576 847 576 808.5 478 c 128,-1,49
 770 380 770 380 737.5 293 c 128,-1,50
 705 206 705 206 681 141 c 128,-1,51
 657 76 657 76 643 38 c 128,-1,52
 629 0 629 0 626 0 c 2,53,-1
 430 0 l 1,54,-1
 542 313 l 1,55,56
 580 411 580 411 616 511 c 128,-1,57
 652 611 652 611 679.5 712 c 128,-1,58
 707 813 707 813 724 916.5 c 128,-1,59
 741 1020 741 1020 741 1126 c 0,60,61
 741 1178 741 1178 728.5 1225 c 128,-1,62
 716 1272 716 1272 689 1307.5 c 128,-1,63
 662 1343 662 1343 620.5 1363.5 c 128,-1,64
 579 1384 579 1384 522 1384 c 0,65,66
 450 1384 450 1384 392 1355.5 c 128,-1,67
 334 1327 334 1327 289.5 1280.5 c 128,-1,68
 245 1234 245 1234 213 1174.5 c 128,-1,69
 181 1115 181 1115 160 1052.5 c 128,-1,70
 139 990 139 990 129.5 930 c 128,-1,71
 120 870 120 870 120 823 c 0,72,73
 120 692 120 692 151 560.5 c 128,-1,74
 182 429 182 429 253 311 c 1,75,-1
 210 279 l 1,76,77
 172 339 172 339 144.5 406 c 128,-1,78
 117 473 117 473 99 543 c 128,-1,79
 81 613 81 613 72 682.5 c 128,-1,80
 63 752 63 752 63 817 c 0,81,82
 63 879 63 879 74 949.5 c 128,-1,83
 85 1020 85 1020 109.5 1089.5 c 128,-1,84
 134 1159 134 1159 172.5 1222.5 c 128,-1,85
 211 1286 211 1286 265.5 1335 c 128,-1,86
 320 1384 320 1384 391 1413 c 128,-1,87
 462 1442 462 1442 552 1442 c 0,88,89
 640 1442 640 1442 702 1405.5 c 128,-1,90
 764 1369 764 1369 802.5 1309.5 c 128,-1,91
 841 1250 841 1250 858.5 1175 c 128,-1,92
 876 1100 876 1100 876 1022 c 0,93,94
 876 982 876 982 871 939 c 128,-1,95
 866 896 866 896 858.5 853 c 128,-1,96
 851 810 851 810 840.5 767.5 c 128,-1,97
 830 725 830 725 820 687 c 0,98,99
 795 597 795 597 765 510 c 1,100,101
 779 545 779 545 792 578 c 0,102,103
 803 606 803 606 815 635 c 128,-1,104
 827 664 827 664 835 682 c 0,105,106
 858 734 858 734 890.5 810.5 c 128,-1,107
 923 887 923 887 964 971.5 c 128,-1,108
 1005 1056 1005 1056 1053.5 1140 c 128,-1,109
 1102 1224 1102 1224 1157 1291 c 128,-1,110
 1212 1358 1212 1358 1272.5 1400 c 128,-1,111
 1333 1442 1333 1442 1398 1442 c 0,112,113
 1446 1442 1446 1442 1478.5 1424.5 c 128,-1,114
 1511 1407 1511 1407 1531 1376.5 c 128,-1,115
 1551 1346 1551 1346 1559.5 1304 c 128,-1,116
 1568 1262 1568 1262 1568 1214 c 0,117,118
 1568 1160 1568 1160 1560 1099.5 c 128,-1,119
 1552 1039 1552 1039 1538.5 976.5 c 128,-1,120
 1525 914 1525 914 1509 852 c 128,-1,121
 1493 790 1493 790 1476.5 733.5 c 128,-1,122
 1460 677 1460 677 1445.5 628.5 c 128,-1,123
 1431 580 1431 580 1421 545 c 1,124,125
 1447 596 1447 596 1474.5 661 c 128,-1,126
 1502 726 1502 726 1532 799 c 128,-1,127
 1562 872 1562 872 1595 947.5 c 128,-1,128
 1628 1023 1628 1023 1665.5 1094.5 c 128,-1,129
 1703 1166 1703 1166 1745.5 1229.5 c 128,-1,130
 1788 1293 1788 1293 1837.5 1340 c 128,-1,131
 1887 1387 1887 1387 1943.5 1414.5 c 128,-1,132
 2000 1442 2000 1442 2066 1442 c 0,133,134
 2100 1442 2100 1442 2128 1429 c 128,-1,135
 2156 1416 2156 1416 2176.5 1393.5 c 128,-1,136
 2197 1371 2197 1371 2208.5 1340.5 c 128,-1,137
 2220 1310 2220 1310 2220 1274 c 0,138,139
 2220 1191 2220 1191 2199 1098.5 c 128,-1,140
 2178 1006 2178 1006 2146.5 908.5 c 128,-1,141
 2115 811 2115 811 2077.5 711 c 128,-1,142
 2040 611 2040 611 2007 514.5 c 128,-1,143
 1974 418 1974 418 1950.5 327.5 c 128,-1,144
 1927 237 1927 237 1923 158 c 1,145,146
 1923 137 1923 137 1926 124.5 c 128,-1,147
 1929 112 1929 112 1934 105 c 128,-1,148
 1939 98 1939 98 1945.5 96 c 128,-1,149
 1952 94 1952 94 1959 94 c 0,150,151
 1976 94 1976 94 1997.5 112.5 c 128,-1,152
 2019 131 2019 131 2041 158.5 c 128,-1,153
 2063 186 2063 186 2084 219.5 c 128,-1,154
 2105 253 2105 253 2121 283 c 1,155,-1
 2172 240 l 1,0,1
EndSplineSet
Validated: 1
EndChar

StartChar: N
Encoding: 78 78 29
Width: 1610
GlyphClass: 2
Flags: W
LayerCount: 2
Fore
SplineSet
1572 240 m 1,0,1
 1547 177 1547 177 1513 128 c 128,-1,2
 1479 79 1479 79 1441 45.5 c 128,-1,3
 1403 12 1403 12 1362.5 -5.5 c 128,-1,4
 1322 -23 1322 -23 1284 -23 c 0,5,6
 1262 -23 1262 -23 1241.5 -13 c 128,-1,7
 1221 -3 1221 -3 1205 17.5 c 128,-1,8
 1189 38 1189 38 1179 69 c 128,-1,9
 1169 100 1169 100 1169 141 c 0,10,11
 1169 199 1169 199 1189 282.5 c 128,-1,12
 1209 366 1209 366 1238.5 464 c 128,-1,13
 1268 562 1268 562 1303 667.5 c 128,-1,14
 1338 773 1338 773 1367.5 874 c 128,-1,15
 1397 975 1397 975 1417 1065 c 128,-1,16
 1437 1155 1437 1155 1437 1221 c 0,17,18
 1437 1276 1437 1276 1423.5 1307.5 c 128,-1,19
 1410 1339 1410 1339 1376 1339 c 0,20,21
 1332 1339 1332 1339 1283 1301.5 c 128,-1,22
 1234 1264 1234 1264 1183 1199.5 c 128,-1,23
 1132 1135 1132 1135 1080 1049.5 c 128,-1,24
 1028 964 1028 964 978 867.5 c 128,-1,25
 928 771 928 771 880.5 669.5 c 128,-1,26
 833 568 833 568 791.5 471.5 c 128,-1,27
 750 375 750 375 714.5 289.5 c 128,-1,28
 679 204 679 204 653.5 139.5 c 128,-1,29
 628 75 628 75 612.5 37.5 c 128,-1,30
 597 0 597 0 595 0 c 2,31,-1
 409 0 l 1,32,-1
 513 293 l 2,33,34
 523 322 523 322 541 373 c 128,-1,35
 559 424 559 424 580 489.5 c 128,-1,36
 601 555 601 555 623 631 c 128,-1,37
 645 707 645 707 662.5 786 c 128,-1,38
 680 865 680 865 691 943.5 c 128,-1,39
 702 1022 702 1022 702 1092 c 0,40,41
 702 1152 702 1152 691.5 1202.5 c 128,-1,42
 681 1253 681 1253 657 1290.5 c 128,-1,43
 633 1328 633 1328 593 1349 c 128,-1,44
 553 1370 553 1370 495 1370 c 0,45,46
 427 1370 427 1370 373 1339.5 c 128,-1,47
 319 1309 319 1309 277 1259 c 128,-1,48
 235 1209 235 1209 205 1145.5 c 128,-1,49
 175 1082 175 1082 155.5 1015 c 128,-1,50
 136 948 136 948 127 884 c 128,-1,51
 118 820 118 820 118 770 c 0,52,53
 118 645 118 645 147.5 522.5 c 128,-1,54
 177 400 177 400 243 291 c 1,55,-1
 204 258 l 1,56,57
 169 314 169 314 142.5 377 c 128,-1,58
 116 440 116 440 99 505.5 c 128,-1,59
 82 571 82 571 73.5 636.5 c 128,-1,60
 65 702 65 702 65 764 c 0,61,62
 65 831 65 831 75.5 907.5 c 128,-1,63
 86 984 86 984 109 1059.5 c 128,-1,64
 132 1135 132 1135 168 1204 c 128,-1,65
 204 1273 204 1273 255 1326 c 128,-1,66
 306 1379 306 1379 372.5 1410.5 c 128,-1,67
 439 1442 439 1442 524 1442 c 0,68,69
 607 1442 607 1442 664.5 1408 c 128,-1,70
 722 1374 722 1374 757.5 1319 c 128,-1,71
 793 1264 793 1264 809 1194 c 128,-1,72
 825 1124 825 1124 825 1051 c 0,73,74
 825 1007 825 1007 821 958 c 128,-1,75
 817 909 817 909 810 859.5 c 128,-1,76
 803 810 803 810 795 761.5 c 128,-1,77
 787 713 787 713 778 669 c 0,78,79
 757 566 757 566 731 465 c 1,80,81
 744 498 744 498 756 529 c 0,82,83
 767 555 767 555 778.5 582.5 c 128,-1,84
 790 610 790 610 798 627 c 0,85,86
 817 666 817 666 842 722 c 128,-1,87
 867 778 867 778 897.5 842.5 c 128,-1,88
 928 907 928 907 964 976.5 c 128,-1,89
 1000 1046 1000 1046 1040 1112.5 c 128,-1,90
 1080 1179 1080 1179 1124.5 1239 c 128,-1,91
 1169 1299 1169 1299 1216.5 1344 c 128,-1,92
 1264 1389 1264 1389 1315 1415.5 c 128,-1,93
 1366 1442 1366 1442 1419 1442 c 0,94,95
 1463 1442 1463 1442 1496.5 1425.5 c 128,-1,96
 1530 1409 1530 1409 1552.5 1379.5 c 128,-1,97
 1575 1350 1575 1350 1586 1310.5 c 128,-1,98
 1597 1271 1597 1271 1597 1225 c 0,99,100
 1597 1142 1597 1142 1577.5 1045 c 128,-1,101
 1558 948 1558 948 1528.5 847.5 c 128,-1,102
 1499 747 1499 747 1465 647 c 128,-1,103
 1431 547 1431 547 1401.5 457.5 c 128,-1,104
 1372 368 1372 368 1352.5 292.5 c 128,-1,105
 1333 217 1333 217 1333 166 c 0,106,107
 1333 134 1333 134 1340 114 c 128,-1,108
 1347 94 1347 94 1361 94 c 0,109,110
 1378 94 1378 94 1403 118 c 128,-1,111
 1428 142 1428 142 1452 174 c 128,-1,112
 1476 206 1476 206 1495.5 237 c 128,-1,113
 1515 268 1515 268 1521 283 c 1,114,-1
 1572 240 l 1,0,1
EndSplineSet
Validated: 1
EndChar

StartChar: O
Encoding: 79 79 30
Width: 1432
GlyphClass: 2
Flags: W
LayerCount: 2
Fore
SplineSet
362 819 m 0,0,1
 362 897 362 897 384.5 974 c 128,-1,2
 407 1051 407 1051 448 1120 c 128,-1,3
 489 1189 489 1189 545.5 1248 c 128,-1,4
 602 1307 602 1307 669 1350 c 128,-1,5
 736 1393 736 1393 812 1417.5 c 128,-1,6
 888 1442 888 1442 968 1442 c 0,7,8
 1072 1442 1072 1442 1167 1409 c 128,-1,9
 1262 1376 1262 1376 1334 1312.5 c 128,-1,10
 1406 1249 1406 1249 1449 1156 c 128,-1,11
 1492 1063 1492 1063 1492 944 c 0,12,13
 1492 823 1492 823 1459 704 c 128,-1,14
 1426 585 1426 585 1365.5 477.5 c 128,-1,15
 1305 370 1305 370 1219.5 278.5 c 128,-1,16
 1134 187 1134 187 1029 120 c 128,-1,17
 924 53 924 53 802 15 c 128,-1,18
 680 -23 680 -23 546 -23 c 0,19,20
 420 -23 420 -23 322 10 c 128,-1,21
 224 43 224 43 157 106.5 c 128,-1,22
 90 170 90 170 55 262.5 c 128,-1,23
 20 355 20 355 20 475 c 0,24,25
 20 572 20 572 47.5 672 c 128,-1,26
 75 772 75 772 128 865 c 128,-1,27
 181 958 181 958 257.5 1038.5 c 128,-1,28
 334 1119 334 1119 432 1178 c 1,29,-1
 462 1141 l 1,30,31
 401 1085 401 1085 353 1013 c 128,-1,32
 305 941 305 941 271.5 860.5 c 128,-1,33
 238 780 238 780 220 695 c 128,-1,34
 202 610 202 610 202 528 c 0,35,36
 202 430 202 430 224 341.5 c 128,-1,37
 246 253 246 253 293 185 c 128,-1,38
 340 117 340 117 413 77 c 128,-1,39
 486 37 486 37 587 37 c 0,40,41
 687 37 687 37 776.5 76 c 128,-1,42
 866 115 866 115 941.5 181.5 c 128,-1,43
 1017 248 1017 248 1077 336.5 c 128,-1,44
 1137 425 1137 425 1179.5 524.5 c 128,-1,45
 1222 624 1222 624 1244.5 728 c 128,-1,46
 1267 832 1267 832 1267 930 c 0,47,48
 1267 1020 1267 1020 1248 1100 c 128,-1,49
 1229 1180 1229 1180 1188 1239.5 c 128,-1,50
 1147 1299 1147 1299 1083 1333.5 c 128,-1,51
 1019 1368 1019 1368 929 1368 c 0,52,53
 826 1368 826 1368 740.5 1320 c 128,-1,54
 655 1272 655 1272 593 1193.5 c 128,-1,55
 531 1115 531 1115 496.5 1015.5 c 128,-1,56
 462 916 462 916 462 813 c 0,57,58
 462 755 462 755 474 714 c 128,-1,59
 486 673 486 673 506.5 646.5 c 128,-1,60
 527 620 527 620 554.5 608 c 128,-1,61
 582 596 582 596 614 596 c 0,62,63
 664 596 664 596 717.5 622 c 128,-1,64
 771 648 771 648 815.5 692 c 128,-1,65
 860 736 860 736 889.5 794.5 c 128,-1,66
 919 853 919 853 921 918 c 1,67,-1
 1017 934 l 1,68,69
 1017 855 1017 855 984.5 782 c 128,-1,70
 952 709 952 709 897.5 653 c 128,-1,71
 843 597 843 597 771 563.5 c 128,-1,72
 699 530 699 530 620 530 c 0,73,74
 555 530 555 530 507 553.5 c 128,-1,75
 459 577 459 577 426.5 617 c 128,-1,76
 394 657 394 657 378 709.5 c 128,-1,77
 362 762 362 762 362 819 c 0,0,1
EndSplineSet
Validated: 5
EndChar

StartChar: P
Encoding: 80 80 31
Width: 1571
GlyphClass: 2
Flags: W
LayerCount: 2
Fore
SplineSet
-27 283 m 0,0,1
 -27 344 -27 344 -8 393 c 128,-1,2
 11 442 11 442 44 480 c 128,-1,3
 77 518 77 518 121 545.5 c 128,-1,4
 165 573 165 573 215 591 c 128,-1,5
 265 609 265 609 319 617.5 c 128,-1,6
 373 626 373 626 425 627 c 1,7,8
 431 737 431 737 462 840 c 128,-1,9
 493 943 493 943 546.5 1033.5 c 128,-1,10
 600 1124 600 1124 673.5 1199.5 c 128,-1,11
 747 1275 747 1275 838 1328.5 c 128,-1,12
 929 1382 929 1382 1036.5 1412 c 128,-1,13
 1144 1442 1144 1442 1265 1442 c 0,14,15
 1315 1442 1315 1442 1368.5 1433.5 c 128,-1,16
 1422 1425 1422 1425 1473 1406.5 c 128,-1,17
 1524 1388 1524 1388 1569 1360.5 c 128,-1,18
 1614 1333 1614 1333 1648 1294.5 c 128,-1,19
 1682 1256 1682 1256 1702 1207 c 128,-1,20
 1722 1158 1722 1158 1722 1098 c 0,21,22
 1722 1016 1722 1016 1699 943 c 128,-1,23
 1676 870 1676 870 1635 807.5 c 128,-1,24
 1594 745 1594 745 1538.5 693.5 c 128,-1,25
 1483 642 1483 642 1418 604 c 128,-1,26
 1353 566 1353 566 1281.5 542 c 128,-1,27
 1210 518 1210 518 1138 510 c 1,28,29
 1094 381 1094 381 1020 281.5 c 128,-1,30
 946 182 946 182 846 114.5 c 128,-1,31
 746 47 746 47 623 12 c 128,-1,32
 500 -23 500 -23 358 -23 c 0,33,34
 283 -23 283 -23 213 -2 c 128,-1,35
 143 19 143 19 90 58.5 c 128,-1,36
 37 98 37 98 5 154.5 c 128,-1,37
 -27 211 -27 211 -27 283 c 0,0,1
42 266 m 0,38,39
 42 207 42 207 75 164 c 128,-1,40
 108 121 108 121 157.5 93.5 c 128,-1,41
 207 66 207 66 265 52.5 c 128,-1,42
 323 39 323 39 374 39 c 0,43,44
 468 39 468 39 552.5 69.5 c 128,-1,45
 637 100 637 100 707.5 153.5 c 128,-1,46
 778 207 778 207 833 279.5 c 128,-1,47
 888 352 888 352 925 436 c 0,48,49
 946 484 946 484 960.5 536 c 128,-1,50
 975 588 975 588 987.5 641 c 128,-1,51
 1000 694 1000 694 1012.5 747.5 c 128,-1,52
 1025 801 1025 801 1042 852 c 0,53,54
 1054 888 1054 888 1078 948.5 c 128,-1,55
 1102 1009 1102 1009 1140.5 1076 c 128,-1,56
 1179 1143 1179 1143 1232.5 1208.5 c 128,-1,57
 1286 1274 1286 1274 1357 1319 c 1,58,59
 1344 1328 1344 1328 1321 1335 c 0,60,61
 1301 1341 1301 1341 1267.5 1346.5 c 128,-1,62
 1234 1352 1234 1352 1183 1352 c 0,63,64
 1093 1352 1093 1352 1007.5 1323.5 c 128,-1,65
 922 1295 922 1295 846 1244.5 c 128,-1,66
 770 1194 770 1194 706 1125 c 128,-1,67
 642 1056 642 1056 596 975 c 128,-1,68
 550 894 550 894 524.5 804 c 128,-1,69
 499 714 499 714 499 623 c 1,70,71
 582 610 582 610 647 581 c 128,-1,72
 712 552 712 552 778 508 c 1,73,-1
 735 442 l 1,74,75
 681 473 681 473 622 497.5 c 128,-1,76
 563 522 563 522 501 522 c 1,77,78
 501 512 501 512 505 489 c 128,-1,79
 509 466 509 466 516 435.5 c 128,-1,80
 523 405 523 405 533 371.5 c 128,-1,81
 543 338 543 338 554 307 c 1,82,-1
 495 289 l 1,83,84
 481 311 481 311 469.5 346.5 c 128,-1,85
 458 382 458 382 450 418 c 128,-1,86
 442 454 442 454 437 483 c 128,-1,87
 432 512 432 512 431 522 c 1,88,89
 395 522 395 522 352 516 c 128,-1,90
 309 510 309 510 265.5 497 c 128,-1,91
 222 484 222 484 182 464 c 128,-1,92
 142 444 142 444 110.5 415.5 c 128,-1,93
 79 387 79 387 60.5 350 c 128,-1,94
 42 313 42 313 42 266 c 0,38,39
1431 1282 m 1,95,96
 1374 1223 1374 1223 1328.5 1144.5 c 128,-1,97
 1283 1066 1283 1066 1248.5 974 c 128,-1,98
 1214 882 1214 882 1190 779 c 128,-1,99
 1166 676 1166 676 1152 569 c 1,100,101
 1206 569 1206 569 1257.5 590 c 128,-1,102
 1309 611 1309 611 1354.5 646.5 c 128,-1,103
 1400 682 1400 682 1438 729.5 c 128,-1,104
 1476 777 1476 777 1503.5 829.5 c 128,-1,105
 1531 882 1531 882 1546.5 936.5 c 128,-1,106
 1562 991 1562 991 1562 1042 c 0,107,108
 1562 1067 1562 1067 1557.5 1101 c 128,-1,109
 1553 1135 1553 1135 1539 1169.5 c 128,-1,110
 1525 1204 1525 1204 1499 1234.5 c 128,-1,111
 1473 1265 1473 1265 1431 1282 c 1,95,96
EndSplineSet
Validated: 1
EndChar

StartChar: Q
Encoding: 81 81 32
Width: 1429
GlyphClass: 2
Flags: W
LayerCount: 2
Fore
SplineSet
760 211 m 1,0,1
 684 94 684 94 626.5 3 c 128,-1,2
 569 -88 569 -88 520 -156 c 128,-1,3
 471 -224 471 -224 426 -271 c 128,-1,4
 381 -318 381 -318 330 -346.5 c 128,-1,5
 279 -375 279 -375 216.5 -388 c 128,-1,6
 154 -401 154 -401 72 -401 c 0,7,8
 16 -401 16 -401 -25.5 -389 c 128,-1,9
 -67 -377 -67 -377 -94.5 -357 c 128,-1,10
 -122 -337 -122 -337 -135.5 -311.5 c 128,-1,11
 -149 -286 -149 -286 -149 -258 c 0,12,13
 -149 -227 -149 -227 -133 -197 c 128,-1,14
 -117 -167 -117 -167 -86 -143 c 128,-1,15
 -55 -119 -55 -119 -9.5 -104.5 c 128,-1,16
 36 -90 36 -90 95 -90 c 0,17,18
 159 -90 159 -90 232 -105 c 128,-1,19
 305 -120 305 -120 379 -143 c 128,-1,20
 453 -166 453 -166 524.5 -192.5 c 128,-1,21
 596 -219 596 -219 658 -242 c 128,-1,22
 720 -265 720 -265 768.5 -280 c 128,-1,23
 817 -295 817 -295 846 -295 c 0,24,25
 878 -295 878 -295 907.5 -281 c 128,-1,26
 937 -267 937 -267 962 -246.5 c 128,-1,27
 987 -226 987 -226 1007 -202.5 c 128,-1,28
 1027 -179 1027 -179 1041 -160 c 1,29,-1
 1084 -190 l 1,30,31
 1063 -216 1063 -216 1036.5 -253.5 c 128,-1,32
 1010 -291 1010 -291 973 -326.5 c 128,-1,33
 936 -362 936 -362 885.5 -387 c 128,-1,34
 835 -412 835 -412 767 -412 c 0,35,36
 732 -412 732 -412 678 -395.5 c 128,-1,37
 624 -379 624 -379 559 -354 c 128,-1,38
 494 -329 494 -329 423 -300 c 128,-1,39
 352 -271 352 -271 283 -246 c 128,-1,40
 214 -221 214 -221 151.5 -204.5 c 128,-1,41
 89 -188 89 -188 42 -188 c 0,42,43
 -18 -188 -18 -188 -47.5 -208 c 128,-1,44
 -77 -228 -77 -228 -77 -254 c 0,45,46
 -77 -269 -77 -269 -66.5 -283.5 c 128,-1,47
 -56 -298 -56 -298 -35 -309.5 c 128,-1,48
 -14 -321 -14 -321 17.5 -328.5 c 128,-1,49
 49 -336 49 -336 91 -336 c 0,50,51
 150 -336 150 -336 195 -327 c 128,-1,52
 240 -318 240 -318 279.5 -294.5 c 128,-1,53
 319 -271 319 -271 357 -231.5 c 128,-1,54
 395 -192 395 -192 441.5 -131 c 128,-1,55
 488 -70 488 -70 546.5 15 c 128,-1,56
 605 100 605 100 685 213 c 1,57,-1
 760 211 l 1,0,1
361 819 m 0,58,59
 361 897 361 897 383.5 974 c 128,-1,60
 406 1051 406 1051 447 1120 c 128,-1,61
 488 1189 488 1189 544.5 1248 c 128,-1,62
 601 1307 601 1307 668 1350 c 128,-1,63
 735 1393 735 1393 811 1417.5 c 128,-1,64
 887 1442 887 1442 967 1442 c 0,65,66
 1071 1442 1071 1442 1166 1409 c 128,-1,67
 1261 1376 1261 1376 1333.5 1312.5 c 128,-1,68
 1406 1249 1406 1249 1449 1156 c 128,-1,69
 1492 1063 1492 1063 1492 944 c 0,70,71
 1492 823 1492 823 1459 704 c 128,-1,72
 1426 585 1426 585 1365.5 477.5 c 128,-1,73
 1305 370 1305 370 1219.5 278.5 c 128,-1,74
 1134 187 1134 187 1028.5 120 c 128,-1,75
 923 53 923 53 801 15 c 128,-1,76
 679 -23 679 -23 545 -23 c 0,77,78
 419 -23 419 -23 321.5 10 c 128,-1,79
 224 43 224 43 156.5 106.5 c 128,-1,80
 89 170 89 170 54 262.5 c 128,-1,81
 19 355 19 355 19 475 c 0,82,83
 19 572 19 572 47 672 c 128,-1,84
 75 772 75 772 127.5 865 c 128,-1,85
 180 958 180 958 256.5 1038.5 c 128,-1,86
 333 1119 333 1119 431 1178 c 1,87,-1
 461 1141 l 1,88,89
 401 1085 401 1085 352.5 1013 c 128,-1,90
 304 941 304 941 270.5 860.5 c 128,-1,91
 237 780 237 780 219 695 c 128,-1,92
 201 610 201 610 201 528 c 0,93,94
 201 430 201 430 223 341.5 c 128,-1,95
 245 253 245 253 292 185 c 128,-1,96
 339 117 339 117 412 77 c 128,-1,97
 485 37 485 37 586 37 c 0,98,99
 686 37 686 37 775.5 76 c 128,-1,100
 865 115 865 115 940.5 181.5 c 128,-1,101
 1016 248 1016 248 1076 336.5 c 128,-1,102
 1136 425 1136 425 1178.5 524.5 c 128,-1,103
 1221 624 1221 624 1243.5 728 c 128,-1,104
 1266 832 1266 832 1266 930 c 0,105,106
 1266 1020 1266 1020 1247 1100 c 128,-1,107
 1228 1180 1228 1180 1187 1239.5 c 128,-1,108
 1146 1299 1146 1299 1082 1333.5 c 128,-1,109
 1018 1368 1018 1368 928 1368 c 0,110,111
 825 1368 825 1368 739.5 1320 c 128,-1,112
 654 1272 654 1272 592 1193.5 c 128,-1,113
 530 1115 530 1115 495.5 1015.5 c 128,-1,114
 461 916 461 916 461 813 c 0,115,116
 461 755 461 755 473 714 c 128,-1,117
 485 673 485 673 505.5 646.5 c 128,-1,118
 526 620 526 620 553.5 608 c 128,-1,119
 581 596 581 596 613 596 c 0,120,121
 663 596 663 596 716.5 622 c 128,-1,122
 770 648 770 648 814.5 692 c 128,-1,123
 859 736 859 736 888.5 794.5 c 128,-1,124
 918 853 918 853 920 918 c 1,125,-1
 1016 934 l 1,126,127
 1016 855 1016 855 983.5 782 c 128,-1,128
 951 709 951 709 896.5 653 c 128,-1,129
 842 597 842 597 770 563.5 c 128,-1,130
 698 530 698 530 619 530 c 0,131,132
 554 530 554 530 506 553.5 c 128,-1,133
 458 577 458 577 425.5 617 c 128,-1,134
 393 657 393 657 377 709.5 c 128,-1,135
 361 762 361 762 361 819 c 0,58,59
EndSplineSet
Validated: 5
EndChar

StartChar: R
Encoding: 82 82 33
Width: 1801
GlyphClass: 2
Flags: W
LayerCount: 2
Fore
SplineSet
1785 182 m 1,0,1
 1771 147 1771 147 1749.5 109.5 c 128,-1,2
 1728 72 1728 72 1696.5 41 c 128,-1,3
 1665 10 1665 10 1623.5 -9.5 c 128,-1,4
 1582 -29 1582 -29 1529 -29 c 0,5,6
 1485 -29 1485 -29 1449 -4.5 c 128,-1,7
 1413 20 1413 20 1383.5 60.5 c 128,-1,8
 1354 101 1354 101 1329.5 153 c 128,-1,9
 1305 205 1305 205 1284.5 259 c 128,-1,10
 1264 313 1264 313 1245.5 364.5 c 128,-1,11
 1227 416 1227 416 1209 456.5 c 128,-1,12
 1191 497 1191 497 1172.5 522 c 128,-1,13
 1154 547 1154 547 1132 547 c 1,14,15
 1084 402 1084 402 1009.5 294.5 c 128,-1,16
 935 187 935 187 839 116.5 c 128,-1,17
 743 46 743 46 628 11.5 c 128,-1,18
 513 -23 513 -23 386 -23 c 0,19,20
 381 -23 381 -23 378 -21.5 c 128,-1,21
 375 -20 375 -20 370 -20 c 0,22,23
 362 -20 362 -20 353.5 -21.5 c 128,-1,24
 345 -23 345 -23 335 -23 c 0,25,26
 279 -23 279 -23 215 -4.5 c 128,-1,27
 151 14 151 14 96 50 c 128,-1,28
 41 86 41 86 5 139 c 128,-1,29
 -31 192 -31 192 -31 262 c 0,30,31
 -31 350 -31 350 10 417.5 c 128,-1,32
 51 485 51 485 117 530 c 128,-1,33
 183 575 183 575 265 598 c 128,-1,34
 347 621 347 621 429 621 c 1,35,36
 434 733 434 733 469 838 c 128,-1,37
 504 943 504 943 562.5 1034 c 128,-1,38
 621 1125 621 1125 699.5 1200 c 128,-1,39
 778 1275 778 1275 870.5 1329 c 128,-1,40
 963 1383 963 1383 1066.5 1412.5 c 128,-1,41
 1170 1442 1170 1442 1279 1442 c 0,42,43
 1357 1442 1357 1442 1436 1422 c 128,-1,44
 1515 1402 1515 1402 1578.5 1360 c 128,-1,45
 1642 1318 1642 1318 1682 1252.5 c 128,-1,46
 1722 1187 1722 1187 1722 1096 c 0,47,48
 1722 1002 1722 1002 1687.5 923 c 128,-1,49
 1653 844 1653 844 1596 779 c 128,-1,50
 1539 714 1539 714 1464.5 661.5 c 128,-1,51
 1390 609 1390 609 1310 569 c 1,52,53
 1340 545 1340 545 1365 500.5 c 128,-1,54
 1390 456 1390 456 1413 404 c 128,-1,55
 1436 352 1436 352 1458 298.5 c 128,-1,56
 1480 245 1480 245 1503 201.5 c 128,-1,57
 1526 158 1526 158 1551 130 c 128,-1,58
 1576 102 1576 102 1605 102 c 0,59,60
 1626 102 1626 102 1644 114.5 c 128,-1,61
 1662 127 1662 127 1677 145 c 128,-1,62
 1692 163 1692 163 1703.5 182 c 128,-1,63
 1715 201 1715 201 1722 213 c 1,64,-1
 1785 182 l 1,0,1
481 299 m 1,65,66
 470 319 470 319 461.5 354.5 c 128,-1,67
 453 390 453 390 445 424 c 0,68,69
 436 464 436 464 429 508 c 1,70,71
 396 508 396 508 353.5 502.5 c 128,-1,72
 311 497 311 497 267.5 485 c 128,-1,73
 224 473 224 473 182 454.5 c 128,-1,74
 140 436 140 436 107 409 c 128,-1,75
 74 382 74 382 54 346.5 c 128,-1,76
 34 311 34 311 34 266 c 0,77,78
 34 202 34 202 64.5 159.5 c 128,-1,79
 95 117 95 117 141.5 91 c 128,-1,80
 188 65 188 65 244 54 c 128,-1,81
 300 43 300 43 352 43 c 0,82,83
 465 43 465 43 555.5 73 c 128,-1,84
 646 103 646 103 716 159 c 128,-1,85
 786 215 786 215 836.5 294.5 c 128,-1,86
 887 374 887 374 921 473 c 0,87,88
 949 554 949 554 974 634.5 c 128,-1,89
 999 715 999 715 1027 792.5 c 128,-1,90
 1055 870 1055 870 1088.5 943 c 128,-1,91
 1122 1016 1122 1016 1167.5 1083 c 128,-1,92
 1213 1150 1213 1150 1273 1210 c 128,-1,93
 1333 1270 1333 1270 1413 1321 c 1,94,95
 1393 1331 1393 1331 1361 1339 c 0,96,97
 1334 1346 1334 1346 1292.5 1352 c 128,-1,98
 1251 1358 1251 1358 1191 1358 c 0,99,100
 1102 1358 1102 1358 1015.5 1329 c 128,-1,101
 929 1300 929 1300 851 1249 c 128,-1,102
 773 1198 773 1198 706.5 1129 c 128,-1,103
 640 1060 640 1060 591 979.5 c 128,-1,104
 542 899 542 899 514.5 810.5 c 128,-1,105
 487 722 487 722 487 633 c 2,106,-1
 487 616 l 1,107,108
 535 609 535 609 582 594.5 c 128,-1,109
 629 580 629 580 673.5 556.5 c 128,-1,110
 718 533 718 533 758.5 500 c 128,-1,111
 799 467 799 467 833 424 c 1,112,-1
 800 389 l 1,113,114
 784 398 784 398 755 418.5 c 128,-1,115
 726 439 726 439 685.5 459 c 128,-1,116
 645 479 645 479 595 494.5 c 128,-1,117
 545 510 545 510 487 510 c 1,118,119
 489 479 489 479 496.5 448.5 c 128,-1,120
 504 418 504 418 513 391.5 c 128,-1,121
 522 365 522 365 530 344.5 c 128,-1,122
 538 324 538 324 542 313 c 1,123,-1
 481 299 l 1,65,66
1136 567 m 1,124,125
 1220 593 1220 593 1295 638.5 c 128,-1,126
 1370 684 1370 684 1426.5 747 c 128,-1,127
 1483 810 1483 810 1516.5 889.5 c 128,-1,128
 1550 969 1550 969 1550 1063 c 0,129,130
 1550 1091 1550 1091 1544 1122.5 c 128,-1,131
 1538 1154 1538 1154 1527 1183.5 c 128,-1,132
 1516 1213 1516 1213 1499 1239.5 c 128,-1,133
 1482 1266 1482 1266 1460 1284 c 1,134,135
 1372 1221 1372 1221 1319 1142.5 c 128,-1,136
 1266 1064 1266 1064 1232.5 972.5 c 128,-1,137
 1199 881 1199 881 1178.5 779 c 128,-1,138
 1158 677 1158 677 1136 567 c 1,124,125
EndSplineSet
Validated: 1
EndChar

StartChar: S
Encoding: 83 83 34
Width: 1297
GlyphClass: 2
Flags: W
LayerCount: 2
Fore
SplineSet
466 -63 m 0,0,1
 374 -63 374 -63 286 -43 c 128,-1,2
 198 -23 198 -23 130 20.5 c 128,-1,3
 62 64 62 64 20.5 132.5 c 128,-1,4
 -21 201 -21 201 -21 299 c 0,5,6
 -21 360 -21 360 -2 413.5 c 128,-1,7
 17 467 17 467 50 511 c 128,-1,8
 83 555 83 555 127 590 c 128,-1,9
 171 625 171 625 221.5 649 c 128,-1,10
 272 673 272 673 326 685.5 c 128,-1,11
 380 698 380 698 433 698 c 0,12,13
 501 698 501 698 563 681 c 128,-1,14
 625 664 625 664 672.5 631.5 c 128,-1,15
 720 599 720 599 748.5 552 c 128,-1,16
 777 505 777 505 777 444 c 0,17,18
 777 396 777 396 753.5 357 c 128,-1,19
 730 318 730 318 694 290 c 128,-1,20
 658 262 658 262 614 246.5 c 128,-1,21
 570 231 570 231 530 231 c 0,22,23
 516 231 516 231 512.5 240.5 c 128,-1,24
 509 250 509 250 509 262 c 256,25,26
 509 274 509 274 523.5 281 c 128,-1,27
 538 288 538 288 559 295 c 128,-1,28
 580 302 580 302 605.5 310.5 c 128,-1,29
 631 319 631 319 652 333 c 128,-1,30
 673 347 673 347 687.5 369 c 128,-1,31
 702 391 702 391 702 424 c 0,32,33
 702 455 702 455 689 481 c 128,-1,34
 676 507 676 507 643.5 525 c 128,-1,35
 611 543 611 543 556 553 c 128,-1,36
 501 563 501 563 417 563 c 0,37,38
 388 563 388 563 350.5 557 c 128,-1,39
 313 551 313 551 274 537.5 c 128,-1,40
 235 524 235 524 197.5 502 c 128,-1,41
 160 480 160 480 130.5 449 c 128,-1,42
 101 418 101 418 83 377 c 128,-1,43
 65 336 65 336 65 283 c 0,44,45
 65 195 65 195 102.5 140 c 128,-1,46
 140 85 140 85 197.5 54 c 128,-1,47
 255 23 255 23 322.5 11.5 c 128,-1,48
 390 0 390 0 450 0 c 0,49,50
 520 0 520 0 592.5 12 c 128,-1,51
 665 24 665 24 733 49.5 c 128,-1,52
 801 75 801 75 860 113 c 128,-1,53
 919 151 919 151 963 203 c 128,-1,54
 1007 255 1007 255 1032.5 320.5 c 128,-1,55
 1058 386 1058 386 1058 467 c 0,56,57
 1058 531 1058 531 1031.5 585 c 128,-1,58
 1005 639 1005 639 965.5 689 c 128,-1,59
 926 739 926 739 880 785.5 c 128,-1,60
 834 832 834 832 794.5 880 c 128,-1,61
 755 928 755 928 728.5 979.5 c 128,-1,62
 702 1031 702 1031 702 1090 c 0,63,64
 702 1172 702 1172 741 1237.5 c 128,-1,65
 780 1303 780 1303 841.5 1348.5 c 128,-1,66
 903 1394 903 1394 978.5 1418 c 128,-1,67
 1054 1442 1054 1442 1128 1442 c 0,68,69
 1178 1442 1178 1442 1231.5 1429.5 c 128,-1,70
 1285 1417 1285 1417 1329.5 1390 c 128,-1,71
 1374 1363 1374 1363 1402.5 1321 c 128,-1,72
 1431 1279 1431 1279 1431 1219 c 0,73,74
 1431 1196 1431 1196 1422.5 1176 c 128,-1,75
 1414 1156 1414 1156 1399 1140 c 128,-1,76
 1384 1124 1384 1124 1364 1115 c 128,-1,77
 1344 1106 1344 1106 1322 1106 c 0,78,79
 1305 1106 1305 1106 1289.5 1112 c 128,-1,80
 1274 1118 1274 1118 1262 1128.5 c 128,-1,81
 1250 1139 1250 1139 1243 1153.5 c 128,-1,82
 1236 1168 1236 1168 1236 1186 c 0,83,84
 1236 1203 1236 1203 1243.5 1216 c 128,-1,85
 1251 1229 1251 1229 1260.5 1241.5 c 128,-1,86
 1270 1254 1270 1254 1277.5 1266.5 c 128,-1,87
 1285 1279 1285 1279 1285 1294 c 0,88,89
 1285 1322 1285 1322 1266.5 1340 c 128,-1,90
 1248 1358 1248 1358 1222 1369 c 128,-1,91
 1196 1380 1196 1380 1167.5 1384.5 c 128,-1,92
 1139 1389 1139 1389 1119 1389 c 0,93,94
 1070 1389 1070 1389 1023.5 1373.5 c 128,-1,95
 977 1358 977 1358 941 1326.5 c 128,-1,96
 905 1295 905 1295 883 1248.5 c 128,-1,97
 861 1202 861 1202 861 1141 c 0,98,99
 861 1101 861 1101 889.5 1059.5 c 128,-1,100
 918 1018 918 1018 960.5 973 c 128,-1,101
 1003 928 1003 928 1052.5 878.5 c 128,-1,102
 1102 829 1102 829 1144.5 773 c 128,-1,103
 1187 717 1187 717 1215.5 652.5 c 128,-1,104
 1244 588 1244 588 1244 514 c 0,105,106
 1244 415 1244 415 1209 334 c 128,-1,107
 1174 253 1174 253 1114.5 189 c 128,-1,108
 1055 125 1055 125 976.5 77.5 c 128,-1,109
 898 30 898 30 811.5 -1 c 128,-1,110
 725 -32 725 -32 636 -47.5 c 128,-1,111
 547 -63 547 -63 466 -63 c 0,0,1
EndSplineSet
Validated: 1
EndChar

StartChar: T
Encoding: 84 84 35
Width: 1547
GlyphClass: 2
Flags: W
LayerCount: 2
Fore
SplineSet
434 483 m 0,0,1
 356 483 356 483 297.5 463 c 128,-1,2
 239 443 239 443 200 411 c 128,-1,3
 161 379 161 379 141 337.5 c 128,-1,4
 121 296 121 296 121 254 c 256,5,6
 121 212 121 212 140 171.5 c 128,-1,7
 159 131 159 131 198 100 c 128,-1,8
 237 69 237 69 295.5 50 c 128,-1,9
 354 31 354 31 432 31 c 0,10,11
 569 31 569 31 663.5 70.5 c 128,-1,12
 758 110 758 110 822.5 177 c 128,-1,13
 887 244 887 244 928.5 334 c 128,-1,14
 970 424 970 424 1000 524 c 128,-1,15
 1030 624 1030 624 1055.5 729.5 c 128,-1,16
 1081 835 1081 835 1114 934.5 c 128,-1,17
 1147 1034 1147 1034 1194 1121 c 128,-1,18
 1241 1208 1241 1208 1315 1272 c 1,19,20
 1218 1297 1218 1297 1114 1309 c 128,-1,21
 1010 1321 1010 1321 911 1321 c 0,22,23
 819 1321 819 1321 736 1282.5 c 128,-1,24
 653 1244 653 1244 590 1178.5 c 128,-1,25
 527 1113 527 1113 489.5 1026 c 128,-1,26
 452 939 452 939 452 842 c 0,27,28
 452 766 452 766 474 706.5 c 128,-1,29
 496 647 496 647 534.5 599.5 c 128,-1,30
 573 552 573 552 626.5 514.5 c 128,-1,31
 680 477 680 477 743 446 c 1,32,-1
 729 395 l 1,33,-1
 700 406 l 1,34,35
 638 438 638 438 570.5 460.5 c 128,-1,36
 503 483 503 483 434 483 c 0,0,1
-33 256 m 0,37,38
 -33 333 -33 333 4.5 388.5 c 128,-1,39
 42 444 42 444 100 480 c 128,-1,40
 158 516 158 516 229 533.5 c 128,-1,41
 300 551 300 551 368 551 c 0,42,43
 407 551 407 551 442 545.5 c 128,-1,44
 477 540 477 540 506 530 c 1,45,46
 480 563 480 563 455.5 599.5 c 128,-1,47
 431 636 431 636 412 676 c 128,-1,48
 393 716 393 716 381.5 758 c 128,-1,49
 370 800 370 800 370 844 c 0,50,51
 370 932 370 932 397.5 1010.5 c 128,-1,52
 425 1089 425 1089 473 1155.5 c 128,-1,53
 521 1222 521 1222 586 1275 c 128,-1,54
 651 1328 651 1328 725.5 1365 c 128,-1,55
 800 1402 800 1402 880.5 1422 c 128,-1,56
 961 1442 961 1442 1040 1442 c 0,57,58
 1108 1442 1108 1442 1174.5 1429.5 c 128,-1,59
 1241 1417 1241 1417 1307 1402 c 128,-1,60
 1373 1387 1373 1387 1439 1374.5 c 128,-1,61
 1505 1362 1505 1362 1573 1362 c 0,62,63
 1592 1362 1592 1362 1608.5 1369 c 128,-1,64
 1625 1376 1625 1376 1640 1387 c 128,-1,65
 1655 1398 1655 1398 1668 1412 c 128,-1,66
 1681 1426 1681 1426 1693 1440 c 1,67,-1
 1769 1440 l 1,68,69
 1755 1382 1755 1382 1715 1346.5 c 128,-1,70
 1675 1311 1675 1311 1625.5 1291 c 128,-1,71
 1576 1271 1576 1271 1525 1264 c 128,-1,72
 1474 1257 1474 1257 1440 1257 c 0,73,74
 1402 1257 1402 1257 1374.5 1232 c 128,-1,75
 1347 1207 1347 1207 1327 1165.5 c 128,-1,76
 1307 1124 1307 1124 1294 1069.5 c 128,-1,77
 1281 1015 1281 1015 1272.5 955.5 c 128,-1,78
 1264 896 1264 896 1258.5 835.5 c 128,-1,79
 1253 775 1253 775 1249 721 c 0,80,81
 1238 582 1238 582 1199 473 c 128,-1,82
 1160 364 1160 364 1099 280.5 c 128,-1,83
 1038 197 1038 197 960 138.5 c 128,-1,84
 882 80 882 80 793 43.5 c 128,-1,85
 704 7 704 7 608 -10 c 128,-1,86
 512 -27 512 -27 416 -27 c 0,87,88
 373 -27 373 -27 323 -21 c 128,-1,89
 273 -15 273 -15 223 -1 c 128,-1,90
 173 13 173 13 126.5 35 c 128,-1,91
 80 57 80 57 44.5 88 c 128,-1,92
 9 119 9 119 -12 161 c 128,-1,93
 -33 203 -33 203 -33 256 c 0,37,38
EndSplineSet
Validated: 1
EndChar

StartChar: U
Encoding: 85 85 36
Width: 1714
GlyphClass: 2
Flags: W
LayerCount: 2
Fore
SplineSet
842 1047 m 0,0,1
 842 938 842 938 818 832.5 c 128,-1,2
 794 727 794 727 764.5 622.5 c 128,-1,3
 735 518 735 518 711 412 c 128,-1,4
 687 306 687 306 687 197 c 0,5,6
 687 141 687 141 700.5 109.5 c 128,-1,7
 714 78 714 78 748 78 c 0,8,9
 792 78 792 78 841 115.5 c 128,-1,10
 890 153 890 153 941 217.5 c 128,-1,11
 992 282 992 282 1044 367.5 c 128,-1,12
 1096 453 1096 453 1146 549.5 c 128,-1,13
 1196 646 1196 646 1243.5 747.5 c 128,-1,14
 1291 849 1291 849 1332.5 945.5 c 128,-1,15
 1374 1042 1374 1042 1409 1127.5 c 128,-1,16
 1444 1213 1444 1213 1470 1277.5 c 128,-1,17
 1496 1342 1496 1342 1511 1379.5 c 128,-1,18
 1526 1417 1526 1417 1528 1417 c 2,19,-1
 1715 1417 l 1,20,21
 1688 1342 1688 1342 1655.5 1248 c 128,-1,22
 1623 1154 1623 1154 1590 1049 c 128,-1,23
 1557 944 1557 944 1526 833.5 c 128,-1,24
 1495 723 1495 723 1471 616 c 128,-1,25
 1447 509 1447 509 1432.5 410 c 128,-1,26
 1418 311 1418 311 1418 229 c 0,27,28
 1418 141 1418 141 1437 102 c 128,-1,29
 1456 63 1456 63 1485 63 c 0,30,31
 1522 63 1522 63 1566 110 c 128,-1,32
 1610 157 1610 157 1653 236 c 1,33,-1
 1706 205 l 1,34,35
 1651 89 1651 89 1580.5 32 c 128,-1,36
 1510 -25 1510 -25 1442 -25 c 0,37,38
 1404 -25 1404 -25 1371 -9 c 128,-1,39
 1338 7 1338 7 1313.5 39 c 128,-1,40
 1289 71 1289 71 1274.5 120.5 c 128,-1,41
 1260 170 1260 170 1260 236 c 0,42,43
 1260 309 1260 309 1271.5 393.5 c 128,-1,44
 1283 478 1283 478 1302 569.5 c 128,-1,45
 1321 661 1321 661 1344 756.5 c 128,-1,46
 1367 852 1367 852 1391 948 c 1,47,48
 1372 905 1372 905 1346.5 840.5 c 128,-1,49
 1321 776 1321 776 1289.5 699.5 c 128,-1,50
 1258 623 1258 623 1220 539.5 c 128,-1,51
 1182 456 1182 456 1138.5 375.5 c 128,-1,52
 1095 295 1095 295 1046 222.5 c 128,-1,53
 997 150 997 150 942.5 95 c 128,-1,54
 888 40 888 40 828.5 7.5 c 128,-1,55
 769 -25 769 -25 705 -25 c 0,56,57
 660 -25 660 -25 627 -8 c 128,-1,58
 594 9 594 9 571.5 38 c 128,-1,59
 549 67 549 67 538 107 c 128,-1,60
 527 147 527 147 527 193 c 0,61,62
 527 269 527 269 539.5 348 c 128,-1,63
 552 427 552 427 571.5 507 c 128,-1,64
 591 587 591 587 613 668.5 c 128,-1,65
 635 750 635 750 654.5 831.5 c 128,-1,66
 674 913 674 913 686.5 994 c 128,-1,67
 699 1075 699 1075 699 1155 c 0,68,69
 699 1203 699 1203 686.5 1246 c 128,-1,70
 674 1289 674 1289 649 1320.5 c 128,-1,71
 624 1352 624 1352 585.5 1370.5 c 128,-1,72
 547 1389 547 1389 496 1389 c 0,73,74
 429 1389 429 1389 374.5 1357.5 c 128,-1,75
 320 1326 320 1326 278 1274.5 c 128,-1,76
 236 1223 236 1223 206 1157 c 128,-1,77
 176 1091 176 1091 156.5 1022.5 c 128,-1,78
 137 954 137 954 128 888 c 128,-1,79
 119 822 119 822 119 770 c 0,80,81
 119 645 119 645 148.5 522.5 c 128,-1,82
 178 400 178 400 244 291 c 1,83,-1
 205 258 l 1,84,85
 170 314 170 314 143.5 377 c 128,-1,86
 117 440 117 440 100 505.5 c 128,-1,87
 83 571 83 571 74.5 636.5 c 128,-1,88
 66 702 66 702 66 764 c 0,89,90
 66 831 66 831 76.5 907.5 c 128,-1,91
 87 984 87 984 110 1059 c 128,-1,92
 133 1134 133 1134 169 1203 c 128,-1,93
 205 1272 205 1272 256 1324.5 c 128,-1,94
 307 1377 307 1377 373.5 1408.5 c 128,-1,95
 440 1440 440 1440 525 1440 c 0,96,97
 613 1440 613 1440 673.5 1406 c 128,-1,98
 734 1372 734 1372 771.5 1316.5 c 128,-1,99
 809 1261 809 1261 825.5 1190.5 c 128,-1,100
 842 1120 842 1120 842 1047 c 0,0,1
EndSplineSet
Validated: 1
EndChar

StartChar: V
Encoding: 86 86 37
Width: 1440
GlyphClass: 2
Flags: W
LayerCount: 2
Fore
SplineSet
412 0 m 1,0,1
 428 32 428 32 455 98.5 c 128,-1,2
 482 165 482 165 512.5 254.5 c 128,-1,3
 543 344 543 344 574.5 449.5 c 128,-1,4
 606 555 606 555 631 664 c 128,-1,5
 656 773 656 773 672 879.5 c 128,-1,6
 688 986 688 986 688 1077 c 0,7,8
 688 1143 688 1143 678 1199 c 128,-1,9
 668 1255 668 1255 646.5 1295.5 c 128,-1,10
 625 1336 625 1336 590 1359 c 128,-1,11
 555 1382 555 1382 504 1382 c 0,12,13
 433 1382 433 1382 377.5 1353 c 128,-1,14
 322 1324 322 1324 280.5 1275.5 c 128,-1,15
 239 1227 239 1227 210.5 1165 c 128,-1,16
 182 1103 182 1103 164.5 1036 c 128,-1,17
 147 969 147 969 139 902.5 c 128,-1,18
 131 836 131 836 131 780 c 0,19,20
 131 718 131 718 140 648 c 128,-1,21
 149 578 149 578 171 511.5 c 128,-1,22
 193 445 193 445 229.5 387.5 c 128,-1,23
 266 330 266 330 322 293 c 1,24,-1
 275 254 l 1,25,26
 218 302 218 302 179 365.5 c 128,-1,27
 140 429 140 429 115.5 500.5 c 128,-1,28
 91 572 91 572 80.5 647 c 128,-1,29
 70 722 70 722 70 793 c 0,30,31
 70 861 70 861 80.5 936 c 128,-1,32
 91 1011 91 1011 113.5 1083 c 128,-1,33
 136 1155 136 1155 171.5 1220 c 128,-1,34
 207 1285 207 1285 256.5 1334.5 c 128,-1,35
 306 1384 306 1384 370.5 1413 c 128,-1,36
 435 1442 435 1442 516 1442 c 0,37,38
 618 1442 618 1442 686.5 1409 c 128,-1,39
 755 1376 755 1376 796.5 1319 c 128,-1,40
 838 1262 838 1262 855.5 1185.5 c 128,-1,41
 873 1109 873 1109 873 1022 c 0,42,43
 873 916 873 916 852 799 c 128,-1,44
 831 682 831 682 799 568.5 c 128,-1,45
 767 455 767 455 730 351.5 c 128,-1,46
 693 248 693 248 662 168 c 1,47,48
 811 247 811 247 923 337 c 128,-1,49
 1035 427 1035 427 1119 529 c 128,-1,50
 1203 631 1203 631 1263.5 744.5 c 128,-1,51
 1324 858 1324 858 1370 985 c 1,52,53
 1329 1005 1329 1005 1291 1032.5 c 128,-1,54
 1253 1060 1253 1060 1223 1095 c 128,-1,55
 1193 1130 1193 1130 1175 1172.5 c 128,-1,56
 1157 1215 1157 1215 1157 1264 c 0,57,58
 1157 1300 1157 1300 1170 1332.5 c 128,-1,59
 1183 1365 1183 1365 1206.5 1389 c 128,-1,60
 1230 1413 1230 1413 1262 1427.5 c 128,-1,61
 1294 1442 1294 1442 1332 1442 c 0,62,63
 1372 1442 1372 1442 1403 1426.5 c 128,-1,64
 1434 1411 1434 1411 1454 1385 c 128,-1,65
 1474 1359 1474 1359 1484.5 1325 c 128,-1,66
 1495 1291 1495 1291 1495 1253 c 0,67,68
 1495 1191 1495 1191 1485 1130.5 c 128,-1,69
 1475 1070 1475 1070 1458 1010 c 1,70,71
 1530 973 1530 973 1610 956 c 1,72,-1
 1592 909 l 1,73,74
 1553 919 1553 919 1516 928 c 128,-1,75
 1479 937 1479 937 1442 952 c 1,76,77
 1394 805 1394 805 1311 669.5 c 128,-1,78
 1228 534 1228 534 1109.5 413.5 c 128,-1,79
 991 293 991 293 837.5 188.5 c 128,-1,80
 684 84 684 84 494 0 c 1,81,-1
 412 0 l 1,0,1
1268 1255 m 0,82,83
 1268 1223 1268 1223 1278 1194 c 128,-1,84
 1288 1165 1288 1165 1305 1139 c 128,-1,85
 1322 1113 1322 1113 1344 1090 c 128,-1,86
 1366 1067 1366 1067 1391 1049 c 1,87,88
 1405 1098 1405 1098 1414.5 1149.5 c 128,-1,89
 1424 1201 1424 1201 1424 1253 c 0,90,91
 1424 1269 1424 1269 1420.5 1285.5 c 128,-1,92
 1417 1302 1417 1302 1409 1315.5 c 128,-1,93
 1401 1329 1401 1329 1388 1337.5 c 128,-1,94
 1375 1346 1375 1346 1356 1346 c 0,95,96
 1338 1346 1338 1346 1322 1338.5 c 128,-1,97
 1306 1331 1306 1331 1294 1318.5 c 128,-1,98
 1282 1306 1282 1306 1275 1289.5 c 128,-1,99
 1268 1273 1268 1273 1268 1255 c 0,82,83
EndSplineSet
Validated: 1
EndChar

StartChar: W
Encoding: 87 87 38
Width: 1992
GlyphClass: 2
Flags: W
LayerCount: 2
Fore
SplineSet
1171 0 m 1,0,1
 1178 34 1178 34 1192 102 c 128,-1,2
 1206 170 1206 170 1223.5 257.5 c 128,-1,3
 1241 345 1241 345 1260.5 446 c 128,-1,4
 1280 547 1280 547 1299 647 c 0,5,6
 1344 881 1344 881 1396 1157 c 1,7,8
 1328 1073 1328 1073 1246 959.5 c 128,-1,9
 1164 846 1164 846 1065 702 c 128,-1,10
 966 558 966 558 849.5 383 c 128,-1,11
 733 208 733 208 596 0 c 1,12,-1
 411 0 l 1,13,14
 428 32 428 32 454.5 98.5 c 128,-1,15
 481 165 481 165 512 254.5 c 128,-1,16
 543 344 543 344 574.5 449.5 c 128,-1,17
 606 555 606 555 631 664 c 128,-1,18
 656 773 656 773 672 879.5 c 128,-1,19
 688 986 688 986 688 1077 c 0,20,21
 688 1143 688 1143 678 1199 c 128,-1,22
 668 1255 668 1255 646.5 1295.5 c 128,-1,23
 625 1336 625 1336 589.5 1359 c 128,-1,24
 554 1382 554 1382 503 1382 c 0,25,26
 432 1382 432 1382 377 1353 c 128,-1,27
 322 1324 322 1324 280.5 1275.5 c 128,-1,28
 239 1227 239 1227 210.5 1165 c 128,-1,29
 182 1103 182 1103 164.5 1036 c 128,-1,30
 147 969 147 969 139 902.5 c 128,-1,31
 131 836 131 836 131 780 c 0,32,33
 131 718 131 718 140 648 c 128,-1,34
 149 578 149 578 171 511.5 c 128,-1,35
 193 445 193 445 229.5 387.5 c 128,-1,36
 266 330 266 330 321 293 c 1,37,-1
 274 254 l 1,38,39
 217 302 217 302 178 365.5 c 128,-1,40
 139 429 139 429 114.5 500.5 c 128,-1,41
 90 572 90 572 79.5 647 c 128,-1,42
 69 722 69 722 69 793 c 0,43,44
 69 861 69 861 79.5 936 c 128,-1,45
 90 1011 90 1011 113 1083 c 128,-1,46
 136 1155 136 1155 171 1220 c 128,-1,47
 206 1285 206 1285 256 1334.5 c 128,-1,48
 306 1384 306 1384 370.5 1413 c 128,-1,49
 435 1442 435 1442 516 1442 c 0,50,51
 617 1442 617 1442 685.5 1409 c 128,-1,52
 754 1376 754 1376 795.5 1319 c 128,-1,53
 837 1262 837 1262 854.5 1185.5 c 128,-1,54
 872 1109 872 1109 872 1022 c 0,55,56
 872 923 872 923 851 814.5 c 128,-1,57
 830 706 830 706 798 601 c 128,-1,58
 766 496 766 496 729 400 c 128,-1,59
 692 304 692 304 661 229 c 1,60,61
 774 419 774 419 866.5 567 c 128,-1,62
 959 715 959 715 1036 829.5 c 128,-1,63
 1113 944 1113 944 1176.5 1029 c 128,-1,64
 1240 1114 1240 1114 1295 1178 c 128,-1,65
 1350 1242 1350 1242 1398.5 1289 c 128,-1,66
 1447 1336 1447 1336 1493 1374 c 1,67,-1
 1564 1341 l 1,68,-1
 1384 168 l 1,69,70
 1503 247 1503 247 1590 337 c 128,-1,71
 1677 427 1677 427 1740 529 c 128,-1,72
 1803 631 1803 631 1846 744.5 c 128,-1,73
 1889 858 1889 858 1919 985 c 1,74,75
 1877 1005 1877 1005 1834.5 1034 c 128,-1,76
 1792 1063 1792 1063 1758 1100 c 128,-1,77
 1724 1137 1724 1137 1702.5 1181 c 128,-1,78
 1681 1225 1681 1225 1681 1276 c 0,79,80
 1681 1310 1681 1310 1692 1340 c 128,-1,81
 1703 1370 1703 1370 1723.5 1392.5 c 128,-1,82
 1744 1415 1744 1415 1773.5 1428.5 c 128,-1,83
 1803 1442 1803 1442 1839 1442 c 0,84,85
 1891 1442 1891 1442 1926 1419.5 c 128,-1,86
 1961 1397 1961 1397 1982 1361 c 128,-1,87
 2003 1325 2003 1325 2012 1279 c 128,-1,88
 2021 1233 2021 1233 2021 1186 c 0,89,90
 2021 1141 2021 1141 2017 1097 c 128,-1,91
 2013 1053 2013 1053 2005 1010 c 1,92,93
 2042 991 2042 991 2081 977.5 c 128,-1,94
 2120 964 2120 964 2160 956 c 1,95,-1
 2146 909 l 1,96,97
 2108 919 2108 919 2069 928 c 128,-1,98
 2030 937 2030 937 1992 952 c 1,99,100
 1961 805 1961 805 1899.5 669.5 c 128,-1,101
 1838 534 1838 534 1746 413.5 c 128,-1,102
 1654 293 1654 293 1530.5 188.5 c 128,-1,103
 1407 84 1407 84 1253 0 c 1,104,-1
 1171 0 l 1,0,1
1792 1255 m 1,105,106
 1795 1223 1795 1223 1807.5 1194 c 128,-1,107
 1820 1165 1820 1165 1839 1139 c 128,-1,108
 1858 1113 1858 1113 1882.5 1090 c 128,-1,109
 1907 1067 1907 1067 1933 1049 c 1,110,111
 1941 1086 1941 1086 1945 1124 c 128,-1,112
 1949 1162 1949 1162 1949 1202 c 0,113,114
 1949 1220 1949 1220 1948 1244.5 c 128,-1,115
 1947 1269 1947 1269 1940 1291.5 c 128,-1,116
 1933 1314 1933 1314 1917.5 1330 c 128,-1,117
 1902 1346 1902 1346 1874 1346 c 0,118,119
 1838 1346 1838 1346 1815 1321 c 128,-1,120
 1792 1296 1792 1296 1792 1262 c 2,121,-1
 1792 1255 l 1,105,106
EndSplineSet
Validated: 1
EndChar

StartChar: X
Encoding: 88 88 39
Width: 1571
GlyphClass: 2
Flags: W
LayerCount: 2
Fore
SplineSet
748 545 m 1,0,1
 709 398 709 398 648 290.5 c 128,-1,2
 587 183 587 183 509.5 113.5 c 128,-1,3
 432 44 432 44 340 10.5 c 128,-1,4
 248 -23 248 -23 146 -23 c 0,5,6
 102 -23 102 -23 70.5 -9.5 c 128,-1,7
 39 4 39 4 19 25.5 c 128,-1,8
 -1 47 -1 47 -10.5 74.5 c 128,-1,9
 -20 102 -20 102 -20 131 c 0,10,11
 -20 157 -20 157 -11.5 182 c 128,-1,12
 -3 207 -3 207 13.5 226 c 128,-1,13
 30 245 30 245 53.5 256.5 c 128,-1,14
 77 268 77 268 107 268 c 0,15,16
 164 268 164 268 196.5 247.5 c 128,-1,17
 229 227 229 227 246 196.5 c 128,-1,18
 263 166 263 166 269.5 131 c 128,-1,19
 276 96 276 96 281 66 c 1,20,21
 353 77 353 77 413 120 c 128,-1,22
 473 163 473 163 521 228 c 128,-1,23
 569 293 569 293 605 375.5 c 128,-1,24
 641 458 641 458 665 548.5 c 128,-1,25
 689 639 689 639 701 733 c 128,-1,26
 713 827 713 827 713 915 c 0,27,28
 713 1002 713 1002 700.5 1076 c 128,-1,29
 688 1150 688 1150 662.5 1204 c 128,-1,30
 637 1258 637 1258 598.5 1288.5 c 128,-1,31
 560 1319 560 1319 508 1319 c 0,32,33
 473 1319 473 1319 436.5 1301.5 c 128,-1,34
 400 1284 400 1284 364 1255 c 128,-1,35
 328 1226 328 1226 293.5 1189.5 c 128,-1,36
 259 1153 259 1153 228 1115 c 128,-1,37
 197 1077 197 1077 170 1040.5 c 128,-1,38
 143 1004 143 1004 123 977 c 1,39,-1
 70 1008 l 1,40,41
 101 1056 101 1056 135.5 1107 c 128,-1,42
 170 1158 170 1158 208.5 1206 c 128,-1,43
 247 1254 247 1254 290 1297 c 128,-1,44
 333 1340 333 1340 380.5 1372 c 128,-1,45
 428 1404 428 1404 480.5 1423 c 128,-1,46
 533 1442 533 1442 590 1442 c 0,47,48
 669 1442 669 1442 727 1393.5 c 128,-1,49
 785 1345 785 1345 823.5 1264.5 c 128,-1,50
 862 1184 862 1184 880.5 1080.5 c 128,-1,51
 899 977 899 977 899 866 c 1,52,53
 941 986 941 986 1004 1091 c 128,-1,54
 1067 1196 1067 1196 1147.5 1274 c 128,-1,55
 1228 1352 1228 1352 1324 1397 c 128,-1,56
 1420 1442 1420 1442 1528 1442 c 0,57,58
 1570 1442 1570 1442 1602.5 1429 c 128,-1,59
 1635 1416 1635 1416 1657 1395 c 128,-1,60
 1679 1374 1679 1374 1690.5 1346 c 128,-1,61
 1702 1318 1702 1318 1702 1288 c 0,62,63
 1702 1263 1702 1263 1695 1238 c 128,-1,64
 1688 1213 1688 1213 1672 1193.5 c 128,-1,65
 1656 1174 1656 1174 1629.5 1161.5 c 128,-1,66
 1603 1149 1603 1149 1563 1149 c 0,67,68
 1532 1149 1532 1149 1505 1162.5 c 128,-1,69
 1478 1176 1478 1176 1456.5 1201.5 c 128,-1,70
 1435 1227 1435 1227 1419.5 1262 c 128,-1,71
 1404 1297 1404 1297 1397 1341 c 1,72,73
 1330 1320 1330 1320 1269 1276.5 c 128,-1,74
 1208 1233 1208 1233 1154.5 1174 c 128,-1,75
 1101 1115 1101 1115 1057 1043.5 c 128,-1,76
 1013 972 1013 972 981.5 893.5 c 128,-1,77
 950 815 950 815 933 732 c 128,-1,78
 916 649 916 649 916 569 c 0,79,80
 916 458 916 458 932 370 c 128,-1,81
 948 282 948 282 978.5 220.5 c 128,-1,82
 1009 159 1009 159 1054 126.5 c 128,-1,83
 1099 94 1099 94 1157 94 c 0,84,85
 1196 94 1196 94 1239 116.5 c 128,-1,86
 1282 139 1282 139 1327 185.5 c 128,-1,87
 1372 232 1372 232 1418.5 303.5 c 128,-1,88
 1465 375 1465 375 1510 473 c 1,89,-1
 1553 436 l 1,90,91
 1524 334 1524 334 1474 249 c 128,-1,92
 1424 164 1424 164 1361.5 103.5 c 128,-1,93
 1299 43 1299 43 1229 9 c 128,-1,94
 1159 -25 1159 -25 1092 -25 c 0,95,96
 1024 -25 1024 -25 962.5 7 c 128,-1,97
 901 39 901 39 854 108 c 128,-1,98
 807 177 807 177 778.5 285 c 128,-1,99
 750 393 750 393 748 545 c 1,0,1
1288 733 m 1,100,-1
 1317 674 l 1,101,-1
 264 674 l 1,102,-1
 318 733 l 1,103,-1
 1288 733 l 1,100,-1
EndSplineSet
Validated: 5
EndChar

StartChar: Z
Encoding: 90 90 40
Width: 1841
GlyphClass: 2
Flags: W
LayerCount: 2
Fore
SplineSet
696 870 m 1,0,1
 667 843 667 843 628.5 822 c 128,-1,2
 590 801 590 801 546.5 786.5 c 128,-1,3
 503 772 503 772 456 764 c 128,-1,4
 409 756 409 756 362 756 c 0,5,6
 297 756 297 756 237.5 772 c 128,-1,7
 178 788 178 788 132 822.5 c 128,-1,8
 86 857 86 857 58.5 910.5 c 128,-1,9
 31 964 31 964 31 1040 c 0,10,11
 31 1121 31 1121 73 1194 c 128,-1,12
 115 1267 115 1267 195 1322 c 128,-1,13
 275 1377 275 1377 391 1409.5 c 128,-1,14
 507 1442 507 1442 655 1442 c 0,15,16
 757 1442 757 1442 841.5 1425.5 c 128,-1,17
 926 1409 926 1409 997 1382.5 c 128,-1,18
 1068 1356 1068 1356 1127.5 1322.5 c 128,-1,19
 1187 1289 1187 1289 1239.5 1255.5 c 128,-1,20
 1292 1222 1292 1222 1340.5 1191.5 c 128,-1,21
 1389 1161 1389 1161 1438 1141 c 1,22,23
 1472 1178 1472 1178 1512.5 1206.5 c 128,-1,24
 1553 1235 1553 1235 1595 1254.5 c 128,-1,25
 1637 1274 1637 1274 1679 1284 c 128,-1,26
 1721 1294 1721 1294 1759 1294 c 0,27,28
 1798 1294 1798 1294 1831 1284.5 c 128,-1,29
 1864 1275 1864 1275 1888.5 1256 c 128,-1,30
 1913 1237 1913 1237 1927 1208 c 128,-1,31
 1941 1179 1941 1179 1941 1141 c 0,32,33
 1941 1091 1941 1091 1909 1053 c 128,-1,34
 1877 1015 1877 1015 1824.5 989.5 c 128,-1,35
 1772 964 1772 964 1705.5 951 c 128,-1,36
 1639 938 1639 938 1571 938 c 0,37,38
 1537 938 1537 938 1504 940 c 128,-1,39
 1471 942 1471 942 1440 956 c 1,40,-1
 1069 344 l 1,41,42
 1105 312 1105 312 1159 271 c 128,-1,43
 1213 230 1213 230 1274 192.5 c 128,-1,44
 1335 155 1335 155 1396 129.5 c 128,-1,45
 1457 104 1457 104 1507 104 c 0,46,47
 1540 104 1540 104 1573 112.5 c 128,-1,48
 1606 121 1606 121 1634.5 143 c 128,-1,49
 1663 165 1663 165 1684.5 201 c 128,-1,50
 1706 237 1706 237 1716 293 c 1,51,-1
 1810 279 l 1,52,53
 1810 220 1810 220 1782 165.5 c 128,-1,54
 1754 111 1754 111 1702.5 69 c 128,-1,55
 1651 27 1651 27 1579 2 c 128,-1,56
 1507 -23 1507 -23 1419 -23 c 0,57,58
 1345 -23 1345 -23 1278 -4.5 c 128,-1,59
 1211 14 1211 14 1148.5 43 c 128,-1,60
 1086 72 1086 72 1027.5 107 c 128,-1,61
 969 142 969 142 911 174 c 1,62,63
 861 121 861 121 809.5 83.5 c 128,-1,64
 758 46 758 46 706.5 22.5 c 128,-1,65
 655 -1 655 -1 604.5 -12 c 128,-1,66
 554 -23 554 -23 506 -23 c 0,67,68
 419 -23 419 -23 356 -1 c 128,-1,69
 293 21 293 21 252.5 57.5 c 128,-1,70
 212 94 212 94 193 142 c 128,-1,71
 174 190 174 190 174 242 c 0,72,73
 174 301 174 301 198.5 359.5 c 128,-1,74
 223 418 223 418 269.5 464.5 c 128,-1,75
 316 511 316 511 383 540 c 128,-1,76
 450 569 450 569 535 569 c 0,77,78
 595 569 595 569 657.5 557 c 128,-1,79
 720 545 720 545 780.5 523.5 c 128,-1,80
 841 502 841 502 896 473 c 128,-1,81
 951 444 951 444 995 410 c 1,82,-1
 1348 987 l 1,83,84
 1242 1027 1242 1027 1165 1071.5 c 128,-1,85
 1088 1116 1088 1116 1027.5 1159.5 c 128,-1,86
 967 1203 967 1203 917 1242.5 c 128,-1,87
 867 1282 867 1282 814 1312 c 128,-1,88
 761 1342 761 1342 699.5 1360 c 128,-1,89
 638 1378 638 1378 555 1378 c 0,90,91
 451 1378 451 1378 372.5 1348 c 128,-1,92
 294 1318 294 1318 240.5 1270 c 128,-1,93
 187 1222 187 1222 160 1162.5 c 128,-1,94
 133 1103 133 1103 133 1044 c 0,95,96
 133 984 133 984 155 940.5 c 128,-1,97
 177 897 177 897 213.5 868 c 128,-1,98
 250 839 250 839 297 825 c 128,-1,99
 344 811 344 811 395 811 c 0,100,101
 463 811 463 811 528 835 c 128,-1,102
 593 859 593 859 641 907 c 1,103,-1
 696 870 l 1,0,1
1513 1100 m 1,104,105
 1555 1080 1555 1080 1600.5 1070.5 c 128,-1,106
 1646 1061 1646 1061 1690 1061 c 0,107,108
 1725 1061 1725 1061 1756.5 1067 c 128,-1,109
 1788 1073 1788 1073 1812 1084.5 c 128,-1,110
 1836 1096 1836 1096 1850 1113 c 128,-1,111
 1864 1130 1864 1130 1864 1151 c 0,112,113
 1864 1185 1864 1185 1839 1204 c 128,-1,114
 1814 1223 1814 1223 1772 1223 c 0,115,116
 1716 1223 1716 1223 1645.5 1191 c 128,-1,117
 1575 1159 1575 1159 1513 1100 c 1,104,105
838 225 m 1,118,119
 806 250 806 250 755 280.5 c 128,-1,120
 704 311 704 311 644.5 337.5 c 128,-1,121
 585 364 585 364 521 381.5 c 128,-1,122
 457 399 457 399 399 399 c 0,123,124
 361 399 361 399 331.5 386 c 128,-1,125
 302 373 302 373 282 351.5 c 128,-1,126
 262 330 262 330 251 302 c 128,-1,127
 240 274 240 274 240 244 c 0,128,129
 240 209 240 209 255 175 c 128,-1,130
 270 141 270 141 301 114 c 128,-1,131
 332 87 332 87 380 70 c 128,-1,132
 428 53 428 53 494 53 c 0,133,134
 574 53 574 53 662.5 92 c 128,-1,135
 751 131 751 131 838 225 c 1,118,119
EndSplineSet
Validated: 1
EndChar

StartChar: grave
Encoding: 96 96 41
Width: 512
GlyphClass: 2
Flags: W
LayerCount: 2
Fore
SplineSet
391 672 m 1,0,1
 375 688 375 688 353.5 709.5 c 128,-1,2
 332 731 332 731 307 755 c 128,-1,3
 282 779 282 779 255 805 c 128,-1,4
 228 831 228 831 203 855 c 0,5,6
 143 911 143 911 78 973 c 1,7,-1
 248 973 l 1,8,9
 256 960 256 960 270.5 937.5 c 128,-1,10
 285 915 285 915 303 887.5 c 128,-1,11
 321 860 321 860 341 829.5 c 128,-1,12
 361 799 361 799 380 769.5 c 128,-1,13
 399 740 399 740 416 714.5 c 128,-1,14
 433 689 433 689 444 672 c 1,15,-1
 391 672 l 1,0,1
EndSplineSet
Validated: 1
EndChar

StartChar: a
Encoding: 97 97 42
Width: 861
GlyphClass: 2
Flags: W
LayerCount: 2
Fore
SplineSet
575 -25 m 0,0,1
 549 -25 549 -25 531.5 -11.5 c 128,-1,2
 514 2 514 2 503.5 23 c 128,-1,3
 493 44 493 44 489 69 c 128,-1,4
 485 94 485 94 485 117 c 0,5,6
 485 126 485 126 485 134 c 128,-1,7
 485 142 485 142 487 150 c 1,8,9
 481 129 481 129 463 99.5 c 128,-1,10
 445 70 445 70 413.5 42.5 c 128,-1,11
 382 15 382 15 336 -4 c 128,-1,12
 290 -23 290 -23 229 -23 c 0,13,14
 181 -23 181 -23 139 -3 c 128,-1,15
 97 17 97 17 66.5 52 c 128,-1,16
 36 87 36 87 18.5 135.5 c 128,-1,17
 1 184 1 184 1 240 c 0,18,19
 1 319 1 319 31 386 c 128,-1,20
 61 453 61 453 110.5 501.5 c 128,-1,21
 160 550 160 550 224 577 c 128,-1,22
 288 604 288 604 356 604 c 0,23,24
 436 604 436 604 486.5 564.5 c 128,-1,25
 537 525 537 525 552 465 c 1,26,-1
 585 592 l 1,27,-1
 741 592 l 1,28,-1
 659 283 l 2,29,30
 656 272 656 272 652.5 255.5 c 128,-1,31
 649 239 649 239 645.5 220 c 128,-1,32
 642 201 642 201 640 182 c 128,-1,33
 638 163 638 163 638 147 c 0,34,35
 638 127 638 127 642 114.5 c 128,-1,36
 646 102 646 102 657 102 c 0,37,38
 673 102 673 102 692 120.5 c 128,-1,39
 711 139 711 139 728 162 c 0,40,41
 747 188 747 188 767 223 c 1,42,-1
 810 184 l 1,43,44
 801 164 801 164 778 129 c 128,-1,45
 755 94 755 94 722.5 59.5 c 128,-1,46
 690 25 690 25 652 0 c 128,-1,47
 614 -25 614 -25 575 -25 c 0,0,1
182 244 m 0,48,49
 182 165 182 165 212.5 119.5 c 128,-1,50
 243 74 243 74 306 74 c 0,51,52
 341 74 341 74 370 89 c 128,-1,53
 399 104 399 104 422.5 128.5 c 128,-1,54
 446 153 446 153 464 184.5 c 128,-1,55
 482 216 482 216 493.5 248.5 c 128,-1,56
 505 281 505 281 511 312.5 c 128,-1,57
 517 344 517 344 517 369 c 0,58,59
 517 437 517 437 488.5 477.5 c 128,-1,60
 460 518 460 518 395 518 c 0,61,62
 348 518 348 518 309 495 c 128,-1,63
 270 472 270 472 241.5 434 c 128,-1,64
 213 396 213 396 197.5 346.5 c 128,-1,65
 182 297 182 297 182 244 c 0,48,49
EndSplineSet
Validated: 1
EndChar

StartChar: b
Encoding: 98 98 43
Width: 748
GlyphClass: 2
Flags: W
LayerCount: 2
Fore
SplineSet
272 -23 m 0,0,1
 215 -23 215 -23 167.5 -6 c 128,-1,2
 120 11 120 11 85.5 41.5 c 128,-1,3
 51 72 51 72 31.5 114 c 128,-1,4
 12 156 12 156 12 207 c 0,5,6
 12 216 12 216 13 226.5 c 128,-1,7
 14 237 14 237 16 248 c 0,8,9
 28 330 28 330 48.5 426.5 c 128,-1,10
 69 523 69 523 97 625 c 128,-1,11
 125 727 125 727 158.5 829.5 c 128,-1,12
 192 932 192 932 230 1026 c 128,-1,13
 268 1120 268 1120 310 1200.5 c 128,-1,14
 352 1281 352 1281 397 1339 c 1,15,-1
 567 1339 l 1,16,17
 541 1310 541 1310 511 1256 c 128,-1,18
 481 1202 481 1202 449 1130.5 c 128,-1,19
 417 1059 417 1059 385 974.5 c 128,-1,20
 353 890 353 890 323 800.5 c 128,-1,21
 293 711 293 711 266 619.5 c 128,-1,22
 239 528 239 528 219 444 c 1,23,24
 241 473 241 473 268.5 502 c 128,-1,25
 296 531 296 531 330 553.5 c 128,-1,26
 364 576 364 576 404 590 c 128,-1,27
 444 604 444 604 491 604 c 0,28,29
 540 604 540 604 576.5 586 c 128,-1,30
 613 568 613 568 637.5 537.5 c 128,-1,31
 662 507 662 507 674 466.5 c 128,-1,32
 686 426 686 426 686 381 c 256,33,34
 686 336 686 336 674.5 288.5 c 128,-1,35
 663 241 663 241 640 196 c 128,-1,36
 617 151 617 151 582.5 111.5 c 128,-1,37
 548 72 548 72 502 42 c 128,-1,38
 456 12 456 12 398.5 -5.5 c 128,-1,39
 341 -23 341 -23 272 -23 c 0,0,1
188 248 m 1,40,41
 185 232 185 232 182.5 216 c 128,-1,42
 180 200 180 200 180 184 c 0,43,44
 180 157 180 157 186.5 130.5 c 128,-1,45
 193 104 193 104 207 84 c 128,-1,46
 221 64 221 64 242.5 51.5 c 128,-1,47
 264 39 264 39 295 39 c 0,48,49
 345 39 345 39 384 70 c 128,-1,50
 423 101 423 101 449.5 149 c 128,-1,51
 476 197 476 197 490 254.5 c 128,-1,52
 504 312 504 312 504 365 c 0,53,54
 504 397 504 397 498.5 425.5 c 128,-1,55
 493 454 493 454 482 475 c 128,-1,56
 471 496 471 496 454.5 508 c 128,-1,57
 438 520 438 520 416 520 c 0,58,59
 392 520 392 520 359.5 501.5 c 128,-1,60
 327 483 327 483 294.5 448 c 128,-1,61
 262 413 262 413 233.5 362.5 c 128,-1,62
 205 312 205 312 188 248 c 1,40,41
EndSplineSet
Validated: 1
EndChar

StartChar: c
Encoding: 99 99 44
Width: 671
GlyphClass: 2
Flags: W
LayerCount: 2
Fore
SplineSet
561 178 m 1,0,1
 538 130 538 130 502.5 92.5 c 128,-1,2
 467 55 467 55 423.5 29.5 c 128,-1,3
 380 4 380 4 332 -9.5 c 128,-1,4
 284 -23 284 -23 237 -23 c 0,5,6
 189 -23 189 -23 145.5 -9 c 128,-1,7
 102 5 102 5 69 35 c 128,-1,8
 36 65 36 65 16.5 111.5 c 128,-1,9
 -3 158 -3 158 -3 223 c 0,10,11
 -3 279 -3 279 15.5 329 c 128,-1,12
 34 379 34 379 66 421 c 128,-1,13
 98 463 98 463 141 497 c 128,-1,14
 184 531 184 531 233 555 c 128,-1,15
 282 579 282 579 334 591.5 c 128,-1,16
 386 604 386 604 436 604 c 0,17,18
 465 604 465 604 497.5 599 c 128,-1,19
 530 594 530 594 558 580.5 c 128,-1,20
 586 567 586 567 604 544.5 c 128,-1,21
 622 522 622 522 622 487 c 0,22,23
 622 445 622 445 596.5 421 c 128,-1,24
 571 397 571 397 536 397 c 0,25,26
 502 397 502 397 478 419.5 c 128,-1,27
 454 442 454 442 454 477 c 0,28,29
 454 497 454 497 466 512.5 c 128,-1,30
 478 528 478 528 497 541 c 1,31,32
 459 553 459 553 427 553 c 0,33,34
 373 553 373 553 327.5 523 c 128,-1,35
 282 493 282 493 250 446.5 c 128,-1,36
 218 400 218 400 200 343 c 128,-1,37
 182 286 182 286 182 233 c 0,38,39
 182 200 182 200 189.5 171 c 128,-1,40
 197 142 197 142 213.5 120.5 c 128,-1,41
 230 99 230 99 255.5 86.5 c 128,-1,42
 281 74 281 74 317 74 c 0,43,44
 345 74 345 74 375 83.5 c 128,-1,45
 405 93 405 93 432.5 110.5 c 128,-1,46
 460 128 460 128 482.5 152.5 c 128,-1,47
 505 177 505 177 520 207 c 1,48,-1
 561 178 l 1,0,1
EndSplineSet
Validated: 1
EndChar

StartChar: d
Encoding: 100 100 45
Width: 861
GlyphClass: 2
Flags: W
LayerCount: 2
Fore
SplineSet
794 176 m 1,0,1
 762 119 762 119 728.5 80.5 c 128,-1,2
 695 42 695 42 664.5 18.5 c 128,-1,3
 634 -5 634 -5 608 -15 c 128,-1,4
 582 -25 582 -25 566 -25 c 0,5,6
 518 -25 518 -25 494 15.5 c 128,-1,7
 470 56 470 56 470 127 c 1,8,9
 413 46 413 46 347.5 11.5 c 128,-1,10
 282 -23 282 -23 208 -23 c 0,11,12
 160 -23 160 -23 117 -4 c 128,-1,13
 74 15 74 15 42.5 49 c 128,-1,14
 11 83 11 83 -7.5 131 c 128,-1,15
 -26 179 -26 179 -26 238 c 0,16,17
 -26 314 -26 314 5.5 381 c 128,-1,18
 37 448 37 448 88 497.5 c 128,-1,19
 139 547 139 547 204 575.5 c 128,-1,20
 269 604 269 604 337 604 c 0,21,22
 409 604 409 604 460.5 575.5 c 128,-1,23
 512 547 512 547 527 498 c 1,24,25
 541 560 541 560 560.5 631.5 c 128,-1,26
 580 703 580 703 604.5 779 c 128,-1,27
 629 855 629 855 658 932.5 c 128,-1,28
 687 1010 687 1010 719 1083 c 128,-1,29
 751 1156 751 1156 786.5 1221.5 c 128,-1,30
 822 1287 822 1287 859 1339 c 1,31,-1
 1029 1339 l 1,32,33
 998 1304 998 1304 964 1239.5 c 128,-1,34
 930 1175 930 1175 896 1092.5 c 128,-1,35
 862 1010 862 1010 828.5 914 c 128,-1,36
 795 818 795 818 765 720.5 c 128,-1,37
 735 623 735 623 709.5 529 c 128,-1,38
 684 435 684 435 665.5 356 c 128,-1,39
 647 277 647 277 636.5 218 c 128,-1,40
 626 159 626 159 626 131 c 0,41,42
 626 102 626 102 644 102 c 0,43,44
 654 102 654 102 667 111 c 128,-1,45
 680 120 680 120 694.5 135 c 128,-1,46
 709 150 709 150 724 170 c 128,-1,47
 739 190 739 190 753 211 c 1,48,-1
 794 176 l 1,0,1
155 244 m 0,49,50
 155 215 155 215 159.5 185 c 128,-1,51
 164 155 164 155 177.5 131 c 128,-1,52
 191 107 191 107 215.5 91.5 c 128,-1,53
 240 76 240 76 279 76 c 256,54,55
 318 76 318 76 350 93 c 128,-1,56
 382 110 382 110 407 137 c 128,-1,57
 432 164 432 164 450.5 197 c 128,-1,58
 469 230 469 230 481 261 c 128,-1,59
 493 292 493 292 499 317.5 c 128,-1,60
 505 343 505 343 505 356 c 0,61,62
 505 444 505 444 473 481 c 128,-1,63
 441 518 441 518 382 518 c 0,64,65
 345 518 345 518 305 500 c 128,-1,66
 265 482 265 482 231.5 447 c 128,-1,67
 198 412 198 412 176.5 361 c 128,-1,68
 155 310 155 310 155 244 c 0,49,50
EndSplineSet
Validated: 1
EndChar

StartChar: e
Encoding: 101 101 46
Width: 705
GlyphClass: 2
Flags: W
LayerCount: 2
Fore
SplineSet
-3 233 m 0,0,1
 -3 311 -3 311 34 379 c 128,-1,2
 71 447 71 447 130.5 497 c 128,-1,3
 190 547 190 547 263.5 575.5 c 128,-1,4
 337 604 337 604 409 604 c 0,5,6
 449 604 449 604 488.5 594 c 128,-1,7
 528 584 528 584 560 564.5 c 128,-1,8
 592 545 592 545 612 515 c 128,-1,9
 632 485 632 485 634 446 c 1,10,11
 634 398 634 398 613.5 360.5 c 128,-1,12
 593 323 593 323 559.5 295.5 c 128,-1,13
 526 268 526 268 482.5 248.5 c 128,-1,14
 439 229 439 229 393.5 217.5 c 128,-1,15
 348 206 348 206 304 200.5 c 128,-1,16
 260 195 260 195 225 195 c 0,17,18
 214 195 214 195 205 196 c 128,-1,19
 196 197 196 197 182 197 c 1,20,21
 184 159 184 159 201.5 136.5 c 128,-1,22
 219 114 219 114 242.5 102 c 128,-1,23
 266 90 266 90 292 86 c 128,-1,24
 318 82 318 82 337 82 c 0,25,26
 365 82 365 82 395 91 c 128,-1,27
 425 100 425 100 453 114.5 c 128,-1,28
 481 129 481 129 505.5 148 c 128,-1,29
 530 167 530 167 548 188 c 1,30,-1
 591 160 l 1,31,32
 556 99 556 99 510 63 c 128,-1,33
 464 27 464 27 416 8 c 128,-1,34
 368 -11 368 -11 324 -17 c 128,-1,35
 280 -23 280 -23 249 -23 c 0,36,37
 195 -23 195 -23 148.5 -3.5 c 128,-1,38
 102 16 102 16 68.5 50 c 128,-1,39
 35 84 35 84 16 131 c 128,-1,40
 -3 178 -3 178 -3 233 c 0,0,1
176 252 m 1,41,42
 227 254 227 254 280.5 264.5 c 128,-1,43
 334 275 334 275 377 298 c 128,-1,44
 420 321 420 321 447.5 359 c 128,-1,45
 475 397 475 397 475 455 c 0,46,47
 475 473 475 473 468 487.5 c 128,-1,48
 461 502 461 502 450.5 512 c 128,-1,49
 440 522 440 522 427.5 527 c 128,-1,50
 415 532 415 532 403 532 c 0,51,52
 352 532 352 532 310.5 506 c 128,-1,53
 269 480 269 480 239 439 c 128,-1,54
 209 398 209 398 192.5 348.5 c 128,-1,55
 176 299 176 299 176 252 c 1,41,42
EndSplineSet
Validated: 1
EndChar

StartChar: f
Encoding: 102 102 47
Width: 797
GlyphClass: 2
Flags: W
LayerCount: 2
Fore
SplineSet
340 414 m 2,0,1
 318 322 318 322 296 234.5 c 128,-1,2
 274 147 274 147 248 69.5 c 128,-1,3
 222 -8 222 -8 189.5 -73 c 128,-1,4
 157 -138 157 -138 114 -185 c 128,-1,5
 71 -232 71 -232 16 -258.5 c 128,-1,6
 -39 -285 -39 -285 -111 -285 c 0,7,8
 -160 -285 -160 -285 -181.5 -262 c 128,-1,9
 -203 -239 -203 -239 -203 -211 c 256,10,11
 -203 -183 -203 -183 -183.5 -160 c 128,-1,12
 -164 -137 -164 -137 -129 -137 c 0,13,14
 -103 -137 -103 -137 -82.5 -150.5 c 128,-1,15
 -62 -164 -62 -164 -62 -188 c 0,16,17
 -62 -196 -62 -196 -66.5 -212 c 128,-1,18
 -71 -228 -71 -228 -76 -236 c 1,19,20
 -42 -231 -42 -231 -15 -195.5 c 128,-1,21
 12 -160 12 -160 34.5 -105.5 c 128,-1,22
 57 -51 57 -51 75 17 c 128,-1,23
 93 85 93 85 108.5 155.5 c 128,-1,24
 124 226 124 226 137.5 293.5 c 128,-1,25
 151 361 151 361 164 414 c 2,26,-1
 188 516 l 1,27,-1
 0 516 l 1,28,-1
 16 582 l 1,29,-1
 202 582 l 1,30,31
 231 698 231 698 263.5 805 c 128,-1,32
 296 912 296 912 335 1004 c 128,-1,33
 374 1096 374 1096 420.5 1171.5 c 128,-1,34
 467 1247 467 1247 524 1300.5 c 128,-1,35
 581 1354 581 1354 649.5 1383.5 c 128,-1,36
 718 1413 718 1413 800 1413 c 0,37,38
 836 1413 836 1413 871.5 1406.5 c 128,-1,39
 907 1400 907 1400 935.5 1383 c 128,-1,40
 964 1366 964 1366 981.5 1337.5 c 128,-1,41
 999 1309 999 1309 999 1266 c 0,42,43
 999 1242 999 1242 990 1223.5 c 128,-1,44
 981 1205 981 1205 966 1192.5 c 128,-1,45
 951 1180 951 1180 932 1173.5 c 128,-1,46
 913 1167 913 1167 893 1167 c 256,47,48
 873 1167 873 1167 855 1173 c 128,-1,49
 837 1179 837 1179 823 1190.5 c 128,-1,50
 809 1202 809 1202 800.5 1219.5 c 128,-1,51
 792 1237 792 1237 792 1260 c 0,52,53
 792 1294 792 1294 819 1331 c 1,54,55
 802 1337 802 1337 786.5 1342.5 c 128,-1,56
 771 1348 771 1348 755 1348 c 0,57,58
 711 1348 711 1348 674.5 1319 c 128,-1,59
 638 1290 638 1290 608 1248 c 128,-1,60
 578 1206 578 1206 556 1158.5 c 128,-1,61
 534 1111 534 1111 520 1073 c 0,62,63
 477 956 477 956 442.5 831.5 c 128,-1,64
 408 707 408 707 379 582 c 1,65,-1
 618 582 l 1,66,-1
 602 516 l 1,67,-1
 364 516 l 1,68,-1
 340 414 l 2,0,1
EndSplineSet
Validated: 1
EndChar

StartChar: g
Encoding: 103 103 48
Width: 733
GlyphClass: 2
Flags: W
LayerCount: 2
Fore
SplineSet
-107 -248 m 0,0,1
 -107 -222 -107 -222 -91.5 -203.5 c 128,-1,2
 -76 -185 -76 -185 -56 -172 c 0,3,4
 -33 -157 -33 -157 -4 -147 c 1,5,6
 -16 -138 -16 -138 -26 -128 c 0,7,8
 -34 -120 -34 -120 -40.5 -109.5 c 128,-1,9
 -47 -99 -47 -99 -47 -88 c 0,10,11
 -47 -73 -47 -73 -41 -59 c 128,-1,12
 -35 -45 -35 -45 -23 -37 c 1,13,-1
 98 82 l 1,14,15
 45 127 45 127 18.5 177.5 c 128,-1,16
 -8 228 -8 228 -8 293 c 0,17,18
 -8 357 -8 357 22.5 415 c 128,-1,19
 53 473 53 473 102.5 516 c 128,-1,20
 152 559 152 559 216 584.5 c 128,-1,21
 280 610 280 610 348 610 c 0,22,23
 360 610 360 610 371.5 610 c 128,-1,24
 383 610 383 610 395 608 c 1,25,26
 399 642 399 642 417 679 c 128,-1,27
 435 716 435 716 465.5 747 c 128,-1,28
 496 778 496 778 538 798.5 c 128,-1,29
 580 819 580 819 631 819 c 256,30,31
 682 819 682 819 709.5 797.5 c 128,-1,32
 737 776 737 776 737 729 c 0,33,34
 737 687 737 687 713.5 666 c 128,-1,35
 690 645 690 645 659 645 c 0,36,37
 631 645 631 645 607 663.5 c 128,-1,38
 583 682 583 682 573 717 c 1,39,40
 541 708 541 708 516 694 c 128,-1,41
 491 680 491 680 474 663.5 c 128,-1,42
 457 647 457 647 448.5 630.5 c 128,-1,43
 440 614 440 614 440 602 c 1,44,45
 481 587 481 587 515 561 c 128,-1,46
 549 535 549 535 573 501.5 c 128,-1,47
 597 468 597 468 610.5 430.5 c 128,-1,48
 624 393 624 393 624 356 c 0,49,50
 624 288 624 288 594.5 230 c 128,-1,51
 565 172 565 172 517 129 c 128,-1,52
 469 86 469 86 407.5 61.5 c 128,-1,53
 346 37 346 37 282 37 c 0,54,55
 234 37 234 37 202 42 c 128,-1,56
 170 47 170 47 139 59 c 1,57,58
 122 44 122 44 109 32 c 0,59,60
 98 21 98 21 89 10 c 128,-1,61
 80 -1 80 -1 80 -8 c 0,62,63
 80 -17 80 -17 85.5 -22.5 c 128,-1,64
 91 -28 91 -28 98.5 -32 c 128,-1,65
 106 -36 106 -36 114.5 -37.5 c 128,-1,66
 123 -39 123 -39 129 -39 c 2,67,-1
 327 -47 l 2,68,69
 427 -52 427 -52 484.5 -80 c 128,-1,70
 542 -108 542 -108 542 -162 c 0,71,72
 542 -220 542 -220 510.5 -259.5 c 128,-1,73
 479 -299 479 -299 426.5 -323 c 128,-1,74
 374 -347 374 -347 306.5 -357 c 128,-1,75
 239 -367 239 -367 166 -367 c 0,76,77
 147 -367 147 -367 119.5 -365 c 128,-1,78
 92 -363 92 -363 61.5 -358 c 128,-1,79
 31 -353 31 -353 1 -344.5 c 128,-1,80
 -29 -336 -29 -336 -53 -322.5 c 128,-1,81
 -77 -309 -77 -309 -92 -291 c 128,-1,82
 -107 -273 -107 -273 -107 -248 c 0,0,1
0 -244 m 0,83,84
 0 -265 0 -265 14 -277.5 c 128,-1,85
 28 -290 28 -290 52.5 -297 c 128,-1,86
 77 -304 77 -304 110.5 -306.5 c 128,-1,87
 144 -309 144 -309 182 -309 c 0,88,89
 211 -309 211 -309 249.5 -306.5 c 128,-1,90
 288 -304 288 -304 322.5 -295.5 c 128,-1,91
 357 -287 357 -287 381 -272 c 128,-1,92
 405 -257 405 -257 405 -231 c 0,93,94
 405 -213 405 -213 379 -200 c 128,-1,95
 353 -187 353 -187 307.5 -179 c 128,-1,96
 262 -171 262 -171 199 -167.5 c 128,-1,97
 136 -164 136 -164 61 -164 c 0,98,99
 47 -164 47 -164 36 -172.5 c 128,-1,100
 25 -181 25 -181 17 -193.5 c 128,-1,101
 9 -206 9 -206 4.5 -220 c 128,-1,102
 0 -234 0 -234 0 -244 c 0,83,84
166 287 m 0,103,104
 166 258 166 258 170.5 224.5 c 128,-1,105
 175 191 175 191 188 162.5 c 128,-1,106
 201 134 201 134 224 115 c 128,-1,107
 247 96 247 96 284 96 c 0,108,109
 333 96 333 96 367 122.5 c 128,-1,110
 401 149 401 149 421 189.5 c 128,-1,111
 441 230 441 230 450 278 c 128,-1,112
 459 326 459 326 459 369 c 0,113,114
 459 392 459 392 452.5 422 c 128,-1,115
 446 452 446 452 432 479 c 128,-1,116
 418 506 418 506 397 524.5 c 128,-1,117
 376 543 376 543 348 543 c 0,118,119
 301 543 301 543 267 517.5 c 128,-1,120
 233 492 233 492 210.5 454 c 128,-1,121
 188 416 188 416 177 371 c 128,-1,122
 166 326 166 326 166 287 c 0,103,104
EndSplineSet
Validated: 1
EndChar

StartChar: h
Encoding: 104 104 49
Width: 780
GlyphClass: 2
Flags: W
LayerCount: 2
Fore
SplineSet
572 1339 m 1,0,1
 515 1282 515 1282 464 1179 c 128,-1,2
 413 1076 413 1076 365.5 933 c 128,-1,3
 318 790 318 790 271.5 610 c 128,-1,4
 225 430 225 430 177 219 c 1,5,6
 196 252 196 252 220 293.5 c 128,-1,7
 244 335 244 335 272 378 c 128,-1,8
 300 421 300 421 331.5 461.5 c 128,-1,9
 363 502 363 502 399 533.5 c 128,-1,10
 435 565 435 565 474.5 584.5 c 128,-1,11
 514 604 514 604 558 604 c 0,12,13
 595 604 595 604 619.5 594.5 c 128,-1,14
 644 585 644 585 658.5 569 c 128,-1,15
 673 553 673 553 679 532 c 128,-1,16
 685 511 685 511 685 489 c 0,17,18
 685 448 685 448 669 397.5 c 128,-1,19
 653 347 653 347 633.5 297.5 c 128,-1,20
 614 248 614 248 598 204 c 128,-1,21
 582 160 582 160 582 131 c 0,22,23
 582 106 582 106 601 106 c 0,24,25
 617 106 617 106 633.5 120.5 c 128,-1,26
 650 135 650 135 664 153.5 c 128,-1,27
 678 172 678 172 689.5 189 c 128,-1,28
 701 206 701 206 707 211 c 1,29,-1
 748 176 l 1,30,31
 713 117 713 117 679 78 c 128,-1,32
 645 39 645 39 611.5 16 c 128,-1,33
 578 -7 578 -7 545 -16 c 128,-1,34
 512 -25 512 -25 480 -25 c 0,35,36
 464 -25 464 -25 452 -17.5 c 128,-1,37
 440 -10 440 -10 431.5 1.5 c 128,-1,38
 423 13 423 13 419 27.5 c 128,-1,39
 415 42 415 42 415 57 c 0,40,41
 418 104 418 104 434 151 c 128,-1,42
 450 198 450 198 468 245.5 c 128,-1,43
 486 293 486 293 500.5 340 c 128,-1,44
 515 387 515 387 515 434 c 0,45,46
 515 457 515 457 506.5 465 c 128,-1,47
 498 473 498 473 482 473 c 0,48,49
 450 473 450 473 412 438 c 128,-1,50
 374 403 374 403 335 350.5 c 128,-1,51
 296 298 296 298 259 236.5 c 128,-1,52
 222 175 222 175 193.5 122.5 c 128,-1,53
 165 70 165 70 147 35 c 128,-1,54
 129 0 129 0 128 0 c 2,55,-1
 -16 0 l 1,56,57
 -7 66 -7 66 5.5 149 c 128,-1,58
 18 232 18 232 35.5 325.5 c 128,-1,59
 53 419 53 419 76 520 c 128,-1,60
 99 621 99 621 128.5 721 c 128,-1,61
 158 821 158 821 194.5 917.5 c 128,-1,62
 231 1014 231 1014 276.5 1099 c 128,-1,63
 322 1184 322 1184 376.5 1254.5 c 128,-1,64
 431 1325 431 1325 496 1374 c 1,65,-1
 572 1339 l 1,0,1
EndSplineSet
Validated: 1
EndChar

StartChar: i
Encoding: 105 105 50
Width: 438
GlyphClass: 2
Flags: W
LayerCount: 2
Fore
SplineSet
53 66 m 0,0,1
 54 95 54 95 61 130.5 c 128,-1,2
 68 166 68 166 78.5 202.5 c 128,-1,3
 89 239 89 239 101 275 c 128,-1,4
 113 311 113 311 123 341.5 c 128,-1,5
 133 372 133 372 139.5 394.5 c 128,-1,6
 146 417 146 417 147 428 c 1,7,8
 147 444 147 444 144 449.5 c 128,-1,9
 141 455 141 455 133 455 c 0,10,11
 121 455 121 455 107 442 c 128,-1,12
 93 429 93 429 78 409 c 128,-1,13
 63 389 63 389 48 364.5 c 128,-1,14
 33 340 33 340 20 317 c 1,15,-1
 -47 356 l 1,16,17
 -5 428 -5 428 33 475.5 c 128,-1,18
 71 523 71 523 104.5 551.5 c 128,-1,19
 138 580 138 580 167.5 592 c 128,-1,20
 197 604 197 604 223 604 c 0,21,22
 248 604 248 604 264.5 595.5 c 128,-1,23
 281 587 281 587 290.5 572.5 c 128,-1,24
 300 558 300 558 303.5 538.5 c 128,-1,25
 307 519 307 519 307 498 c 0,26,27
 307 473 307 473 300 446 c 128,-1,28
 293 419 293 419 287 399 c 2,29,-1
 215 193 l 2,30,31
 209 174 209 174 205 161 c 128,-1,32
 201 148 201 148 201 137 c 0,33,34
 201 122 201 122 203.5 115.5 c 128,-1,35
 206 109 206 109 217 109 c 0,36,37
 229 109 229 109 243 117.5 c 128,-1,38
 257 126 257 126 268 141 c 2,39,-1
 322 211 l 1,40,-1
 363 176 l 1,41,42
 334 122 334 122 301.5 83.5 c 128,-1,43
 269 45 269 45 237.5 21 c 128,-1,44
 206 -3 206 -3 178.5 -14 c 128,-1,45
 151 -25 151 -25 131 -25 c 256,46,47
 111 -25 111 -25 96.5 -16.5 c 128,-1,48
 82 -8 82 -8 72 5.5 c 128,-1,49
 62 19 62 19 57.5 35 c 128,-1,50
 53 51 53 51 53 66 c 0,0,1
326 793 m 0,51,52
 303 793 303 793 286 801 c 128,-1,53
 269 809 269 809 258 822.5 c 128,-1,54
 247 836 247 836 241.5 852.5 c 128,-1,55
 236 869 236 869 236 887 c 0,56,57
 236 908 236 908 242.5 927.5 c 128,-1,58
 249 947 249 947 262.5 962.5 c 128,-1,59
 276 978 276 978 296.5 987.5 c 128,-1,60
 317 997 317 997 344 997 c 0,61,62
 365 997 365 997 380.5 989 c 128,-1,63
 396 981 396 981 406.5 967.5 c 128,-1,64
 417 954 417 954 422.5 936.5 c 128,-1,65
 428 919 428 919 428 901 c 0,66,67
 428 882 428 882 422 862.5 c 128,-1,68
 416 843 416 843 403 827.5 c 128,-1,69
 390 812 390 812 371 802.5 c 128,-1,70
 352 793 352 793 326 793 c 0,51,52
EndSplineSet
Validated: 1
EndChar

StartChar: j
Encoding: 106 106 51
Width: 439
GlyphClass: 2
Flags: W
LayerCount: 2
Fore
SplineSet
328 399 m 0,0,1
 304 329 304 329 283 259 c 128,-1,2
 262 189 262 189 239 124 c 128,-1,3
 216 59 216 59 189.5 2.5 c 128,-1,4
 163 -54 163 -54 128 -96 c 128,-1,5
 93 -138 93 -138 48.5 -162 c 128,-1,6
 4 -186 4 -186 -55 -186 c 0,7,8
 -90 -186 -90 -186 -114 -178.5 c 128,-1,9
 -138 -171 -138 -171 -154 -158.5 c 128,-1,10
 -170 -146 -170 -146 -177 -130.5 c 128,-1,11
 -184 -115 -184 -115 -184 -100 c 0,12,13
 -184 -74 -184 -74 -166 -54.5 c 128,-1,14
 -148 -35 -148 -35 -117 -35 c 0,15,16
 -83 -35 -83 -35 -68 -51 c 128,-1,17
 -53 -67 -53 -67 -53 -90 c 0,18,19
 -53 -110 -53 -110 -63 -133 c 1,20,21
 -30 -129 -30 -129 -6 -107 c 128,-1,22
 18 -85 18 -85 36 -50.5 c 128,-1,23
 54 -16 54 -16 68.5 30 c 128,-1,24
 83 76 83 76 98 129 c 0,25,26
 117 195 117 195 140.5 267.5 c 128,-1,27
 164 340 164 340 188 422 c 1,28,29
 188 433 188 433 185 444 c 128,-1,30
 182 455 182 455 174 455 c 0,31,32
 162 455 162 455 148 442 c 128,-1,33
 134 429 134 429 119 409 c 128,-1,34
 104 389 104 389 89 364.5 c 128,-1,35
 74 340 74 340 61 317 c 1,36,-1
 -6 356 l 1,37,38
 36 428 36 428 74 475.5 c 128,-1,39
 112 523 112 523 145.5 551.5 c 128,-1,40
 179 580 179 580 208.5 592 c 128,-1,41
 238 604 238 604 264 604 c 0,42,43
 288 604 288 604 304 596 c 128,-1,44
 320 588 320 588 330 575 c 128,-1,45
 340 562 340 562 344 544.5 c 128,-1,46
 348 527 348 527 348 508 c 0,47,48
 348 480 348 480 342 451 c 128,-1,49
 336 422 336 422 328 399 c 0,0,1
367 793 m 0,50,51
 344 793 344 793 327 801 c 128,-1,52
 310 809 310 809 299 822.5 c 128,-1,53
 288 836 288 836 282.5 852.5 c 128,-1,54
 277 869 277 869 277 887 c 0,55,56
 277 908 277 908 283.5 927.5 c 128,-1,57
 290 947 290 947 303.5 962.5 c 128,-1,58
 317 978 317 978 337.5 987.5 c 128,-1,59
 358 997 358 997 385 997 c 0,60,61
 406 997 406 997 421.5 989 c 128,-1,62
 437 981 437 981 447.5 967.5 c 128,-1,63
 458 954 458 954 463.5 936.5 c 128,-1,64
 469 919 469 919 469 901 c 0,65,66
 469 882 469 882 463 862.5 c 128,-1,67
 457 843 457 843 444 827.5 c 128,-1,68
 431 812 431 812 412 802.5 c 128,-1,69
 393 793 393 793 367 793 c 0,50,51
EndSplineSet
Validated: 1
EndChar

StartChar: k
Encoding: 107 107 52
Width: 831
GlyphClass: 2
Flags: W
LayerCount: 2
Fore
SplineSet
276 1081 m 0,0,1
 310 1156 310 1156 358 1218.5 c 128,-1,2
 406 1281 406 1281 463.5 1326 c 128,-1,3
 521 1371 521 1371 585.5 1396 c 128,-1,4
 650 1421 650 1421 719 1421 c 0,5,6
 754 1421 754 1421 789 1412 c 128,-1,7
 824 1403 824 1403 851.5 1384 c 128,-1,8
 879 1365 879 1365 896 1334 c 128,-1,9
 913 1303 913 1303 913 1260 c 0,10,11
 913 1235 913 1235 904 1216.5 c 128,-1,12
 895 1198 895 1198 880 1185.5 c 128,-1,13
 865 1173 865 1173 846 1167 c 128,-1,14
 827 1161 827 1161 807 1161 c 256,15,16
 787 1161 787 1161 769 1167 c 128,-1,17
 751 1173 751 1173 737 1184.5 c 128,-1,18
 723 1196 723 1196 714.5 1213 c 128,-1,19
 706 1230 706 1230 706 1253 c 0,20,21
 706 1270 706 1270 712.5 1287.5 c 128,-1,22
 719 1305 719 1305 733 1325 c 1,23,24
 717 1333 717 1333 703 1337 c 128,-1,25
 689 1341 689 1341 674 1341 c 0,26,27
 632 1341 632 1341 593 1314 c 128,-1,28
 554 1287 554 1287 520.5 1247.5 c 128,-1,29
 487 1208 487 1208 460.5 1162.5 c 128,-1,30
 434 1117 434 1117 418 1081 c 0,31,32
 403 1049 403 1049 383.5 991.5 c 128,-1,33
 364 934 364 934 342 861 c 128,-1,34
 320 788 320 788 296.5 703 c 128,-1,35
 273 618 273 618 250.5 531.5 c 128,-1,36
 228 445 228 445 208 361.5 c 128,-1,37
 188 278 188 278 173 207 c 128,-1,38
 158 136 158 136 149.5 82 c 128,-1,39
 141 28 141 28 141 0 c 1,40,-1
 -17 0 l 1,41,42
 -17 59 -17 59 -4 143.5 c 128,-1,43
 9 228 9 228 31 325 c 128,-1,44
 53 422 53 422 82 526.5 c 128,-1,45
 111 631 111 631 143.5 731 c 128,-1,46
 176 831 176 831 210 921.5 c 128,-1,47
 244 1012 244 1012 276 1081 c 0,0,1
428 37 m 1,48,49
 387 104 387 104 358.5 151.5 c 128,-1,50
 330 199 330 199 311 231.5 c 128,-1,51
 292 264 292 264 281 284.5 c 128,-1,52
 270 305 270 305 264.5 317 c 128,-1,53
 259 329 259 329 257 335 c 128,-1,54
 255 341 255 341 254 346 c 1,55,56
 260 351 260 351 284.5 378 c 128,-1,57
 309 405 309 405 346 442 c 128,-1,58
 383 479 383 479 430.5 521 c 128,-1,59
 478 563 478 563 529 598 c 128,-1,60
 580 633 580 633 631.5 656.5 c 128,-1,61
 683 680 683 680 729 680 c 0,62,63
 744 680 744 680 766 676 c 128,-1,64
 788 672 788 672 808.5 661.5 c 128,-1,65
 829 651 829 651 843.5 632 c 128,-1,66
 858 613 858 613 858 584 c 0,67,68
 858 568 858 568 853 551 c 128,-1,69
 848 534 848 534 837 520.5 c 128,-1,70
 826 507 826 507 808 498 c 128,-1,71
 790 489 790 489 764 489 c 0,72,73
 732 489 732 489 714 501.5 c 128,-1,74
 696 514 696 514 687 529 c 0,75,76
 676 547 676 547 674 569 c 1,77,78
 608 534 608 534 559 502 c 128,-1,79
 510 470 510 470 474.5 443 c 128,-1,80
 439 416 439 416 415 394.5 c 128,-1,81
 391 373 391 373 373 358 c 1,82,83
 382 349 382 349 408 321 c 0,84,85
 429 297 429 297 468.5 249.5 c 128,-1,86
 508 202 508 202 573 121 c 0,87,88
 581 112 581 112 590.5 105 c 128,-1,89
 600 98 600 98 608 98 c 0,90,91
 631 98 631 98 660 126.5 c 128,-1,92
 689 155 689 155 737 211 c 1,93,-1
 778 176 l 1,94,95
 760 143 760 143 733 107.5 c 128,-1,96
 706 72 706 72 673.5 42.5 c 128,-1,97
 641 13 641 13 603.5 -6 c 128,-1,98
 566 -25 566 -25 526 -25 c 0,99,100
 492 -25 492 -25 469 -11 c 128,-1,101
 446 3 446 3 428 37 c 1,48,49
EndSplineSet
Validated: 1
EndChar

StartChar: l
Encoding: 108 108 53
Width: 394
GlyphClass: 2
Flags: W
LayerCount: 2
Fore
SplineSet
501 1350 m 1,0,1
 486 1321 486 1321 464 1261 c 128,-1,2
 442 1201 442 1201 415.5 1121 c 128,-1,3
 389 1041 389 1041 360.5 946.5 c 128,-1,4
 332 852 332 852 305 755 c 128,-1,5
 278 658 278 658 253 564 c 128,-1,6
 228 470 228 470 209.5 390 c 128,-1,7
 191 310 191 310 180 249.5 c 128,-1,8
 169 189 169 189 169 160 c 0,9,10
 169 117 169 117 183 117 c 0,11,12
 189 117 189 117 197.5 119.5 c 128,-1,13
 206 122 206 122 220.5 136.5 c 128,-1,14
 235 151 235 151 258.5 181.5 c 128,-1,15
 282 212 282 212 319 268 c 1,16,-1
 362 231 l 1,17,18
 325 161 325 161 287.5 114 c 128,-1,19
 250 67 250 67 216 38 c 128,-1,20
 182 9 182 9 153.5 -3.5 c 128,-1,21
 125 -16 125 -16 106 -16 c 0,22,23
 58 -16 58 -16 35.5 20 c 128,-1,24
 13 56 13 56 13 109 c 0,25,26
 13 175 13 175 28 271 c 128,-1,27
 43 367 43 367 68.5 479 c 128,-1,28
 94 591 94 591 127.5 711.5 c 128,-1,29
 161 832 161 832 197 948 c 128,-1,30
 233 1064 233 1064 270 1168 c 128,-1,31
 307 1272 307 1272 339 1350 c 1,32,-1
 501 1350 l 1,0,1
EndSplineSet
Validated: 1
EndChar

StartChar: m
Encoding: 109 109 54
Width: 1365
GlyphClass: 2
Flags: W
LayerCount: 2
Fore
SplineSet
490 0 m 1,0,-1
 509 66 l 2,1,2
 521 111 521 111 537 156.5 c 128,-1,3
 553 202 553 202 567.5 248 c 128,-1,4
 582 294 582 294 592 340.5 c 128,-1,5
 602 387 602 387 603 434 c 0,6,7
 603 457 603 457 593.5 465 c 128,-1,8
 584 473 584 473 570 473 c 0,9,10
 534 473 534 473 490.5 438 c 128,-1,11
 447 403 447 403 403 350.5 c 128,-1,12
 359 298 359 298 317.5 236.5 c 128,-1,13
 276 175 276 175 244 122.5 c 128,-1,14
 212 70 212 70 192 35 c 128,-1,15
 172 0 172 0 171 0 c 2,16,-1
 30 0 l 1,17,18
 38 25 38 25 50 60.5 c 128,-1,19
 62 96 62 96 75 135.5 c 128,-1,20
 88 175 88 175 101 216.5 c 128,-1,21
 114 258 114 258 124.5 296.5 c 128,-1,22
 135 335 135 335 141.5 367 c 128,-1,23
 148 399 148 399 148 420 c 0,24,25
 148 451 148 451 132 451 c 0,26,27
 119 451 119 451 103 434 c 128,-1,28
 87 417 87 417 72 394.5 c 128,-1,29
 57 372 57 372 44 350 c 128,-1,30
 31 328 31 328 25 317 c 1,31,-1
 -42 356 l 1,32,33
 33 478 33 478 98 541 c 128,-1,34
 163 604 163 604 234 604 c 0,35,36
 262 604 262 604 286 579.5 c 128,-1,37
 310 555 310 555 310 502 c 0,38,39
 310 469 310 469 302 428.5 c 128,-1,40
 294 388 294 388 283 348.5 c 128,-1,41
 272 309 272 309 261 274.5 c 128,-1,42
 250 240 250 240 243 219 c 1,43,44
 263 252 263 252 288.5 293.5 c 128,-1,45
 314 335 314 335 343 378 c 128,-1,46
 372 421 372 421 406 461.5 c 128,-1,47
 440 502 440 502 478 533.5 c 128,-1,48
 516 565 516 565 558 584.5 c 128,-1,49
 600 604 600 604 646 604 c 0,50,51
 682 604 682 604 706.5 594.5 c 128,-1,52
 731 585 731 585 745.5 569 c 128,-1,53
 760 553 760 553 766.5 532 c 128,-1,54
 773 511 773 511 773 489 c 0,55,56
 773 458 773 458 764 422.5 c 128,-1,57
 755 387 755 387 742 350.5 c 128,-1,58
 729 314 729 314 715 278 c 128,-1,59
 701 242 701 242 691 211 c 1,60,61
 713 247 713 247 739.5 290 c 128,-1,62
 766 333 766 333 797 376.5 c 128,-1,63
 828 420 828 420 863.5 461 c 128,-1,64
 899 502 899 502 938.5 534 c 128,-1,65
 978 566 978 566 1021.5 585 c 128,-1,66
 1065 604 1065 604 1113 604 c 0,67,68
 1149 604 1149 604 1173 594.5 c 128,-1,69
 1197 585 1197 585 1211.5 569 c 128,-1,70
 1226 553 1226 553 1232 532 c 128,-1,71
 1238 511 1238 511 1238 489 c 0,72,73
 1238 448 1238 448 1223.5 399.5 c 128,-1,74
 1209 351 1209 351 1191 303 c 128,-1,75
 1173 255 1173 255 1158.5 212 c 128,-1,76
 1144 169 1144 169 1144 139 c 0,77,78
 1144 128 1144 128 1147.5 121.5 c 128,-1,79
 1151 115 1151 115 1162 115 c 0,80,81
 1178 115 1178 115 1194.5 129.5 c 128,-1,82
 1211 144 1211 144 1225.5 162 c 128,-1,83
 1240 180 1240 180 1251.5 197.5 c 128,-1,84
 1263 215 1263 215 1269 221 c 1,85,-1
 1308 184 l 1,86,87
 1273 125 1273 125 1239 86.5 c 128,-1,88
 1205 48 1205 48 1171 25 c 128,-1,89
 1137 2 1137 2 1104 -7 c 128,-1,90
 1071 -16 1071 -16 1039 -16 c 0,91,92
 1024 -16 1024 -16 1012.5 -8.5 c 128,-1,93
 1001 -1 1001 -1 993 10.5 c 128,-1,94
 985 22 985 22 980.5 36.5 c 128,-1,95
 976 51 976 51 976 66 c 0,96,97
 979 114 979 114 994 159.5 c 128,-1,98
 1009 205 1009 205 1026 250.5 c 128,-1,99
 1043 296 1043 296 1056.5 341.5 c 128,-1,100
 1070 387 1070 387 1070 434 c 0,101,102
 1070 457 1070 457 1060.5 465 c 128,-1,103
 1051 473 1051 473 1035 473 c 0,104,105
 1008 473 1008 473 976.5 452.5 c 128,-1,106
 945 432 945 432 912 398.5 c 128,-1,107
 879 365 879 365 846 322.5 c 128,-1,108
 813 280 813 280 782.5 235 c 128,-1,109
 752 190 752 190 725.5 147.5 c 128,-1,110
 699 105 699 105 679.5 72 c 128,-1,111
 660 39 660 39 649 19 c 128,-1,112
 638 -1 638 -1 638 0 c 1,113,-1
 490 0 l 1,0,-1
EndSplineSet
Validated: 1
EndChar

StartChar: n
Encoding: 110 110 55
Width: 869
GlyphClass: 2
Flags: W
LayerCount: 2
Fore
SplineSet
-43 356 m 1,0,1
 32 478 32 478 97 541 c 128,-1,2
 162 604 162 604 233 604 c 0,3,4
 261 604 261 604 285 579.5 c 128,-1,5
 309 555 309 555 309 502 c 0,6,7
 309 476 309 476 303.5 444.5 c 128,-1,8
 298 413 298 413 290 382 c 128,-1,9
 282 351 282 351 274 324.5 c 128,-1,10
 266 298 266 298 262 281 c 1,11,12
 281 311 281 311 306 346 c 128,-1,13
 331 381 331 381 360 417 c 128,-1,14
 389 453 389 453 422.5 486.5 c 128,-1,15
 456 520 456 520 491 546.5 c 128,-1,16
 526 573 526 573 563 588.5 c 128,-1,17
 600 604 600 604 637 604 c 0,18,19
 667 604 667 604 688 594 c 128,-1,20
 709 584 709 584 722.5 567.5 c 128,-1,21
 736 551 736 551 742.5 530.5 c 128,-1,22
 749 510 749 510 749 489 c 0,23,24
 749 448 749 448 733 397.5 c 128,-1,25
 717 347 717 347 698 297.5 c 128,-1,26
 679 248 679 248 663 204 c 128,-1,27
 647 160 647 160 647 131 c 0,28,29
 647 119 647 119 651 112.5 c 128,-1,30
 655 106 655 106 666 106 c 0,31,32
 682 106 682 106 698.5 120.5 c 128,-1,33
 715 135 715 135 729 153.5 c 128,-1,34
 743 172 743 172 754.5 189 c 128,-1,35
 766 206 766 206 772 211 c 1,36,-1
 811 176 l 1,37,38
 776 117 776 117 742 78 c 128,-1,39
 708 39 708 39 674.5 16 c 128,-1,40
 641 -7 641 -7 608 -16 c 128,-1,41
 575 -25 575 -25 543 -25 c 0,42,43
 528 -25 528 -25 516 -17.5 c 128,-1,44
 504 -10 504 -10 495.5 1.5 c 128,-1,45
 487 13 487 13 483 27.5 c 128,-1,46
 479 42 479 42 479 57 c 0,47,48
 482 104 482 104 498 151 c 128,-1,49
 514 198 514 198 532.5 245.5 c 128,-1,50
 551 293 551 293 565.5 340 c 128,-1,51
 580 387 580 387 580 434 c 0,52,53
 580 457 580 457 570.5 465 c 128,-1,54
 561 473 561 473 547 473 c 0,55,56
 513 473 513 473 472.5 438 c 128,-1,57
 432 403 432 403 390.5 350.5 c 128,-1,58
 349 298 349 298 309.5 236.5 c 128,-1,59
 270 175 270 175 239.5 122.5 c 128,-1,60
 209 70 209 70 190 35 c 128,-1,61
 171 0 171 0 170 0 c 2,62,-1
 29 0 l 1,63,64
 37 25 37 25 49 60.5 c 128,-1,65
 61 96 61 96 74 135.5 c 128,-1,66
 87 175 87 175 100 216.5 c 128,-1,67
 113 258 113 258 123.5 296.5 c 128,-1,68
 134 335 134 335 140.5 367 c 128,-1,69
 147 399 147 399 147 420 c 0,70,71
 147 451 147 451 131 451 c 0,72,73
 118 451 118 451 102 434 c 128,-1,74
 86 417 86 417 71 394.5 c 128,-1,75
 56 372 56 372 43 350 c 128,-1,76
 30 328 30 328 24 317 c 1,77,-1
 -43 356 l 1,0,1
EndSplineSet
Validated: 1
EndChar

StartChar: o
Encoding: 111 111 56
Width: 774
GlyphClass: 2
Flags: W
LayerCount: 2
Fore
SplineSet
-3 238 m 0,0,1
 -3 316 -3 316 33.5 383 c 128,-1,2
 70 450 70 450 128.5 499 c 128,-1,3
 187 548 187 548 260 576 c 128,-1,4
 333 604 333 604 407 604 c 0,5,6
 462 604 462 604 513.5 586 c 128,-1,7
 565 568 565 568 604.5 535 c 128,-1,8
 644 502 644 502 668 455.5 c 128,-1,9
 692 409 692 409 692 352 c 0,10,11
 692 271 692 271 657.5 202 c 128,-1,12
 623 133 623 133 565.5 83 c 128,-1,13
 508 33 508 33 432 5 c 128,-1,14
 356 -23 356 -23 272 -23 c 0,15,16
 215 -23 215 -23 165 -4 c 128,-1,17
 115 15 115 15 77.5 49 c 128,-1,18
 40 83 40 83 18.5 131 c 128,-1,19
 -3 179 -3 179 -3 238 c 0,0,1
180 233 m 0,20,21
 180 198 180 198 186.5 163.5 c 128,-1,22
 193 129 193 129 209 101.5 c 128,-1,23
 225 74 225 74 251.5 56.5 c 128,-1,24
 278 39 278 39 317 39 c 0,25,26
 374 39 374 39 411.5 70 c 128,-1,27
 449 101 449 101 471.5 147.5 c 128,-1,28
 494 194 494 194 503.5 247.5 c 128,-1,29
 513 301 513 301 513 346 c 0,30,31
 513 397 513 397 502.5 434 c 128,-1,32
 492 471 492 471 475 495 c 128,-1,33
 458 519 458 519 434.5 531 c 128,-1,34
 411 543 411 543 386 543 c 0,35,36
 351 543 351 543 314.5 522 c 128,-1,37
 278 501 278 501 248 461 c 128,-1,38
 218 421 218 421 199 363.5 c 128,-1,39
 180 306 180 306 180 233 c 0,20,21
EndSplineSet
Validated: 1
EndChar

StartChar: p
Encoding: 112 112 57
Width: 836
GlyphClass: 2
Flags: W
LayerCount: 2
Fore
SplineSet
-109 -444 m 0,0,1
 -136 -444 -136 -444 -155.5 -434.5 c 128,-1,2
 -175 -425 -175 -425 -187.5 -410 c 128,-1,3
 -200 -395 -200 -395 -206.5 -376.5 c 128,-1,4
 -213 -358 -213 -358 -213 -340 c 0,5,6
 -213 -308 -213 -308 -194.5 -284 c 128,-1,7
 -176 -260 -176 -260 -139 -260 c 0,8,9
 -96 -260 -96 -260 -79.5 -279.5 c 128,-1,10
 -63 -299 -63 -299 -63 -322 c 0,11,12
 -63 -334 -63 -334 -68.5 -346 c 128,-1,13
 -74 -358 -74 -358 -80.5 -367.5 c 128,-1,14
 -87 -377 -87 -377 -92.5 -384 c 128,-1,15
 -98 -391 -98 -391 -98 -393 c 0,16,17
 -98 -401 -98 -401 -92 -401 c 0,18,19
 -72 -401 -72 -401 -54 -381.5 c 128,-1,20
 -36 -362 -36 -362 -21 -331 c 128,-1,21
 -6 -300 -6 -300 7 -262 c 128,-1,22
 20 -224 20 -224 30 -185.5 c 128,-1,23
 40 -147 40 -147 47.5 -113 c 128,-1,24
 55 -79 55 -79 61 -57 c 2,25,-1
 166 356 l 1,26,27
 149 345 149 345 128.5 325.5 c 128,-1,28
 108 306 108 306 90 286 c 0,29,30
 69 263 69 263 47 238 c 1,31,-1
 14 266 l 1,32,33
 32 292 32 292 56.5 319 c 128,-1,34
 81 346 81 346 105 370.5 c 128,-1,35
 129 395 129 395 150 415.5 c 128,-1,36
 171 436 171 436 184 449 c 1,37,38
 212 542 212 542 241.5 622.5 c 128,-1,39
 271 703 271 703 305.5 771.5 c 128,-1,40
 340 840 340 840 382.5 896.5 c 128,-1,41
 425 953 425 953 481 999 c 1,42,-1
 508 975 l 1,43,44
 472 925 472 925 439 860 c 0,45,46
 411 804 411 804 384 725 c 128,-1,47
 357 646 357 646 346 545 c 1,48,49
 380 565 380 565 427 584.5 c 128,-1,50
 474 604 474 604 537 604 c 0,51,52
 598 604 598 604 642 585.5 c 128,-1,53
 686 567 686 567 714.5 535.5 c 128,-1,54
 743 504 743 504 756.5 462.5 c 128,-1,55
 770 421 770 421 770 375 c 0,56,57
 770 308 770 308 744 237.5 c 128,-1,58
 718 167 718 167 671.5 109 c 128,-1,59
 625 51 625 51 561 14 c 128,-1,60
 497 -23 497 -23 420 -23 c 0,61,62
 364 -23 364 -23 315 -0.5 c 128,-1,63
 266 22 266 22 236 66 c 1,64,-1
 203 -61 l 2,65,66
 194 -97 194 -97 180.5 -140 c 128,-1,67
 167 -183 167 -183 148 -225.5 c 128,-1,68
 129 -268 129 -268 104 -307.5 c 128,-1,69
 79 -347 79 -347 47.5 -377.5 c 128,-1,70
 16 -408 16 -408 -23 -426 c 128,-1,71
 -62 -444 -62 -444 -109 -444 c 0,0,1
258 135 m 1,72,73
 275 88 275 88 316.5 63.5 c 128,-1,74
 358 39 358 39 408 39 c 0,75,76
 454 39 454 39 490 65.5 c 128,-1,77
 526 92 526 92 551 134 c 128,-1,78
 576 176 576 176 589 228.5 c 128,-1,79
 602 281 602 281 602 332 c 0,80,81
 602 369 602 369 594.5 403.5 c 128,-1,82
 587 438 587 438 571 463.5 c 128,-1,83
 555 489 555 489 530 504.5 c 128,-1,84
 505 520 505 520 471 520 c 0,85,86
 436 520 436 520 399.5 504 c 128,-1,87
 363 488 363 488 334 471 c 1,88,-1
 258 135 l 1,72,73
EndSplineSet
Validated: 1
EndChar

StartChar: q
Encoding: 113 113 58
Width: 744
GlyphClass: 2
Flags: W
LayerCount: 2
Fore
SplineSet
206 -461 m 1,0,1
 234 -424 234 -424 258 -367 c 128,-1,2
 282 -310 282 -310 304.5 -242 c 128,-1,3
 327 -174 327 -174 349.5 -98.5 c 128,-1,4
 372 -23 372 -23 396 51 c 1,5,6
 378 30 378 30 352 14 c 0,7,8
 330 0 330 0 299 -11.5 c 128,-1,9
 268 -23 268 -23 228 -23 c 0,10,11
 161 -23 161 -23 113.5 -2.5 c 128,-1,12
 66 18 66 18 36 51.5 c 128,-1,13
 6 85 6 85 -8 128.5 c 128,-1,14
 -22 172 -22 172 -22 217 c 0,15,16
 -22 288 -22 288 8.5 357.5 c 128,-1,17
 39 427 39 427 90 481.5 c 128,-1,18
 141 536 141 536 207 570 c 128,-1,19
 273 604 273 604 345 604 c 0,20,21
 388 604 388 604 431.5 589.5 c 128,-1,22
 475 575 475 575 517 543 c 1,23,24
 544 626 544 626 570.5 692.5 c 128,-1,25
 597 759 597 759 628 814 c 128,-1,26
 659 869 659 869 695.5 914.5 c 128,-1,27
 732 960 732 960 779 1001 c 1,28,-1
 808 973 l 1,29,30
 772 928 772 928 746 865.5 c 128,-1,31
 720 803 720 803 700 732.5 c 128,-1,32
 680 662 680 662 664 589 c 128,-1,33
 648 516 648 516 632 449 c 2,34,-1
 511 -57 l 2,35,36
 498 -110 498 -110 473.5 -173.5 c 128,-1,37
 449 -237 449 -237 414 -298 c 128,-1,38
 379 -359 379 -359 334 -412 c 128,-1,39
 289 -465 289 -465 236 -498 c 1,40,-1
 206 -461 l 1,0,1
496 471 m 1,41,42
 467 494 467 494 438.5 505 c 128,-1,43
 410 516 410 516 382 516 c 0,44,45
 346 516 346 516 313 501 c 128,-1,46
 280 486 280 486 251.5 460.5 c 128,-1,47
 223 435 223 435 199 401.5 c 128,-1,48
 175 368 175 368 158 331 c 128,-1,49
 141 294 141 294 131.5 255.5 c 128,-1,50
 122 217 122 217 122 182 c 0,51,52
 122 155 122 155 129 129 c 128,-1,53
 136 103 136 103 151.5 83 c 128,-1,54
 167 63 167 63 191.5 51 c 128,-1,55
 216 39 216 39 251 39 c 0,56,57
 269 39 269 39 295 44.5 c 128,-1,58
 321 50 321 50 347 64 c 128,-1,59
 373 78 373 78 394 102 c 128,-1,60
 415 126 415 126 423 164 c 1,61,-1
 496 471 l 1,41,42
EndSplineSet
Validated: 1
EndChar

StartChar: r
Encoding: 114 114 59
Width: 764
GlyphClass: 2
Flags: W
LayerCount: 2
Fore
SplineSet
549 473 m 0,0,1
 515 473 515 473 474.5 438 c 128,-1,2
 434 403 434 403 392.5 350.5 c 128,-1,3
 351 298 351 298 311.5 236.5 c 128,-1,4
 272 175 272 175 241.5 122.5 c 128,-1,5
 211 70 211 70 192 35 c 128,-1,6
 173 0 173 0 172 0 c 2,7,-1
 31 0 l 1,8,9
 39 25 39 25 51 60.5 c 128,-1,10
 63 96 63 96 76 135.5 c 128,-1,11
 89 175 89 175 102 216.5 c 128,-1,12
 115 258 115 258 125.5 296.5 c 128,-1,13
 136 335 136 335 142.5 367 c 128,-1,14
 149 399 149 399 149 420 c 0,15,16
 149 451 149 451 133 451 c 0,17,18
 120 451 120 451 104 434 c 128,-1,19
 88 417 88 417 73 394.5 c 128,-1,20
 58 372 58 372 45 350 c 128,-1,21
 32 328 32 328 26 317 c 1,22,-1
 -41 356 l 1,23,24
 34 478 34 478 99 541 c 128,-1,25
 164 604 164 604 235 604 c 0,26,27
 263 604 263 604 287 579.5 c 128,-1,28
 311 555 311 555 311 502 c 0,29,30
 311 469 311 469 303 428.5 c 128,-1,31
 295 388 295 388 284 348.5 c 128,-1,32
 273 309 273 309 262 274.5 c 128,-1,33
 251 240 251 240 244 219 c 1,34,35
 263 252 263 252 286.5 293.5 c 128,-1,36
 310 335 310 335 338 378 c 128,-1,37
 366 421 366 421 398 461.5 c 128,-1,38
 430 502 430 502 465.5 533.5 c 128,-1,39
 501 565 501 565 541 584.5 c 128,-1,40
 581 604 581 604 625 604 c 0,41,42
 658 604 658 604 681.5 595 c 128,-1,43
 705 586 705 586 720 571.5 c 128,-1,44
 735 557 735 557 742 538.5 c 128,-1,45
 749 520 749 520 749 502 c 0,46,47
 749 483 749 483 742.5 465 c 128,-1,48
 736 447 736 447 724 432.5 c 128,-1,49
 712 418 712 418 695.5 409.5 c 128,-1,50
 679 401 679 401 659 401 c 0,51,52
 628 401 628 401 611.5 412 c 128,-1,53
 595 423 595 423 585.5 436.5 c 128,-1,54
 576 450 576 450 568.5 461.5 c 128,-1,55
 561 473 561 473 549 473 c 0,0,1
EndSplineSet
Validated: 1
EndChar

StartChar: s
Encoding: 115 115 60
Width: 651
GlyphClass: 2
Flags: W
LayerCount: 2
Fore
SplineSet
-27 135 m 0,0,1
 -27 151 -27 151 -22 166 c 128,-1,2
 -17 181 -17 181 -7 193 c 128,-1,3
 3 205 3 205 17 212 c 128,-1,4
 31 219 31 219 49 219 c 0,5,6
 65 219 65 219 81 214 c 128,-1,7
 97 209 97 209 109.5 199.5 c 128,-1,8
 122 190 122 190 129.5 175 c 128,-1,9
 137 160 137 160 137 141 c 0,10,11
 137 120 137 120 125 106.5 c 128,-1,12
 113 93 113 93 96 84 c 1,13,14
 117 70 117 70 160 61.5 c 128,-1,15
 203 53 203 53 251 53 c 0,16,17
 274 53 274 53 296.5 57.5 c 128,-1,18
 319 62 319 62 336.5 72.5 c 128,-1,19
 354 83 354 83 365 100 c 128,-1,20
 376 117 376 117 376 141 c 0,21,22
 376 172 376 172 354 191.5 c 128,-1,23
 332 211 332 211 298.5 225.5 c 128,-1,24
 265 240 265 240 225.5 252.5 c 128,-1,25
 186 265 186 265 151.5 283.5 c 128,-1,26
 117 302 117 302 93 329 c 128,-1,27
 69 356 69 356 67 399 c 1,28,29
 67 452 67 452 93 491 c 128,-1,30
 119 530 119 530 161.5 555 c 128,-1,31
 204 580 204 580 257.5 592 c 128,-1,32
 311 604 311 604 366 604 c 0,33,34
 403 604 403 604 440.5 597 c 128,-1,35
 478 590 478 590 508.5 575 c 128,-1,36
 539 560 539 560 558 536.5 c 128,-1,37
 577 513 577 513 577 481 c 0,38,39
 577 460 577 460 569.5 444 c 128,-1,40
 562 428 562 428 550 417.5 c 128,-1,41
 538 407 538 407 522.5 402 c 128,-1,42
 507 397 507 397 491 397 c 0,43,44
 460 397 460 397 435.5 415 c 128,-1,45
 411 433 411 433 411 465 c 0,46,47
 411 480 411 480 419.5 495 c 128,-1,48
 428 510 428 510 450 524 c 1,49,50
 436 534 436 534 416.5 537.5 c 128,-1,51
 397 541 397 541 372 541 c 0,52,53
 344 541 344 541 316 537 c 128,-1,54
 288 533 288 533 265.5 525 c 128,-1,55
 243 517 243 517 228.5 503.5 c 128,-1,56
 214 490 214 490 214 471 c 0,57,58
 214 447 214 447 238.5 431.5 c 128,-1,59
 263 416 263 416 300.5 401.5 c 128,-1,60
 338 387 338 387 381 371.5 c 128,-1,61
 424 356 424 356 461.5 332.5 c 128,-1,62
 499 309 499 309 523.5 275 c 128,-1,63
 548 241 548 241 548 190 c 0,64,65
 548 136 548 136 519.5 96 c 128,-1,66
 491 56 491 56 446.5 29.5 c 128,-1,67
 402 3 402 3 348.5 -10 c 128,-1,68
 295 -23 295 -23 245 -23 c 0,69,70
 208 -23 208 -23 161 -16 c 128,-1,71
 114 -9 114 -9 72 8.5 c 128,-1,72
 30 26 30 26 1.5 56.5 c 128,-1,73
 -27 87 -27 87 -27 135 c 0,0,1
EndSplineSet
Validated: 1
EndChar

StartChar: t
Encoding: 116 116 61
Width: 449
GlyphClass: 2
Flags: W
LayerCount: 2
Fore
SplineSet
19 582 m 1,0,-1
 136 582 l 1,1,2
 151 636 151 636 172.5 706.5 c 128,-1,3
 194 777 194 777 218 850 c 128,-1,4
 242 923 242 923 266 993.5 c 128,-1,5
 290 1064 290 1064 308 1118 c 1,6,-1
 472 1118 l 1,7,8
 454 1064 454 1064 430.5 994 c 128,-1,9
 407 924 407 924 382 850.5 c 128,-1,10
 357 777 357 777 335 706.5 c 128,-1,11
 313 636 313 636 298 582 c 1,12,-1
 445 582 l 1,13,-1
 429 516 l 1,14,-1
 277 516 l 1,15,16
 254 452 254 452 235.5 394.5 c 128,-1,17
 217 337 217 337 203.5 290 c 128,-1,18
 190 243 190 243 182.5 207.5 c 128,-1,19
 175 172 175 172 175 152 c 0,20,21
 175 109 175 109 189 109 c 0,22,23
 195 109 195 109 203.5 111.5 c 128,-1,24
 212 114 212 114 226.5 128.5 c 128,-1,25
 241 143 241 143 264.5 173.5 c 128,-1,26
 288 204 288 204 326 260 c 1,27,-1
 367 223 l 1,28,29
 330 153 330 153 293 105.5 c 128,-1,30
 256 58 256 58 222 29 c 128,-1,31
 188 0 188 0 159 -12.5 c 128,-1,32
 130 -25 130 -25 111 -25 c 0,33,34
 64 -25 64 -25 41.5 10.5 c 128,-1,35
 19 46 19 46 19 98 c 0,36,37
 19 171 19 171 45.5 279.5 c 128,-1,38
 72 388 72 388 116 516 c 1,39,-1
 3 516 l 1,40,-1
 19 582 l 1,0,-1
EndSplineSet
Validated: 1
EndChar

StartChar: u
Encoding: 117 117 62
Width: 869
GlyphClass: 2
Flags: W
LayerCount: 2
Fore
SplineSet
805 184 m 1,0,1
 737 75 737 75 681 26 c 128,-1,2
 625 -23 625 -23 569 -23 c 0,3,4
 541 -23 541 -23 517 0.5 c 128,-1,5
 493 24 493 24 493 78 c 0,6,7
 493 111 493 111 501 151 c 128,-1,8
 509 191 509 191 520 230.5 c 128,-1,9
 531 270 531 270 542.5 305 c 128,-1,10
 554 340 554 340 561 362 c 1,11,12
 542 329 542 329 519 287.5 c 128,-1,13
 496 246 496 246 468.5 203 c 128,-1,14
 441 160 441 160 409.5 119.5 c 128,-1,15
 378 79 378 79 342.5 47.5 c 128,-1,16
 307 16 307 16 267 -3.5 c 128,-1,17
 227 -23 227 -23 184 -23 c 0,18,19
 148 -23 148 -23 125 -11.5 c 128,-1,20
 102 0 102 0 88.5 19 c 128,-1,21
 75 38 75 38 70 63 c 128,-1,22
 65 88 65 88 65 115 c 0,23,24
 65 155 65 155 78.5 204.5 c 128,-1,25
 92 254 92 254 108 301.5 c 128,-1,26
 124 349 124 349 137.5 390 c 128,-1,27
 151 431 151 431 151 455 c 0,28,29
 151 464 151 464 148.5 468.5 c 128,-1,30
 146 473 146 473 137 473 c 0,31,32
 121 473 121 473 103.5 457 c 128,-1,33
 86 441 86 441 71 419.5 c 128,-1,34
 56 398 56 398 44 377 c 128,-1,35
 32 356 32 356 26 346 c 1,36,-1
 -39 385 l 1,37,38
 0 447 0 447 36 489 c 128,-1,39
 72 531 72 531 105 556.5 c 128,-1,40
 138 582 138 582 168 593 c 128,-1,41
 198 604 198 604 225 604 c 0,42,43
 268 604 268 604 292.5 580.5 c 128,-1,44
 317 557 317 557 317 520 c 1,45,46
 315 473 315 473 299.5 426.5 c 128,-1,47
 284 380 284 380 266 333.5 c 128,-1,48
 248 287 248 287 233.5 240 c 128,-1,49
 219 193 219 193 219 145 c 0,50,51
 219 124 219 124 227.5 116.5 c 128,-1,52
 236 109 236 109 252 109 c 0,53,54
 286 109 286 109 327 144 c 128,-1,55
 368 179 368 179 410 231.5 c 128,-1,56
 452 284 452 284 491.5 345.5 c 128,-1,57
 531 407 531 407 562.5 459.5 c 128,-1,58
 594 512 594 512 613 547 c 128,-1,59
 632 582 632 582 633 582 c 2,60,-1
 776 582 l 1,61,62
 767 556 767 556 753.5 519 c 128,-1,63
 740 482 740 482 724.5 439.5 c 128,-1,64
 709 397 709 397 693.5 352.5 c 128,-1,65
 678 308 678 308 665.5 267 c 128,-1,66
 653 226 653 226 645 192 c 128,-1,67
 637 158 637 158 637 137 c 0,68,69
 637 106 637 106 653 106 c 0,70,71
 664 106 664 106 680 121 c 128,-1,72
 696 136 696 136 712 156.5 c 128,-1,73
 728 177 728 177 741 196.5 c 128,-1,74
 754 216 754 216 760 225 c 1,75,-1
 805 184 l 1,0,1
EndSplineSet
Validated: 1
EndChar

StartChar: v
Encoding: 118 118 63
Width: 800
GlyphClass: 2
Flags: W
LayerCount: 2
Fore
SplineSet
272 96 m 0,0,1
 317 96 317 96 361.5 113 c 128,-1,2
 406 130 406 130 446.5 157.5 c 128,-1,3
 487 185 487 185 521.5 221 c 128,-1,4
 556 257 556 257 581 295 c 128,-1,5
 606 333 606 333 620.5 371 c 128,-1,6
 635 409 635 409 635 440 c 1,7,8
 633 438 633 438 628 436 c 256,9,10
 623 434 623 434 615 433 c 128,-1,11
 607 432 607 432 594 432 c 0,12,13
 551 432 551 432 529.5 457.5 c 128,-1,14
 508 483 508 483 508 514 c 0,15,16
 508 531 508 531 514 547 c 128,-1,17
 520 563 520 563 532.5 576 c 128,-1,18
 545 589 545 589 563.5 596.5 c 128,-1,19
 582 604 582 604 606 604 c 0,20,21
 644 604 644 604 668.5 592 c 128,-1,22
 693 580 693 580 707.5 560.5 c 128,-1,23
 722 541 722 541 727.5 516 c 128,-1,24
 733 491 733 491 733 465 c 0,25,26
 733 424 733 424 716 371.5 c 128,-1,27
 699 319 699 319 666.5 264.5 c 128,-1,28
 634 210 634 210 586.5 158.5 c 128,-1,29
 539 107 539 107 478.5 66.5 c 128,-1,30
 418 26 418 26 345 1.5 c 128,-1,31
 272 -23 272 -23 188 -23 c 0,32,33
 154 -23 154 -23 131.5 -14 c 128,-1,34
 109 -5 109 -5 95.5 10.5 c 128,-1,35
 82 26 82 26 76 47 c 128,-1,36
 70 68 70 68 70 92 c 0,37,38
 70 137 70 137 81.5 183.5 c 128,-1,39
 93 230 93 230 107.5 272.5 c 128,-1,40
 122 315 122 315 133.5 350 c 128,-1,41
 145 385 145 385 145 406 c 0,42,43
 145 449 145 449 127 449 c 0,44,45
 116 449 116 449 100.5 433 c 128,-1,46
 85 417 85 417 69.5 395.5 c 128,-1,47
 54 374 54 374 40.5 352.5 c 128,-1,48
 27 331 27 331 20 319 c 1,49,-1
 -45 356 l 1,50,51
 1 434 1 434 41.5 482.5 c 128,-1,52
 82 531 82 531 115.5 558 c 128,-1,53
 149 585 149 585 176.5 594.5 c 128,-1,54
 204 604 204 604 225 604 c 0,55,56
 256 604 256 604 281.5 581 c 128,-1,57
 307 558 307 558 307 516 c 0,58,59
 307 470 307 470 294.5 410.5 c 128,-1,60
 282 351 282 351 267 295 c 128,-1,61
 252 239 252 239 239.5 195.5 c 128,-1,62
 227 152 227 152 227 137 c 0,63,64
 227 131 227 131 228.5 124 c 128,-1,65
 230 117 230 117 234.5 110.5 c 128,-1,66
 239 104 239 104 248 100 c 128,-1,67
 257 96 257 96 272 96 c 0,0,1
EndSplineSet
Validated: 1
EndChar

StartChar: w
Encoding: 119 119 64
Width: 1057
GlyphClass: 2
Flags: W
LayerCount: 2
Fore
SplineSet
-45 356 m 1,0,1
 1 434 1 434 41.5 482.5 c 128,-1,2
 82 531 82 531 115.5 558 c 128,-1,3
 149 585 149 585 176.5 594.5 c 128,-1,4
 204 604 204 604 225 604 c 0,5,6
 256 604 256 604 281.5 581 c 128,-1,7
 307 558 307 558 307 516 c 0,8,9
 307 470 307 470 294.5 410.5 c 128,-1,10
 282 351 282 351 267 295 c 128,-1,11
 252 239 252 239 239.5 195.5 c 128,-1,12
 227 152 227 152 227 137 c 0,13,14
 227 125 227 125 231 110.5 c 128,-1,15
 235 96 235 96 252 96 c 0,16,17
 273 96 273 96 301.5 127.5 c 128,-1,18
 330 159 330 159 362.5 206 c 128,-1,19
 395 253 395 253 429.5 308 c 128,-1,20
 464 363 464 363 495.5 410 c 128,-1,21
 527 457 527 457 553.5 488.5 c 128,-1,22
 580 520 580 520 598 520 c 0,23,24
 615 520 615 520 621 498 c 128,-1,25
 627 476 627 476 627 436 c 0,26,27
 627 398 627 398 624 349 c 128,-1,28
 621 300 621 300 621 252 c 0,29,30
 621 220 621 220 623 187.5 c 128,-1,31
 625 155 625 155 629.5 129 c 128,-1,32
 634 103 634 103 642.5 86.5 c 128,-1,33
 651 70 651 70 664 70 c 0,34,35
 686 70 686 70 711 87 c 128,-1,36
 736 104 736 104 761 133 c 128,-1,37
 786 162 786 162 809.5 200 c 128,-1,38
 833 238 833 238 850.5 279 c 128,-1,39
 868 320 868 320 878.5 361.5 c 128,-1,40
 889 403 889 403 889 440 c 1,41,42
 886 438 886 438 881 436 c 256,43,44
 876 434 876 434 869.5 433 c 128,-1,45
 863 432 863 432 854 432 c 0,46,47
 803 432 803 432 780.5 456.5 c 128,-1,48
 758 481 758 481 758 512 c 0,49,50
 758 529 758 529 764.5 545.5 c 128,-1,51
 771 562 771 562 783.5 575 c 128,-1,52
 796 588 796 588 814 596 c 128,-1,53
 832 604 832 604 856 604 c 0,54,55
 919 604 919 604 951 569 c 128,-1,56
 983 534 983 534 983 481 c 0,57,58
 983 439 983 439 972 386 c 128,-1,59
 961 333 961 333 939.5 277 c 128,-1,60
 918 221 918 221 887 167 c 128,-1,61
 856 113 856 113 816 71 c 128,-1,62
 776 29 776 29 727.5 3 c 128,-1,63
 679 -23 679 -23 623 -23 c 0,64,65
 578 -23 578 -23 552.5 8.5 c 128,-1,66
 527 40 527 40 513.5 85 c 128,-1,67
 500 130 500 130 495.5 179.5 c 128,-1,68
 491 229 491 229 489 266 c 1,69,70
 453 209 453 209 415.5 156.5 c 128,-1,71
 378 104 378 104 338 64 c 128,-1,72
 298 24 298 24 255.5 0.5 c 128,-1,73
 213 -23 213 -23 168 -23 c 0,74,75
 140 -23 140 -23 121.5 -14 c 128,-1,76
 103 -5 103 -5 91.5 10.5 c 128,-1,77
 80 26 80 26 75 47 c 128,-1,78
 70 68 70 68 70 92 c 0,79,80
 70 137 70 137 81.5 183.5 c 128,-1,81
 93 230 93 230 107.5 272.5 c 128,-1,82
 122 315 122 315 133.5 350 c 128,-1,83
 145 385 145 385 145 406 c 0,84,85
 145 449 145 449 127 449 c 0,86,87
 116 449 116 449 100.5 433 c 128,-1,88
 85 417 85 417 69.5 395.5 c 128,-1,89
 54 374 54 374 40.5 352.5 c 128,-1,90
 27 331 27 331 20 319 c 1,91,-1
 -45 356 l 1,0,1
EndSplineSet
Validated: 1
EndChar

StartChar: x
Encoding: 120 120 65
Width: 792
GlyphClass: 2
Flags: W
LayerCount: 2
Fore
SplineSet
24 418 m 1,0,1
 63 473 63 473 97.5 509 c 128,-1,2
 132 545 132 545 162 566 c 128,-1,3
 192 587 192 587 219 595.5 c 128,-1,4
 246 604 246 604 270 604 c 0,5,6
 307 604 307 604 332.5 584.5 c 128,-1,7
 358 565 358 565 373.5 538 c 128,-1,8
 389 511 389 511 397 481.5 c 128,-1,9
 405 452 405 452 407 432 c 1,10,11
 452 514 452 514 509.5 559 c 128,-1,12
 567 604 567 604 645 604 c 0,13,14
 663 604 663 604 680 599 c 128,-1,15
 697 594 697 594 710.5 583.5 c 128,-1,16
 724 573 724 573 732.5 556 c 128,-1,17
 741 539 741 539 741 514 c 0,18,19
 741 496 741 496 736.5 479.5 c 128,-1,20
 732 463 732 463 722 449.5 c 128,-1,21
 712 436 712 436 697 428 c 128,-1,22
 682 420 682 420 661 420 c 0,23,24
 632 420 632 420 612.5 434.5 c 128,-1,25
 593 449 593 449 579 467 c 0,26,27
 563 487 563 487 553 514 c 1,28,29
 502 480 502 480 470 423.5 c 128,-1,30
 438 367 438 367 438 305 c 1,31,-1
 581 305 l 1,32,-1
 594 272 l 1,33,-1
 438 272 l 1,34,35
 438 235 438 235 441.5 202.5 c 128,-1,36
 445 170 445 170 455 145.5 c 128,-1,37
 465 121 465 121 481.5 106.5 c 128,-1,38
 498 92 498 92 524 92 c 0,39,40
 542 92 542 92 560.5 105 c 128,-1,41
 579 118 579 118 596.5 137 c 128,-1,42
 614 156 614 156 628.5 176 c 128,-1,43
 643 196 643 196 653 211 c 1,44,-1
 692 176 l 1,45,46
 677 150 677 150 656.5 115.5 c 128,-1,47
 636 81 636 81 608.5 50 c 128,-1,48
 581 19 581 19 547 -2 c 128,-1,49
 513 -23 513 -23 473 -23 c 0,50,51
 443 -23 443 -23 417.5 -5.5 c 128,-1,52
 392 12 392 12 373.5 39.5 c 128,-1,53
 355 67 355 67 344.5 99.5 c 128,-1,54
 334 132 334 132 334 162 c 1,55,56
 313 116 313 116 284.5 81.5 c 128,-1,57
 256 47 256 47 223 23.5 c 128,-1,58
 190 0 190 0 154 -11.5 c 128,-1,59
 118 -23 118 -23 82 -23 c 0,60,61
 31 -23 31 -23 -4 6 c 128,-1,62
 -39 35 -39 35 -39 98 c 0,63,64
 -39 132 -39 132 -16.5 157 c 128,-1,65
 6 182 6 182 41 182 c 0,66,67
 72 182 72 182 90.5 171.5 c 128,-1,68
 109 161 109 161 119.5 143.5 c 128,-1,69
 130 126 130 126 134.5 102 c 128,-1,70
 139 78 139 78 143 51 c 1,71,72
 161 51 161 51 183.5 67 c 128,-1,73
 206 83 206 83 227.5 112 c 128,-1,74
 249 141 249 141 266 181.5 c 128,-1,75
 283 222 283 222 289 272 c 1,76,-1
 137 272 l 1,77,-1
 160 305 l 1,78,-1
 291 305 l 1,79,80
 291 330 291 330 290.5 367 c 128,-1,81
 290 404 290 404 285.5 438.5 c 128,-1,82
 281 473 281 473 270 497.5 c 128,-1,83
 259 522 259 522 237 522 c 0,84,85
 219 522 219 522 199.5 508.5 c 128,-1,86
 180 495 180 495 160.5 474 c 128,-1,87
 141 453 141 453 122 428 c 128,-1,88
 103 403 103 403 86 381 c 1,89,-1
 24 418 l 1,0,1
EndSplineSet
Validated: 1
EndChar

StartChar: y
Encoding: 121 121 66
Width: 798
GlyphClass: 2
Flags: W
LayerCount: 2
Fore
SplineSet
-37 385 m 1,0,1
 -13 427 -13 427 17.5 466 c 128,-1,2
 48 505 48 505 81 536 c 128,-1,3
 114 567 114 567 148 585.5 c 128,-1,4
 182 604 182 604 213 604 c 0,5,6
 256 604 256 604 281.5 583.5 c 128,-1,7
 307 563 307 563 307 518 c 0,8,9
 307 499 307 499 301.5 471.5 c 128,-1,10
 296 444 296 444 287.5 412 c 128,-1,11
 279 380 279 380 269 345 c 128,-1,12
 259 310 259 310 250.5 276.5 c 128,-1,13
 242 243 242 243 236.5 213 c 128,-1,14
 231 183 231 183 231 160 c 256,15,16
 231 137 231 137 238 123 c 128,-1,17
 245 109 245 109 264 109 c 0,18,19
 294 109 294 109 330.5 120 c 128,-1,20
 367 131 367 131 404 149.5 c 128,-1,21
 441 168 441 168 475.5 192.5 c 128,-1,22
 510 217 510 217 537 245 c 128,-1,23
 564 273 564 273 580 302.5 c 128,-1,24
 596 332 596 332 596 360 c 0,25,26
 596 385 596 385 587 407 c 128,-1,27
 578 429 578 429 567 450.5 c 128,-1,28
 556 472 556 472 547 494 c 128,-1,29
 538 516 538 516 538 541 c 0,30,31
 538 558 538 558 542.5 574.5 c 128,-1,32
 547 591 547 591 557 604.5 c 128,-1,33
 567 618 567 618 581.5 626.5 c 128,-1,34
 596 635 596 635 616 635 c 0,35,36
 647 635 647 635 666.5 618.5 c 128,-1,37
 686 602 686 602 696.5 576.5 c 128,-1,38
 707 551 707 551 710.5 521 c 128,-1,39
 714 491 714 491 714 465 c 0,40,41
 714 375 714 375 682.5 271 c 128,-1,42
 651 167 651 167 597.5 63.5 c 128,-1,43
 544 -40 544 -40 473.5 -135.5 c 128,-1,44
 403 -231 403 -231 324.5 -304 c 128,-1,45
 246 -377 246 -377 164.5 -421 c 128,-1,46
 83 -465 83 -465 8 -465 c 0,47,48
 -54 -465 -54 -465 -91.5 -435 c 128,-1,49
 -129 -405 -129 -405 -129 -352 c 0,50,51
 -129 -285 -129 -285 -82.5 -234 c 128,-1,52
 -36 -183 -36 -183 39.5 -148 c 128,-1,53
 115 -113 115 -113 210 -94 c 128,-1,54
 305 -75 305 -75 403 -70 c 1,55,56
 408 -66 408 -66 418.5 -50.5 c 128,-1,57
 429 -35 429 -35 441.5 -13.5 c 128,-1,58
 454 8 454 8 468 33.5 c 128,-1,59
 482 59 482 59 494 82.5 c 128,-1,60
 506 106 506 106 514 124.5 c 128,-1,61
 522 143 522 143 524 152 c 1,62,63
 490 120 490 120 449.5 89 c 128,-1,64
 409 58 409 58 365.5 33 c 128,-1,65
 322 8 322 8 278 -7.5 c 128,-1,66
 234 -23 234 -23 192 -23 c 0,67,68
 162 -23 162 -23 142 -14 c 128,-1,69
 122 -5 122 -5 110 11.5 c 128,-1,70
 98 28 98 28 93 50.5 c 128,-1,71
 88 73 88 73 88 100 c 0,72,73
 88 145 88 145 99 196 c 128,-1,74
 110 247 110 247 122.5 295.5 c 128,-1,75
 135 344 135 344 146 385 c 128,-1,76
 157 426 157 426 157 449 c 0,77,78
 157 473 157 473 143 473 c 0,79,80
 126 473 126 473 109.5 459 c 128,-1,81
 93 445 93 445 78 425 c 128,-1,82
 63 405 63 405 50 383 c 128,-1,83
 37 361 37 361 28 346 c 1,84,-1
 -37 385 l 1,0,1
366 -141 m 1,85,86
 342 -142 342 -142 302 -149 c 128,-1,87
 262 -156 262 -156 217 -168 c 128,-1,88
 172 -180 172 -180 126 -197.5 c 128,-1,89
 80 -215 80 -215 43 -238 c 128,-1,90
 6 -261 6 -261 -17.5 -288.5 c 128,-1,91
 -41 -316 -41 -316 -41 -348 c 0,92,93
 -41 -373 -41 -373 -27.5 -382 c 128,-1,94
 -14 -391 -14 -391 2 -391 c 0,95,96
 26 -391 26 -391 59 -376 c 128,-1,97
 92 -361 92 -361 128.5 -337 c 128,-1,98
 165 -313 165 -313 203 -284 c 128,-1,99
 241 -255 241 -255 273.5 -227.5 c 128,-1,100
 306 -200 306 -200 330.5 -176.5 c 128,-1,101
 355 -153 355 -153 366 -141 c 1,85,86
EndSplineSet
Validated: 1
EndChar

StartChar: z
Encoding: 122 122 67
Width: 721
GlyphClass: 2
Flags: W
LayerCount: 2
Fore
SplineSet
485 442 m 1,0,1
 468 424 468 424 446.5 400.5 c 128,-1,2
 425 377 425 377 401.5 352 c 128,-1,3
 378 327 378 327 353.5 300.5 c 128,-1,4
 329 274 329 274 306 250 c 0,5,6
 251 192 251 192 194 131 c 1,7,8
 236 131 236 131 272 118.5 c 128,-1,9
 308 106 308 106 343 91 c 128,-1,10
 378 76 378 76 414 63 c 128,-1,11
 450 50 450 50 491 49 c 1,12,13
 458 79 458 79 458 123 c 0,14,15
 458 140 458 140 466.5 154.5 c 128,-1,16
 475 169 475 169 488 180 c 128,-1,17
 501 191 501 191 517.5 197 c 128,-1,18
 534 203 534 203 550 203 c 0,19,20
 568 203 568 203 584 196 c 128,-1,21
 600 189 600 189 612 177.5 c 128,-1,22
 624 166 624 166 631 150.5 c 128,-1,23
 638 135 638 135 638 117 c 0,24,25
 638 46 638 46 595.5 11.5 c 128,-1,26
 553 -23 553 -23 485 -23 c 0,27,28
 383 -23 383 -23 292.5 0 c 128,-1,29
 202 23 202 23 112 55 c 1,30,31
 99 49 99 49 85 39 c 128,-1,32
 71 29 71 29 59 20 c 0,33,34
 45 9 45 9 30 -2 c 1,35,-1
 -35 49 l 1,36,37
 -33 55 -33 55 -5.5 85.5 c 128,-1,38
 22 116 22 116 63 159 c 128,-1,39
 104 202 104 202 153 252 c 128,-1,40
 202 302 202 302 246 347.5 c 128,-1,41
 290 393 290 393 324 427.5 c 128,-1,42
 358 462 358 462 370 475 c 1,43,44
 352 483 352 483 325.5 494.5 c 128,-1,45
 299 506 299 506 271 517 c 128,-1,46
 243 528 243 528 216 535.5 c 128,-1,47
 189 543 189 543 169 543 c 1,48,-1
 159 541 l 1,49,50
 175 525 175 525 188.5 503.5 c 128,-1,51
 202 482 202 482 202 459 c 0,52,53
 202 441 202 441 192.5 426.5 c 128,-1,54
 183 412 183 412 169 402.5 c 128,-1,55
 155 393 155 393 137.5 388 c 128,-1,56
 120 383 120 383 104 383 c 0,57,58
 67 383 67 383 39.5 404 c 128,-1,59
 12 425 12 425 12 465 c 0,60,61
 12 502 12 502 27 530 c 128,-1,62
 42 558 42 558 66.5 576 c 128,-1,63
 91 594 91 594 123 603 c 128,-1,64
 155 612 155 612 190 612 c 0,65,66
 230 612 230 612 269.5 602 c 128,-1,67
 309 592 309 592 349 580.5 c 128,-1,68
 389 569 389 569 428.5 559 c 128,-1,69
 468 549 468 549 507 549 c 0,70,71
 536 549 536 549 566.5 557 c 128,-1,72
 597 565 597 565 614 571 c 1,73,-1
 655 512 l 1,74,75
 636 475 636 475 607 453.5 c 128,-1,76
 578 432 578 432 538 432 c 0,77,78
 526 432 526 432 512.5 434.5 c 128,-1,79
 499 437 499 437 485 442 c 1,0,1
EndSplineSet
Validated: 1
EndChar

StartChar: dieresis
Encoding: 168 168 68
Width: 751
GlyphClass: 2
Flags: W
LayerCount: 2
Fore
SplineSet
311 780 m 0,0,1
 311 754 311 754 301.5 734 c 128,-1,2
 292 714 292 714 276.5 700 c 128,-1,3
 261 686 261 686 241.5 679 c 128,-1,4
 222 672 222 672 202 672 c 0,5,6
 184 672 184 672 167.5 677.5 c 128,-1,7
 151 683 151 683 138.5 695 c 128,-1,8
 126 707 126 707 118 724.5 c 128,-1,9
 110 742 110 742 110 766 c 0,10,11
 110 792 110 792 119.5 812.5 c 128,-1,12
 129 833 129 833 145 846.5 c 128,-1,13
 161 860 161 860 180.5 867 c 128,-1,14
 200 874 200 874 220 874 c 0,15,16
 238 874 238 874 254 868.5 c 128,-1,17
 270 863 270 863 283 851.5 c 128,-1,18
 296 840 296 840 303.5 822.5 c 128,-1,19
 311 805 311 805 311 780 c 0,0,1
673 780 m 0,20,21
 673 754 673 754 663.5 734 c 128,-1,22
 654 714 654 714 638.5 700 c 128,-1,23
 623 686 623 686 603.5 679 c 128,-1,24
 584 672 584 672 564 672 c 0,25,26
 546 672 546 672 529.5 677.5 c 128,-1,27
 513 683 513 683 500.5 695 c 128,-1,28
 488 707 488 707 480 724.5 c 128,-1,29
 472 742 472 742 472 766 c 0,30,31
 472 792 472 792 482 812.5 c 128,-1,32
 492 833 492 833 507.5 846.5 c 128,-1,33
 523 860 523 860 543 867 c 128,-1,34
 563 874 563 874 583 874 c 0,35,36
 601 874 601 874 617 868.5 c 128,-1,37
 633 863 633 863 645.5 851.5 c 128,-1,38
 658 840 658 840 665.5 822.5 c 128,-1,39
 673 805 673 805 673 780 c 0,20,21
EndSplineSet
Validated: 1
EndChar

StartChar: acute
Encoding: 180 180 69
Width: 492
GlyphClass: 2
Flags: W
LayerCount: 2
Fore
SplineSet
94 672 m 1,0,1
 105 688 105 688 119.5 709.5 c 128,-1,2
 134 731 134 731 149.5 755 c 128,-1,3
 165 779 165 779 181.5 805 c 128,-1,4
 198 831 198 831 213 855 c 0,5,6
 249 911 249 911 287 973 c 1,7,-1
 457 973 l 1,8,9
 437 954 437 954 398.5 914 c 128,-1,10
 360 874 360 874 315.5 828.5 c 128,-1,11
 271 783 271 783 226 740 c 128,-1,12
 181 697 181 697 148 672 c 1,13,-1
 94 672 l 1,0,1
EndSplineSet
Validated: 1
EndChar

StartChar: Oslash
Encoding: 216 216 70
Width: 1425
GlyphClass: 2
Flags: W
LayerCount: 2
Fore
SplineSet
1319 1772 m 1,0,-1
 1365 1737 l 1,1,-1
 138 -315 l 1,2,-1
 91 -283 l 1,3,-1
 1319 1772 l 1,0,-1
359 819 m 0,4,5
 359 897 359 897 381.5 974 c 128,-1,6
 404 1051 404 1051 445 1120 c 128,-1,7
 486 1189 486 1189 542.5 1248 c 128,-1,8
 599 1307 599 1307 666 1350 c 128,-1,9
 733 1393 733 1393 809 1417.5 c 128,-1,10
 885 1442 885 1442 965 1442 c 0,11,12
 1069 1442 1069 1442 1164 1409 c 128,-1,13
 1259 1376 1259 1376 1331 1312.5 c 128,-1,14
 1403 1249 1403 1249 1446 1156 c 128,-1,15
 1489 1063 1489 1063 1489 944 c 0,16,17
 1489 823 1489 823 1456 704 c 128,-1,18
 1423 585 1423 585 1362.5 477.5 c 128,-1,19
 1302 370 1302 370 1216.5 278.5 c 128,-1,20
 1131 187 1131 187 1026 120 c 128,-1,21
 921 53 921 53 799 15 c 128,-1,22
 677 -23 677 -23 543 -23 c 0,23,24
 417 -23 417 -23 319 10 c 128,-1,25
 221 43 221 43 154 106.5 c 128,-1,26
 87 170 87 170 52 262.5 c 128,-1,27
 17 355 17 355 17 475 c 0,28,29
 17 572 17 572 44.5 672 c 128,-1,30
 72 772 72 772 125 865 c 128,-1,31
 178 958 178 958 254.5 1038.5 c 128,-1,32
 331 1119 331 1119 429 1178 c 1,33,-1
 459 1141 l 1,34,35
 398 1085 398 1085 350 1013 c 128,-1,36
 302 941 302 941 268.5 860.5 c 128,-1,37
 235 780 235 780 217 695 c 128,-1,38
 199 610 199 610 199 528 c 0,39,40
 199 430 199 430 221 341.5 c 128,-1,41
 243 253 243 253 290 185 c 128,-1,42
 337 117 337 117 410 77 c 128,-1,43
 483 37 483 37 584 37 c 0,44,45
 684 37 684 37 773.5 76 c 128,-1,46
 863 115 863 115 938.5 181.5 c 128,-1,47
 1014 248 1014 248 1074 336.5 c 128,-1,48
 1134 425 1134 425 1176.5 524.5 c 128,-1,49
 1219 624 1219 624 1241.5 728 c 128,-1,50
 1264 832 1264 832 1264 930 c 0,51,52
 1264 1020 1264 1020 1245 1100 c 128,-1,53
 1226 1180 1226 1180 1185 1239.5 c 128,-1,54
 1144 1299 1144 1299 1080 1333.5 c 128,-1,55
 1016 1368 1016 1368 926 1368 c 0,56,57
 823 1368 823 1368 737.5 1320 c 128,-1,58
 652 1272 652 1272 590 1193.5 c 128,-1,59
 528 1115 528 1115 493.5 1015.5 c 128,-1,60
 459 916 459 916 459 813 c 0,61,62
 459 755 459 755 471 714 c 128,-1,63
 483 673 483 673 503.5 646.5 c 128,-1,64
 524 620 524 620 551.5 608 c 128,-1,65
 579 596 579 596 611 596 c 0,66,67
 661 596 661 596 714.5 622 c 128,-1,68
 768 648 768 648 812.5 692 c 128,-1,69
 857 736 857 736 886.5 794.5 c 128,-1,70
 916 853 916 853 918 918 c 1,71,-1
 1014 934 l 1,72,73
 1014 855 1014 855 981.5 782 c 128,-1,74
 949 709 949 709 894.5 653 c 128,-1,75
 840 597 840 597 768 563.5 c 128,-1,76
 696 530 696 530 617 530 c 0,77,78
 552 530 552 530 504 553.5 c 128,-1,79
 456 577 456 577 423.5 617 c 128,-1,80
 391 657 391 657 375 709.5 c 128,-1,81
 359 762 359 762 359 819 c 0,4,5
EndSplineSet
Validated: 5
EndChar

StartChar: oslash
Encoding: 248 248 71
Width: 755
GlyphClass: 2
Flags: W
LayerCount: 2
Fore
SplineSet
30 -238 m 1,0,-1
 600 860 l 1,1,-1
 649 831 l 1,2,-1
 80 -268 l 1,3,-1
 30 -238 l 1,0,-1
-17 238 m 0,4,5
 -17 316 -17 316 19.5 383 c 128,-1,6
 56 450 56 450 114.5 499 c 128,-1,7
 173 548 173 548 246 576 c 128,-1,8
 319 604 319 604 393 604 c 0,9,10
 448 604 448 604 499.5 586 c 128,-1,11
 551 568 551 568 590.5 535 c 128,-1,12
 630 502 630 502 654 455.5 c 128,-1,13
 678 409 678 409 678 352 c 0,14,15
 678 271 678 271 643.5 202 c 128,-1,16
 609 133 609 133 551.5 83 c 128,-1,17
 494 33 494 33 418 5 c 128,-1,18
 342 -23 342 -23 258 -23 c 0,19,20
 201 -23 201 -23 151 -4 c 128,-1,21
 101 15 101 15 63.5 49 c 128,-1,22
 26 83 26 83 4.5 131 c 128,-1,23
 -17 179 -17 179 -17 238 c 0,4,5
166 233 m 0,24,25
 166 198 166 198 172.5 163.5 c 128,-1,26
 179 129 179 129 195 101.5 c 128,-1,27
 211 74 211 74 237.5 56.5 c 128,-1,28
 264 39 264 39 303 39 c 0,29,30
 360 39 360 39 397.5 70 c 128,-1,31
 435 101 435 101 457.5 147.5 c 128,-1,32
 480 194 480 194 489.5 247.5 c 128,-1,33
 499 301 499 301 499 346 c 0,34,35
 499 397 499 397 488.5 434 c 128,-1,36
 478 471 478 471 461 495 c 128,-1,37
 444 519 444 519 420.5 531 c 128,-1,38
 397 543 397 543 372 543 c 0,39,40
 337 543 337 543 300.5 522 c 128,-1,41
 264 501 264 501 234 461 c 128,-1,42
 204 421 204 421 185 363.5 c 128,-1,43
 166 306 166 306 166 233 c 0,24,25
EndSplineSet
Validated: 5
EndChar

StartChar: dotlessi
Encoding: 305 305 72
Width: 429
GlyphClass: 2
Flags: W
LayerCount: 2
Fore
SplineSet
58 66 m 0,0,1
 59 95 59 95 66 130.5 c 128,-1,2
 73 166 73 166 83.5 202.5 c 128,-1,3
 94 239 94 239 106 275 c 128,-1,4
 118 311 118 311 128 341.5 c 128,-1,5
 138 372 138 372 144.5 394.5 c 128,-1,6
 151 417 151 417 152 428 c 1,7,8
 152 444 152 444 149 449.5 c 128,-1,9
 146 455 146 455 138 455 c 0,10,11
 126 455 126 455 112 442 c 128,-1,12
 98 429 98 429 83 409 c 128,-1,13
 68 389 68 389 53 364.5 c 128,-1,14
 38 340 38 340 25 317 c 1,15,-1
 -42 356 l 1,16,17
 0 428 0 428 38 475.5 c 128,-1,18
 76 523 76 523 109.5 551.5 c 128,-1,19
 143 580 143 580 172.5 592 c 128,-1,20
 202 604 202 604 228 604 c 0,21,22
 253 604 253 604 269.5 595.5 c 128,-1,23
 286 587 286 587 295.5 572.5 c 128,-1,24
 305 558 305 558 308.5 538.5 c 128,-1,25
 312 519 312 519 312 498 c 0,26,27
 312 473 312 473 305 446 c 128,-1,28
 298 419 298 419 292 399 c 2,29,-1
 220 193 l 2,30,31
 214 174 214 174 210 161 c 128,-1,32
 206 148 206 148 206 137 c 0,33,34
 206 122 206 122 208.5 115.5 c 128,-1,35
 211 109 211 109 222 109 c 0,36,37
 234 109 234 109 248 117.5 c 128,-1,38
 262 126 262 126 273 141 c 2,39,-1
 327 211 l 1,40,-1
 368 176 l 1,41,42
 339 122 339 122 306.5 83.5 c 128,-1,43
 274 45 274 45 242.5 21 c 128,-1,44
 211 -3 211 -3 183.5 -14 c 128,-1,45
 156 -25 156 -25 136 -25 c 256,46,47
 116 -25 116 -25 101.5 -16.5 c 128,-1,48
 87 -8 87 -8 77 5.5 c 128,-1,49
 67 19 67 19 62.5 35 c 128,-1,50
 58 51 58 51 58 66 c 0,0,1
EndSplineSet
Validated: 1
EndChar

StartChar: ring
Encoding: 730 730 73
Width: 536
GlyphClass: 2
Flags: W
LayerCount: 2
Fore
SplineSet
400 866 m 0,0,1
 400 895 400 895 391.5 916 c 128,-1,2
 383 937 383 937 369 950.5 c 128,-1,3
 355 964 355 964 337 970.5 c 128,-1,4
 319 977 319 977 300 977 c 0,5,6
 277 977 277 977 255 968.5 c 128,-1,7
 233 960 233 960 216 943.5 c 128,-1,8
 199 927 199 927 188 903.5 c 128,-1,9
 177 880 177 880 177 850 c 0,10,11
 177 821 177 821 186 800.5 c 128,-1,12
 195 780 195 780 209 766 c 128,-1,13
 223 752 223 752 241.5 745.5 c 128,-1,14
 260 739 260 739 279 739 c 0,15,16
 301 739 301 739 322.5 747.5 c 128,-1,17
 344 756 344 756 361.5 772.5 c 128,-1,18
 379 789 379 789 389.5 812.5 c 128,-1,19
 400 836 400 836 400 866 c 0,0,1
470 868 m 0,20,21
 470 820 470 820 453.5 784 c 128,-1,22
 437 748 437 748 410 724 c 128,-1,23
 383 700 383 700 348.5 688 c 128,-1,24
 314 676 314 676 279 676 c 0,25,26
 246 676 246 676 214.5 686.5 c 128,-1,27
 183 697 183 697 159 718 c 128,-1,28
 135 739 135 739 120 770.5 c 128,-1,29
 105 802 105 802 105 844 c 0,30,31
 105 891 105 891 122.5 927 c 128,-1,32
 140 963 140 963 168 988 c 128,-1,33
 196 1013 196 1013 232 1025.5 c 128,-1,34
 268 1038 268 1038 304 1038 c 0,35,36
 336 1038 336 1038 366 1028 c 128,-1,37
 396 1018 396 1018 419 997 c 128,-1,38
 442 976 442 976 456 944 c 128,-1,39
 470 912 470 912 470 868 c 0,20,21
EndSplineSet
Validated: 1
EndChar

StartChar: quoteright
Encoding: 8217 8217 74
Width: 380
GlyphClass: 2
Flags: W
LayerCount: 2
Fore
SplineSet
140 1260 m 0,0,1
 140 1263 140 1263 139 1266 c 128,-1,2
 138 1269 138 1269 138 1272 c 0,3,4
 138 1292 138 1292 150.5 1305.5 c 128,-1,5
 163 1319 163 1319 194 1319 c 0,6,7
 211 1319 211 1319 229.5 1316 c 128,-1,8
 248 1313 248 1313 264 1302.5 c 128,-1,9
 280 1292 280 1292 290 1271 c 128,-1,10
 300 1250 300 1250 300 1214 c 0,11,12
 300 1184 300 1184 289.5 1153 c 128,-1,13
 279 1122 279 1122 260.5 1096.5 c 128,-1,14
 242 1071 242 1071 217.5 1054.5 c 128,-1,15
 193 1038 193 1038 165 1038 c 0,16,17
 159 1038 159 1038 150.5 1040.5 c 128,-1,18
 142 1043 142 1043 140 1053 c 1,19,20
 151 1064 151 1064 168.5 1072 c 128,-1,21
 186 1080 186 1080 203 1089.5 c 128,-1,22
 220 1099 220 1099 232.5 1113 c 128,-1,23
 245 1127 245 1127 245 1151 c 1,24,25
 225 1163 225 1163 207.5 1172.5 c 128,-1,26
 190 1182 190 1182 176 1194 c 128,-1,27
 162 1206 162 1206 152.5 1221.5 c 128,-1,28
 143 1237 143 1237 140 1260 c 0,0,1
EndSplineSet
Validated: 1
EndChar

StartChar: ff
Encoding: 64256 64256 75
Width: 1203
GlyphClass: 3
Flags: W
LayerCount: 2
Fore
SplineSet
-9 582 m 1,0,-1
 178 582 l 1,1,2
 221 756 221 756 273.5 908 c 128,-1,3
 326 1060 326 1060 396.5 1172 c 128,-1,4
 467 1284 467 1284 559.5 1348.5 c 128,-1,5
 652 1413 652 1413 776 1413 c 0,6,7
 838 1413 838 1413 886.5 1392 c 128,-1,8
 935 1371 935 1371 966 1331 c 1,9,10
 1017 1371 1017 1371 1077 1392 c 128,-1,11
 1137 1413 1137 1413 1206 1413 c 0,12,13
 1241 1413 1241 1413 1276.5 1406.5 c 128,-1,14
 1312 1400 1312 1400 1340.5 1383 c 128,-1,15
 1369 1366 1369 1366 1387 1337.5 c 128,-1,16
 1405 1309 1405 1309 1405 1266 c 0,17,18
 1405 1242 1405 1242 1395.5 1223.5 c 128,-1,19
 1386 1205 1386 1205 1371 1192.5 c 128,-1,20
 1356 1180 1356 1180 1337 1173.5 c 128,-1,21
 1318 1167 1318 1167 1298 1167 c 0,22,23
 1279 1167 1279 1167 1261 1173 c 128,-1,24
 1243 1179 1243 1179 1229 1190.5 c 128,-1,25
 1215 1202 1215 1202 1206.5 1219.5 c 128,-1,26
 1198 1237 1198 1237 1198 1260 c 0,27,28
 1198 1293 1198 1293 1224 1331 c 1,29,30
 1207 1337 1207 1337 1191.5 1342.5 c 128,-1,31
 1176 1348 1176 1348 1161 1348 c 0,32,33
 1117 1348 1117 1348 1080 1319 c 128,-1,34
 1043 1290 1043 1290 1013 1248 c 128,-1,35
 983 1206 983 1206 961 1158.5 c 128,-1,36
 939 1111 939 1111 925 1073 c 0,37,38
 882 956 882 956 847.5 831.5 c 128,-1,39
 813 707 813 707 784 582 c 1,40,-1
 1024 582 l 1,41,-1
 1007 516 l 1,42,-1
 770 516 l 1,43,44
 749 424 749 424 728 336.5 c 128,-1,45
 707 249 707 249 682.5 171 c 128,-1,46
 658 93 658 93 628 28.5 c 128,-1,47
 598 -36 598 -36 556.5 -83 c 128,-1,48
 515 -130 515 -130 461 -156 c 128,-1,49
 407 -182 407 -182 336 -182 c 0,50,51
 286 -182 286 -182 264.5 -159 c 128,-1,52
 243 -136 243 -136 243 -109 c 0,53,54
 243 -81 243 -81 262.5 -58 c 128,-1,55
 282 -35 282 -35 317 -35 c 0,56,57
 343 -35 343 -35 364 -48 c 128,-1,58
 385 -61 385 -61 385 -86 c 0,59,60
 385 -94 385 -94 380 -109.5 c 128,-1,61
 375 -125 375 -125 370 -133 c 1,62,63
 404 -128 404 -128 431 -93 c 128,-1,64
 458 -58 458 -58 479.5 -3.5 c 128,-1,65
 501 51 501 51 518 118.5 c 128,-1,66
 535 186 535 186 548.5 256.5 c 128,-1,67
 562 327 562 327 573 394.5 c 128,-1,68
 584 462 584 462 594 516 c 1,69,-1
 340 516 l 1,70,71
 318 424 318 424 297.5 336.5 c 128,-1,72
 277 249 277 249 252.5 171 c 128,-1,73
 228 93 228 93 197.5 28.5 c 128,-1,74
 167 -36 167 -36 126 -83 c 128,-1,75
 85 -130 85 -130 31 -156 c 128,-1,76
 -23 -182 -23 -182 -95 -182 c 0,77,78
 -144 -182 -144 -182 -165.5 -159 c 128,-1,79
 -187 -136 -187 -136 -187 -109 c 0,80,81
 -187 -81 -187 -81 -167.5 -58 c 128,-1,82
 -148 -35 -148 -35 -113 -35 c 0,83,84
 -87 -35 -87 -35 -66 -48 c 128,-1,85
 -45 -61 -45 -61 -45 -86 c 0,86,87
 -45 -94 -45 -94 -50 -109.5 c 128,-1,88
 -55 -125 -55 -125 -60 -133 c 1,89,90
 -26 -128 -26 -128 1 -93 c 128,-1,91
 28 -58 28 -58 49.5 -3.5 c 128,-1,92
 71 51 71 51 88 118.5 c 128,-1,93
 105 186 105 186 118.5 256.5 c 128,-1,94
 132 327 132 327 143 394.5 c 128,-1,95
 154 462 154 462 164 516 c 1,96,-1
 -25 516 l 1,97,-1
 -9 582 l 1,0,-1
608 582 m 1,98,99
 636 696 636 696 667.5 800 c 128,-1,100
 699 904 699 904 737 995 c 128,-1,101
 775 1086 775 1086 820 1161 c 128,-1,102
 865 1236 865 1236 919 1290 c 1,103,104
 893 1319 893 1319 863 1332.5 c 128,-1,105
 833 1346 833 1346 802 1346 c 0,106,107
 732 1346 732 1346 676.5 1311 c 128,-1,108
 621 1276 621 1276 577.5 1216.5 c 128,-1,109
 534 1157 534 1157 500 1079.5 c 128,-1,110
 466 1002 466 1002 439.5 917.5 c 128,-1,111
 413 833 413 833 392.5 746 c 128,-1,112
 372 659 372 659 354 582 c 1,113,-1
 608 582 l 1,98,99
EndSplineSet
Validated: 1
Ligature2: "'liga' Standard Ligatures in Latin lookup 1 subtable" f f
Ligature2: "'liga' Standard Ligatures in Latin lookup 0 subtable" f f
EndChar

StartChar: fi
Encoding: 64257 64257 76
Width: 921
GlyphClass: 3
Flags: W
LayerCount: 2
Fore
SplineSet
840 793 m 0,0,1
 866 793 866 793 885 802.5 c 128,-1,2
 904 812 904 812 917 827.5 c 128,-1,3
 930 843 930 843 936 862.5 c 128,-1,4
 942 882 942 882 942 901 c 0,5,6
 942 919 942 919 936.5 936.5 c 128,-1,7
 931 954 931 954 920.5 967.5 c 128,-1,8
 910 981 910 981 894.5 989 c 128,-1,9
 879 997 879 997 858 997 c 0,10,11
 831 997 831 997 810.5 987.5 c 128,-1,12
 790 978 790 978 776.5 962.5 c 128,-1,13
 763 947 763 947 756.5 927.5 c 128,-1,14
 750 908 750 908 750 887 c 0,15,16
 750 869 750 869 755.5 852.5 c 128,-1,17
 761 836 761 836 772 822.5 c 128,-1,18
 783 809 783 809 800 801 c 128,-1,19
 817 793 817 793 840 793 c 0,0,1
365 516 m 1,20,-1
 340 414 l 2,21,22
 318 322 318 322 296 234.5 c 128,-1,23
 274 147 274 147 248 69.5 c 128,-1,24
 222 -8 222 -8 189.5 -73 c 128,-1,25
 157 -138 157 -138 114 -185 c 128,-1,26
 71 -232 71 -232 16 -258.5 c 128,-1,27
 -39 -285 -39 -285 -111 -285 c 0,28,29
 -160 -285 -160 -285 -181.5 -262 c 128,-1,30
 -203 -239 -203 -239 -203 -211 c 256,31,32
 -203 -183 -203 -183 -183.5 -160 c 128,-1,33
 -164 -137 -164 -137 -129 -137 c 0,34,35
 -103 -137 -103 -137 -82 -150.5 c 128,-1,36
 -61 -164 -61 -164 -61 -188 c 0,37,38
 -61 -196 -61 -196 -66 -212 c 128,-1,39
 -71 -228 -71 -228 -76 -236 c 1,40,41
 -42 -231 -42 -231 -15 -195.5 c 128,-1,42
 12 -160 12 -160 34.5 -105.5 c 128,-1,43
 57 -51 57 -51 75.5 17 c 128,-1,44
 94 85 94 85 109.5 155.5 c 128,-1,45
 125 226 125 226 138 293.5 c 128,-1,46
 151 361 151 361 164 414 c 2,47,-1
 188 516 l 1,48,-1
 0 516 l 1,49,-1
 16 582 l 1,50,-1
 203 582 l 1,51,52
 231 698 231 698 263.5 805 c 128,-1,53
 296 912 296 912 335 1004 c 128,-1,54
 374 1096 374 1096 421 1171.5 c 128,-1,55
 468 1247 468 1247 525 1300.5 c 128,-1,56
 582 1354 582 1354 650 1383.5 c 128,-1,57
 718 1413 718 1413 801 1413 c 0,58,59
 836 1413 836 1413 871.5 1406.5 c 128,-1,60
 907 1400 907 1400 935.5 1383 c 128,-1,61
 964 1366 964 1366 981.5 1337.5 c 128,-1,62
 999 1309 999 1309 999 1266 c 0,63,64
 999 1242 999 1242 990 1223.5 c 128,-1,65
 981 1205 981 1205 966 1192.5 c 128,-1,66
 951 1180 951 1180 932 1173.5 c 128,-1,67
 913 1167 913 1167 893 1167 c 0,68,69
 874 1167 874 1167 856 1173 c 128,-1,70
 838 1179 838 1179 824 1190.5 c 128,-1,71
 810 1202 810 1202 801.5 1219.5 c 128,-1,72
 793 1237 793 1237 793 1260 c 0,73,74
 793 1293 793 1293 819 1331 c 1,75,76
 802 1337 802 1337 786.5 1342.5 c 128,-1,77
 771 1348 771 1348 756 1348 c 0,78,79
 712 1348 712 1348 675 1319 c 128,-1,80
 638 1290 638 1290 608 1248 c 128,-1,81
 578 1206 578 1206 556 1158.5 c 128,-1,82
 534 1111 534 1111 520 1073 c 0,83,84
 477 956 477 956 442.5 831.5 c 128,-1,85
 408 707 408 707 379 582 c 1,86,-1
 731 582 l 2,87,88
 756 582 756 582 772.5 573.5 c 128,-1,89
 789 565 789 565 798.5 551 c 128,-1,90
 808 537 808 537 811.5 518 c 128,-1,91
 815 499 815 499 815 477 c 0,92,93
 815 452 815 452 807.5 425.5 c 128,-1,94
 800 399 800 399 795 379 c 1,95,-1
 729 193 l 2,96,97
 723 174 723 174 719 161 c 128,-1,98
 715 148 715 148 715 137 c 0,99,100
 715 122 715 122 717.5 115.5 c 128,-1,101
 720 109 720 109 731 109 c 0,102,103
 744 109 744 109 757.5 117.5 c 128,-1,104
 771 126 771 126 782 141 c 2,105,-1
 836 211 l 1,106,-1
 877 176 l 1,107,108
 848 122 848 122 815.5 83.5 c 128,-1,109
 783 45 783 45 751.5 21 c 128,-1,110
 720 -3 720 -3 692.5 -14 c 128,-1,111
 665 -25 665 -25 645 -25 c 256,112,113
 625 -25 625 -25 610.5 -16.5 c 128,-1,114
 596 -8 596 -8 586 5.5 c 128,-1,115
 576 19 576 19 571.5 35 c 128,-1,116
 567 51 567 51 567 66 c 0,117,118
 567 100 567 100 575.5 141.5 c 128,-1,119
 584 183 584 183 597 226 c 128,-1,120
 610 269 610 269 625.5 310.5 c 128,-1,121
 641 352 641 352 654 388 c 128,-1,122
 667 424 667 424 675.5 450.5 c 128,-1,123
 684 477 684 477 684 489 c 0,124,125
 684 516 684 516 670 516 c 2,126,-1
 365 516 l 1,20,-1
EndSplineSet
Validated: 9
Ligature2: "'liga' Standard Ligatures in Latin lookup 1 subtable" f i
Ligature2: "'liga' Standard Ligatures in Latin lookup 0 subtable" f i
EndChar

StartChar: fl
Encoding: 64258 64258 77
Width: 997
GlyphClass: 3
Flags: W
LayerCount: 2
Fore
SplineSet
772 180 m 1,0,1
 772 151 772 151 774.5 138 c 128,-1,2
 777 125 777 125 788 125 c 0,3,4
 802 125 802 125 822.5 145.5 c 128,-1,5
 843 166 843 166 862.5 191.5 c 128,-1,6
 882 217 882 217 897.5 240 c 128,-1,7
 913 263 913 263 917 268 c 1,8,-1
 960 231 l 1,9,10
 923 161 923 161 885.5 114 c 128,-1,11
 848 67 848 67 814 38 c 128,-1,12
 780 9 780 9 751.5 -3.5 c 128,-1,13
 723 -16 723 -16 704 -16 c 0,14,15
 678 -16 678 -16 660.5 -4.5 c 128,-1,16
 643 7 643 7 632 27 c 128,-1,17
 621 47 621 47 616.5 73.5 c 128,-1,18
 612 100 612 100 612 129 c 0,19,20
 612 201 612 201 632 293.5 c 128,-1,21
 652 386 652 386 681.5 487.5 c 128,-1,22
 711 589 711 589 746 694 c 128,-1,23
 781 799 781 799 810.5 895 c 128,-1,24
 840 991 840 991 860 1073.5 c 128,-1,25
 880 1156 880 1156 880 1212 c 0,26,27
 880 1241 880 1241 873 1266 c 128,-1,28
 866 1291 866 1291 851 1309 c 128,-1,29
 836 1327 836 1327 811.5 1337.5 c 128,-1,30
 787 1348 787 1348 753 1348 c 0,31,32
 712 1348 712 1348 675 1319 c 128,-1,33
 638 1290 638 1290 608 1247.5 c 128,-1,34
 578 1205 578 1205 555.5 1157.5 c 128,-1,35
 533 1110 533 1110 520 1073 c 0,36,37
 477 956 477 956 442.5 831.5 c 128,-1,38
 408 707 408 707 379 582 c 1,39,-1
 618 582 l 1,40,-1
 602 516 l 1,41,-1
 364 516 l 1,42,-1
 340 414 l 2,43,44
 318 322 318 322 296 234.5 c 128,-1,45
 274 147 274 147 248 69.5 c 128,-1,46
 222 -8 222 -8 189.5 -73 c 128,-1,47
 157 -138 157 -138 114 -185 c 128,-1,48
 71 -232 71 -232 16 -258.5 c 128,-1,49
 -39 -285 -39 -285 -111 -285 c 0,50,51
 -160 -285 -160 -285 -181.5 -262 c 128,-1,52
 -203 -239 -203 -239 -203 -211 c 256,53,54
 -203 -183 -203 -183 -183.5 -160 c 128,-1,55
 -164 -137 -164 -137 -129 -137 c 0,56,57
 -103 -137 -103 -137 -82.5 -150.5 c 128,-1,58
 -62 -164 -62 -164 -62 -188 c 0,59,60
 -62 -196 -62 -196 -66.5 -212 c 128,-1,61
 -71 -228 -71 -228 -76 -236 c 1,62,63
 -42 -231 -42 -231 -15 -195.5 c 128,-1,64
 12 -160 12 -160 34.5 -105.5 c 128,-1,65
 57 -51 57 -51 75 17 c 128,-1,66
 93 85 93 85 108.5 155.5 c 128,-1,67
 124 226 124 226 137.5 293.5 c 128,-1,68
 151 361 151 361 164 414 c 2,69,-1
 188 516 l 1,70,-1
 0 516 l 1,71,-1
 16 582 l 1,72,-1
 202 582 l 1,73,74
 230 695 230 695 262 801 c 128,-1,75
 294 907 294 907 332 999.5 c 128,-1,76
 370 1092 370 1092 415 1168 c 128,-1,77
 460 1244 460 1244 515 1298.5 c 128,-1,78
 570 1353 570 1353 635.5 1383 c 128,-1,79
 701 1413 701 1413 780 1413 c 0,80,81
 849 1413 849 1413 896 1397 c 128,-1,82
 943 1381 943 1381 972 1352 c 128,-1,83
 1001 1323 1001 1323 1013.5 1282.5 c 128,-1,84
 1026 1242 1026 1242 1026 1192 c 0,85,86
 1026 1126 1026 1126 1008.5 1042.5 c 128,-1,87
 991 959 991 959 964 867 c 128,-1,88
 937 775 937 775 905 678.5 c 128,-1,89
 873 582 873 582 845 491.5 c 128,-1,90
 817 401 817 401 796.5 320.5 c 128,-1,91
 776 240 776 240 772 180 c 1,0,1
EndSplineSet
Validated: 1
Ligature2: "'liga' Standard Ligatures in Latin lookup 1 subtable" f l
Ligature2: "'liga' Standard Ligatures in Latin lookup 0 subtable" f l
EndChar

